{
.appVersion = "3341";
.formatVersion = 3;
axes = (
{
name = Width;
tag = wdth;
},
{
name = Inktrap;
tag = INKT;
}
);
classes = (
{
automatic = 1;
code = "A Aacute Abreve Acircumflex Adieresis Agrave Amacron Aogonek Aring Atilde AE B C Cacute Ccaron Ccedilla Cdotaccent D Dcaron Dcroat Eth E Eacute Ecaron Ecircumflex Edieresis Edotaccent Egrave Emacron Eogonek F G Gbreve Gcommaaccent Gdotaccent H Hbar I Iacute Icircumflex Idieresis Idotaccent Igrave Imacron Iogonek J K Kcommaaccent L Lacute Lcaron Lcommaaccent Lslash M N Nacute Ncaron Ncommaaccent Ntilde O Oacute Ocircumflex Odieresis Ograve Ohungarumlaut Oslash Otilde OE P Thorn Q R Racute Rcaron S Sacute Scaron Scedilla Scommaaccent Germandbls T Tcaron Tcommaaccent U Uacute Ucircumflex Udieresis Ugrave Uhungarumlaut Umacron Uogonek Uring V W Wacute Wcircumflex Wdieresis Wgrave X Y Yacute Ycircumflex Ydieresis Ygrave Z Zacute Zcaron Zdotaccent T_h.liga Tcaron_h.liga Tcommaaccent_h.liga A-cy Be-cy Ve-cy Ge-cy Geupturn-cy De-cy Ie-cy Io-cy Zhe-cy Ze-cy Ii-cy Iishort-cy Ka-cy El-cy Em-cy En-cy O-cy Pe-cy Er-cy Es-cy Te-cy U-cy Ushort-cy Ef-cy Ha-cy Tse-cy Che-cy Sha-cy Shcha-cy Dzhe-cy Softsign-cy Yeru-cy Hardsign-cy Lje-cy Nje-cy E-cy Ereversed-cy I-cy Yi-cy Je-cy Tshe-cy Yu-cy Ya-cy Dje-cy";
name = Uppercase;
},
{
code = "aogonek eogonek gbreve gcommaaccent gdotaccent iogonek lcommaaccent q j uogonek y yacute ycircumflex ydieresis ygrave g.ss02 gbreve.ss02 gcommaaccent.ss02 gdotaccent.ss02 Aogonek Eogonek Iogonek";
name = LAT_descender_right;
},
{
code = "dje-cy ushort-cy u-cy dzhe-cy";
name = CYR_descender_right;
}
);
customParameters = (
{
name = "Enforce Compatibility Check";
value = 1;
},
{
name = "Update Features";
value = 1;
},
{
name = fsType;
value = (
);
},
{
name = "Axis Mappings";
value = {
INKT = {
0 = 0;
100 = 100;
};
wdth = {
100 = 100;
200 = 200;
};
};
},
{
name = "Use Typo Metrics";
value = 1;
}
);
date = "2024-07-10 14:38:38 +0000";
familyName = Elastre;
featurePrefixes = (
{
automatic = 1;

glyphs = (
{
glyphname = A;
kernLeft = A;
kernRight = A;
lastChange = "2025-01-25 17:31:50 +0000";
layers = (
{
anchors = (
{
name = bottom;
pos = (1192,0);
},
{
name = ogonek;
pos = (2322,26);
},
{
name = top;
pos = (1192,1859);
}
);
layerId = m01;
shapes = (
{
closed = 1;
nodes = (
(301,0,l),
(650,620,l),
(1728,620,l),
(2080,0,l),
(2322,0,l),
(1292,1792,l),
(1082,1792,l),
(60,0,l)
);
},
{
closed = 1;
nodes = (
(1110,1437,ls),
(1147,1504,o),
(1177,1576,o),
(1177,1594,c),
(1197,1594,l),
(1197,1576,o),
(1227,1504,o),
(1265,1437,cs),
(1612,824,l),
(765,824,l)
);
}
);
width = 2382;
},
{
anchors = (
{
name = bottom;
pos = (1498,0);
},
{
name = ogonek;
pos = (2934,26);
},
{
name = top;
pos = (1498,1859);
}
);
layerId = m004;
shapes = (
{
closed = 1;
nodes = (
(320,0,l),
(776,620,l),
(2217,620,l),
(2673,0,l),
(2934,0,l),
(1600,1792,l),
(1390,1792,l),
(60,0,l)
);
},
{
closed = 1;
nodes = (
(1403,1473,ls),
(1448,1535,o),
(1486,1602,o),
(1486,1620,c),
(1506,1620,l),
(1506,1602,o),
(1544,1535,o),
(1589,1473,cs),
(2067,824,l),
(925,824,l)
);
}
);
width = 2994;
},
{
anchors = (
{
name = bottom;
pos = (1192,0);
},
{
name = ogonek;
pos = (2322,26);
},
{
name = top;
pos = (1192,1859);
}
);
layerId = m003;
shapes = (
{
closed = 1;
nodes = (
(301,0,l),
(650,620,l),
(1728,620,l),
(2080,0,l),
(2322,0,l),
(1292,1792,l),
(1082,1792,l),
(60,0,l)
);
},
{
closed = 1;
nodes = (
(1096,1411,ls),
(1131,1475,o),
(1137,1566,o),
(1137,1594,c),
(1237,1594,l),
(1237,1566,o),
(1243,1475,o),
(1279,1412,cs),
(1612,824,l),
(765,824,l)
);
}
);
width = 2382;
},
{
anchors = (
{
name = bottom;
pos = (1499,0);
},
{
name = ogonek;
pos = (2936,26);
},
{
name = top;
pos = (1499,1859);
}
);
layerId = m005;
shapes = (
{
closed = 1;
nodes = (
(321,0,l),
(777,620,l),
(2218,620,l),
(2674,0,l),
(2936,0,l),
(1601,1792,l),
(1391,1792,l),
(60,0,l)
);
},
{
closed = 1;
nodes = (
(1386,1450,ls),
(1429,1508,o),
(1447,1592,o),
(1447,1620,c),
(1547,1620,l),
(1547,1592,o),
(1565,1508,o),
(1608,1450,cs),
(2068,824,l),
(926,824,l)
);
}
);
width = 2996;
}
);
metricLeft = V;
metricRight = V;
unicode = 65;
},
{
glyphname = AE;
kernLeft = A;
kernRight = O;
lastChange = "2025-01-25 17:31:50 +0000";
layers = (
{
layerId = m01;
shapes = (
{
closed = 1;
nodes = (
(301,0,l),
(765,824,l),
(1394,824,ls),
(1475,824,o),
(1525,888,o),
(1525,917,c),
(1545,917,l),
(1545,0,l),
(3104,0,l),
(3104,205,l),
(1755,205,l),
(1755,824,l),
(3053,824,l),
(3053,1029,l),
(1906,1029,ls),
(1825,1029,o),
(1775,965,o),
(1775,936,c),
(1755,936,l),
(1755,1587,l),
(3104,1587,l),
(3104,1792,l),
(1082,1792,l),
(60,0,l)
);
},
{
closed = 1;
nodes = (
(1194,1587,l),
(1545,1587,l),
(1545,1029,l),
(880,1029,l)
);
}
);
width = 3224;
},
{
guides = (
{
angle = 53.7064;
pos = (359,310);
}
);
layerId = m004;
shapes = (
{
closed = 1;
nodes = (
(321,0,l),
(927,824,l),
(1832,824,ls),
(1913,824,o),
(1963,888,o),
(1963,917,c),
(1983,917,l),
(1983,0,l),
(4668,0,l),
(4668,205,l),
(2193,205,l),
(2193,824,l),
(4617,824,l),
(4617,1029,l),
(2344,1029,ls),
(2263,1029,o),
(2213,965,o),
(2213,936,c),
(2193,936,l),
(2193,1587,l),
(4668,1587,l),
(4668,1792,l),
(1391,1792,l),
(60,0,l)
);
},
{
closed = 1;
nodes = (
(1489,1587,l),
(1983,1587,l),
(1983,1029,l),
(1078,1029,l)
);
}
);
width = 4788;
},
{
guides = (
{
angle = 60.6335;
pos = (298,311);
}
);
layerId = m003;
shapes = (
{
closed = 1;
nodes = (
(301,0,l),
(765,824,l),
(1238,824,ls),
(1345,824,o),
(1419,888,o),
(1419,917,c),
(1545,917,l),
(1545,0,l),
(3104,0,l),
(3104,205,l),
(1755,205,l),
(1755,824,l),
(3053,824,l),
(3053,1029,l),
(2062,1029,ls),
(1955,1029,o),
(1881,965,o),
(1881,936,c),
(1755,936,l),
(1755,1587,l),
(3104,1587,l),
(3104,1792,l),
(1082,1792,l),
(60,0,l)
);
},
{
closed = 1;
nodes = (
(1194,1587,l),
(1545,1587,l),
(1545,1029,l),
(880,1029,l)
);
}
);
width = 3224;
},
{
layerId = m005;
shapes = (
{
closed = 1;
nodes = (
(321,0,l),
(927,824,l),
(1676,824,ls),
(1783,824,o),
(1857,888,o),
(1857,917,c),
(1983,917,l),
(1983,0,l),
(4668,0,l),
(4668,205,l),
(2193,205,l),
(2193,824,l),
(4617,824,l),
(4617,1029,l),
(2500,1029,ls),
(2393,1029,o),
(2319,965,o),
(2319,936,c),
(2193,936,l),
(2193,1587,l),
(4668,1587,l),
(4668,1792,l),
(1391,1792,l),
(60,0,l)
);
},
{
closed = 1;
nodes = (
(1489,1587,l),
(1983,1587,l),
(1983,1029,l),
(1078,1029,l)
);
}
);
width = 4788;
}
);
metricLeft = V;
metricRight = E;
unicode = 198;
},
{
glyphname = B;
kernLeft = H;
kernRight = O;
lastChange = "2025-01-25 17:31:50 +0000";
layers = (
{
anchors = (
{
name = bottom;
pos = (992,0);
},
{
name = top;
pos = (992,1859);
}
);
layerId = m01;
shapes = (
{
closed = 1;
nodes = (
(1312,0,ls),
(1629,0,o),
(1852,218,o),
(1852,502,cs),
(1852,709,o),
(1732,873,o),
(1519,926,c),
(1516,946,l),
(1693,989,o),
(1826,1097,o),
(1826,1316,cs),
(1826,1592,o),
(1604,1792,o),
(1286,1792,cs),
(180,1792,l),
(180,0,l)
);
},
{
closed = 1;
nodes = (
(390,205,l),
(390,824,l),
(1312,824,ls),
(1547,824,o),
(1642,666,o),
(1642,515,cs),
(1642,364,o),
(1547,205,o),
(1312,205,cs)
);
},
{
closed = 1;
nodes = (
(390,1029,l),
(390,1587,l),
(1286,1587,ls),
(1522,1587,o),
(1616,1446,o),
(1616,1308,cs),
(1616,1170,o),
(1522,1029,o),
(1286,1029,cs)
);
}
);
width = 1972;
},
{
anchors = (
{
name = bottom;
pos = (1568,0);
},
{
name = top;
pos = (1568,1859);
}
);
layerId = m004;
shapes = (
{
closed = 1;
nodes = (
(2464,0,ls),
(2781,0,o),
(3004,218,o),
(3004,502,cs),
(3004,709,o),
(2884,873,o),
(2671,926,c),
(2668,946,l),
(2845,989,o),
(2978,1097,o),
(2978,1316,cs),
(2978,1592,o),
(2756,1792,o),
(2438,1792,cs),
(180,1792,l),
(180,0,l)
);
},
{
closed = 1;
nodes = (
(390,205,l),
(390,824,l),
(2464,824,ls),
(2699,824,o),
(2794,666,o),
(2794,515,cs),
(2794,364,o),
(2699,205,o),
(2464,205,cs)
);
},
{
closed = 1;
nodes = (
(390,1029,l),
(390,1587,l),
(2438,1587,ls),
(2674,1587,o),
(2768,1446,o),
(2768,1308,cs),
(2768,1170,o),
(2674,1029,o),
(2438,1029,cs)
);
}
);
width = 3124;
},
{
anchors = (
{
name = bottom;
pos = (992,0);
},
{
name = top;
pos = (992,1859);
}
);
layerId = m003;
shapes = (
{
closed = 1;
nodes = (
(1312,0,ls),
(1629,0,o),
(1852,218,o),
(1852,502,cs),
(1852,696,o),
(1746,853,o),
(1521,887,c),
(1517,987,l),
(1712,1006,o),
(1826,1114,o),
(1826,1316,cs),
(1826,1592,o),
(1604,1792,o),
(1286,1792,cs),
(180,1792,l),
(180,0,l)
);
},
{
closed = 1;
nodes = (
(390,205,l),
(390,824,l),
(1312,824,ls),
(1547,824,o),
(1642,666,o),
(1642,515,cs),
(1642,364,o),
(1547,205,o),
(1312,205,cs)
);
},
{
closed = 1;
nodes = (
(390,1029,l),
(390,1587,l),
(1286,1587,ls),
(1522,1587,o),
(1616,1446,o),
(1616,1308,cs),
(1616,1170,o),
(1522,1029,o),
(1286,1029,cs)
);
}
);
width = 1972;
},
{
anchors = (
{
name = bottom;
pos = (1568,0);
},
{
name = top;
pos = (1568,1859);
}
);
layerId = m005;
shapes = (
{
closed = 1;
nodes = (
(2464,0,ls),
(2781,0,o),
(3004,218,o),
(3004,502,cs),
(3004,696,o),
(2898,853,o),
(2673,887,c),
(2669,987,l),
(2864,1006,o),
(2978,1114,o),
(2978,1316,cs),
(2978,1592,o),
(2756,1792,o),
(2438,1792,cs),
(180,1792,l),
(180,0,l)
);
},
{
closed = 1;
nodes = (
(390,205,l),
(390,824,l),
(2464,824,ls),
(2699,824,o),
(2794,666,o),
(2794,515,cs),
(2794,364,o),
(2699,205,o),
(2464,205,cs)
);
},
{
closed = 1;
nodes = (
(390,1029,l),
(390,1587,l),
(2438,1587,ls),
(2674,1587,o),
(2768,1446,o),
(2768,1308,cs),
(2768,1170,o),
(2674,1029,o),
(2438,1029,cs)
);
}
);
width = 3124;
},
{
anchors = (
{
name = bottom;
pos = (1004,0);
},
{
name = center;
pos = (502,448);
},
{
name = top;
pos = (1004,1859);
}
);
associatedMasterId = m003;
hints = (
{
name = _corner.inkhormid;
options = 2;
origin = (0,6);
type = Corner;
}
);
layerId = "E283880A-6FEE-4DCF-9DED-889FBE7F2E94";
name = "16. 10. 24 at 10:56 AM";
shapes = (
{
closed = 1;
nodes = (
(1341,0,ls),
(1633,0,o),
(1876,184,o),
(1876,522,cs),
(1876,696,o),
(1812,883,o),
(1577,950,c),
(1736,996,o),
(1825,1116,o),
(1825,1303,cs),
(1825,1595,o),
(1603,1792,o),
(1285,1792,cs),
(312,1792,l),
(312,1587,l),
(1285,1587,ls),
(1521,1587,o),
(1615,1446,o),
(1615,1308,cs),
(1615,1170,o),
(1521,1029,o),
(1285,1029,cs),
(312,1029,l),
(312,824,l),
(1341,824,ls),
(1539,824,o),
(1667,717,o),
(1667,515,cs),
(1667,312,o),
(1539,205,o),
(1341,205,cs),
(312,205,l),
(312,0,l)
);
},
{
closed = 1;
nodes = (
(389,0,l),
(389,1792,l),
(179,1792,l),
(179,0,l)
);
}
);
width = 2004;
},
{
anchors = (
{
name = bottom;
pos = (1567,0);
},
{
name = top;
pos = (1567,1859);
}
);
associatedMasterId = m004;
hints = (
{
name = _corner.inkhormid;
options = 2;
origin = (0,6);
type = Corner;
}
);
layerId = "B49C957E-F366-450B-B2D6-CB500E698165";
name = "16. 10. 24 at 11:05 AM";
shapes = (
{
closed = 1;
nodes = (
(2468,0,ls),
(2760,0,o),
(3003,184,o),
(3003,522,cs),
(3003,696,o),
(2939,883,o),
(2703,950,c),
(2862,996,o),
(2952,1116,o),
(2952,1303,cs),
(2952,1595,o),
(2729,1792,o),
(2412,1792,cs),
(312,1792,l),
(312,1587,l),
(2412,1587,ls),
(2647,1587,o),
(2742,1446,o),
(2742,1308,cs),
(2742,1170,o),
(2647,1029,o),
(2412,1029,cs),
(312,1029,l),
(312,824,l),
(2468,824,ls),
(2665,824,o),
(2793,717,o),
(2793,515,cs),
(2793,312,o),
(2665,205,o),
(2468,205,cs),
(312,205,l),
(312,0,l)
);
},
{
closed = 1;
nodes = (
(389,0,l),
(389,1792,l),
(179,1792,l),
(179,0,l)
);
}
);
width = 3131;
}
);
metricLeft = H;
metricRight = O;
unicode = 66;
},
{
glyphname = C;
kernLeft = O;
kernRight = O;
lastChange = "2025-01-25 17:31:50 +0000";
layers = (
{
anchors = (
{
name = bottom;
pos = (1124,0);
},
{
name = top;
pos = (1124,1859);
}
);
guides = (
{
angle = 270;
pos = (715,396);
}
);
layerId = m01;
shapes = (
{
closed = 1;
nodes = (
(1843,0,l),
(1843,205,l),
(970,205,ls),
(560,205,o),
(330,471,o),
(330,896,cs),
(330,1318,o),
(560,1587,o),
(970,1587,cs),
(1843,1587,l),
(1843,1792,l),
(970,1792,ls),
(458,1792,o),
(120,1452,o),
(120,896,cs),
(120,340,o),
(458,0,o),
(970,0,cs)
);
}
);
width = 1883;
},
{
anchors = (
{
name = bottom;
pos = (1661,0);
},
{
name = top;
pos = (1661,1859);
}
);
guides = (
{
angle = 270;
pos = (935,396);
}
);
layerId = m004;
shapes = (
{
closed = 1;
nodes = (
(2969,0,l),
(2969,205,l),
(970,205,ls),
(560,205,o),
(330,471,o),
(330,896,cs),
(330,1318,o),
(560,1587,o),
(970,1587,cs),
(2969,1587,l),
(2969,1792,l),
(970,1792,ls),
(458,1792,o),
(120,1452,o),
(120,896,cs),
(120,340,o),
(458,0,o),
(970,0,cs)
);
}
);
width = 3009;
},
{
anchors = (
{
name = bottom;
pos = (1124,0);
},
{
name = top;
pos = (1124,1859);
}
);
guides = (
{
angle = 270;
pos = (715,396);
}
);
layerId = m003;
shapes = (
{
closed = 1;
nodes = (
(1843,0,l),
(1843,205,l),
(970,205,ls),
(560,205,o),
(330,471,o),
(330,896,cs),
(330,1318,o),
(560,1587,o),
(970,1587,cs),
(1843,1587,l),
(1843,1792,l),
(970,1792,ls),
(458,1792,o),
(120,1452,o),
(120,896,cs),
(120,340,o),
(458,0,o),
(970,0,cs)
);
}
);
width = 1883;
},
{
anchors = (
{
name = bottom;
pos = (1687,0);
},
{
name = top;
pos = (1687,1859);
}
);
guides = (
{
angle = 270;
pos = (935,396);
}
);
layerId = m005;
shapes = (
{
closed = 1;
nodes = (
(2969,0,l),
(2969,205,l),
(970,205,ls),
(560,205,o),
(330,471,o),
(330,896,cs),
(330,1318,o),
(560,1587,o),
(970,1587,cs),
(2969,1587,l),
(2969,1792,l),
(970,1792,ls),
(458,1792,o),
(120,1452,o),
(120,896,cs),
(120,340,o),
(458,0,o),
(970,0,cs)
);
}
);
width = 3009;
}
);
metricLeft = O;
metricRight = "=V-20";
unicode = 67;
},
{
glyphname = D;
kernLeft = H;
kernRight = O;
lastChange = "2025-01-25 17:31:50 +0000";
layers = (
{
anchors = (
{
name = bottom;
pos = (928,0);
},
{
name = center;
pos = (285,896);
},
{
name = top;
pos = (928,1859);
}
);
layerId = m01;
shapes = (
{
closed = 1;
nodes = (
(1028,0,ls),
(1540,0,o),
(1877,340,o),
(1877,896,cs),
(1877,1452,o),
(1540,1792,o),
(1028,1792,cs),
(180,1792,l),
(180,0,l)
);
},
{
closed = 1;
nodes = (
(390,205,l),
(390,1587,l),
(1028,1587,ls),
(1437,1587,o),
(1668,1318,o),
(1668,896,cs),
(1668,471,o),
(1437,205,o),
(1028,205,cs)
);
}
);
width = 1997;
},
{
anchors = (
{
name = bottom;
pos = (1463,0);
},
{
name = center;
pos = (285,896);
},
{
name = top;
pos = (1463,1859);
}
);
layerId = m004;
shapes = (
{
closed = 1;
nodes = (
(2098,0,ls),
(2610,0,o),
(2948,340,o),
(2948,896,cs),
(2948,1452,o),
(2610,1792,o),
(2098,1792,cs),
(180,1792,l),
(180,0,l)
);
},
{
closed = 1;
nodes = (
(390,205,l),
(390,1587,l),
(2098,1587,ls),
(2507,1587,o),
(2738,1318,o),
(2738,896,cs),
(2738,471,o),
(2507,205,o),
(2098,205,cs)
);
}
);
width = 3068;
},
{
anchors = (
{
name = bottom;
pos = (928,0);
},
{
name = center;
pos = (285,896);
},
{
name = top;
pos = (928,1859);
}
);
layerId = m003;
shapes = (
{
closed = 1;
nodes = (
(1028,0,ls),
(1540,0,o),
(1877,340,o),
(1877,896,cs),
(1877,1452,o),
(1540,1792,o),
(1028,1792,cs),
(180,1792,l),
(180,0,l)
);
},
{
closed = 1;
nodes = (
(390,205,l),
(390,1587,l),
(1028,1587,ls),
(1437,1587,o),
(1668,1318,o),
(1668,896,cs),
(1668,471,o),
(1437,205,o),
(1028,205,cs)
);
}
);
width = 1997;
},
{
anchors = (
{
name = bottom;
pos = (1463,0);
},
{
name = center;
pos = (285,896);
},
{
name = top;
pos = (1463,1859);
}
);
layerId = m005;
shapes = (
{
closed = 1;
nodes = (
(2098,0,ls),
(2610,0,o),
(2948,340,o),
(2948,896,cs),
(2948,1452,o),
(2610,1792,o),
(2098,1792,cs),
(180,1792,l),
(180,0,l)
);
},
{
closed = 1;
nodes = (
(390,205,l),
(390,1587,l),
(2098,1587,ls),
(2507,1587,o),
(2738,1318,o),
(2738,896,cs),
(2738,471,o),
(2507,205,o),
(2098,205,cs)
);
}
);
width = 3068;
}
);
metricLeft = H;
metricRight = O;
unicode = 68;
},
{
glyphname = Dcroat;
kernLeft = H;
kernRight = O;
lastChange = "2025-01-25 17:31:50 +0000";
layers = (
{
layerId = m01;
shapes = (
{
closed = 1;
nodes = (
(1260,0,ls),
(1772,0,o),
(2110,340,o),
(2110,896,cs),
(2110,1452,o),
(1772,1792,o),
(1260,1792,cs),
(413,1792,l),
(413,996,l),
(80,996,l),
(80,796,l),
(262,796,ls),
(343,796,o),
(393,860,o),
(393,889,c),
(413,889,l),
(413,0,l)
);
},
{
closed = 1;
nodes = (
(623,205,l),
(623,796,l),
(1289,796,l),
(1289,996,l),
(774,996,ls),
(693,996,o),
(643,932,o),
(643,903,c),
(623,903,l),
(623,1587,l),
(1260,1587,ls),
(1670,1587,o),
(1900,1318,o),
(1900,896,cs),
(1900,471,o),
(1670,205,o),
(1260,205,cs)
);
}
);
width = 2230;
},
{
layerId = m004;
shapes = (
{
closed = 1;
nodes = (
(2407,0,ls),
(2919,0,o),
(3257,340,o),
(3257,896,cs),
(3257,1452,o),
(2919,1792,o),
(2407,1792,cs),
(490,1792,l),
(490,996,l),
(80,996,l),
(80,796,l),
(339,796,ls),
(420,796,o),
(470,860,o),
(470,889,c),
(490,889,l),
(490,0,l)
);
},
{
closed = 1;
nodes = (
(700,205,l),
(700,796,l),
(1877,796,l),
(1877,996,l),
(851,996,ls),
(770,996,o),
(720,932,o),
(720,903,c),
(700,903,l),
(700,1587,l),
(2407,1587,ls),
(2817,1587,o),
(3047,1318,o),
(3047,896,cs),
(3047,471,o),
(2817,205,o),
(2407,205,cs)
);
}
);
width = 3377;
},
{
layerId = m003;
shapes = (
{
closed = 1;
nodes = (
(1260,0,ls),
(1772,0,o),
(2110,340,o),
(2110,896,cs),
(2110,1452,o),
(1772,1792,o),
(1260,1792,cs),
(413,1792,l),
(413,996,l),
(80,996,l),
(80,796,l),
(106,796,ls),
(213,796,o),
(287,860,o),
(287,889,c),
(413,889,l),
(413,0,l)
);
},
{
closed = 1;
nodes = (
(623,205,l),
(623,796,l),
(1289,796,l),
(1289,996,l),
(930,996,ls),
(823,996,o),
(749,932,o),
(749,903,c),
(623,903,l),
(623,1587,l),
(1260,1587,ls),
(1670,1587,o),
(1900,1318,o),
(1900,896,cs),
(1900,471,o),
(1670,205,o),
(1260,205,cs)
);
}
);
width = 2230;
},
{
layerId = m005;
shapes = (
{
closed = 1;
nodes = (
(2407,0,ls),
(2919,0,o),
(3257,340,o),
(3257,896,cs),
(3257,1452,o),
(2919,1792,o),
(2407,1792,cs),
(490,1792,l),
(490,996,l),
(80,996,l),
(80,796,l),
(183,796,ls),
(290,796,o),
(364,860,o),
(364,889,c),
(490,889,l),
(490,0,l)
);
},
{
closed = 1;
nodes = (
(700,205,l),
(700,796,l),
(1877,796,l),
(1877,996,l),
(1007,996,ls),
(900,996,o),
(826,932,o),
(826,903,c),
(700,903,l),
(700,1587,l),
(2407,1587,ls),
(2817,1587,o),
(3047,1318,o),
(3047,896,cs),
(3047,471,o),
(2817,205,o),
(2407,205,cs)
);
}
);
width = 3377;
},
{
associatedMasterId = m01;
layerId = "418F7CB4-293F-4E5E-851E-688CB7D8ED63";
name = "11. 11. 24 at 3:11 PM";
shapes = (
{
alignment = -1;
pos = (151,0);
ref = D;
}
);
width = 2156;
},
{
associatedMasterId = m004;
layerId = "60FD844D-8FBD-4A5D-8D9F-4DD364561188";
name = "11. 11. 24 at 3:11 PM";
shapes = (
{
alignment = -1;
pos = (151,0);
ref = D;
}
);
width = 3226;
}
);
metricLeft = "=D-100";
metricRight = "=D";
unicode = 272;
},
{
glyphname = E;
kernLeft = H;
kernRight = O;
lastChange = "2025-01-25 17:31:50 +0000";
layers = (
{
anchors = (
{
name = bottom;
pos = (935,0);
},
{
name = ogonek;
pos = (1739,26);
},
{
name = top;
pos = (935,1859);
},
{
name = topleft;
pos = (52,1859);
}
);
layerId = m01;
shapes = (
{
closed = 1;
nodes = (
(1739,0,l),
(1739,205,l),
(390,205,l),
(390,824,l),
(1688,824,l),
(1688,1029,l),
(541,1029,ls),
(460,1029,o),
(410,965,o),
(410,936,c),
(390,936,l),
(390,1587,l),
(1739,1587,l),
(1739,1792,l),
(180,1792,l),
(180,0,l)
);
}
);
width = 1859;
},
{
anchors = (
{
name = bottom;
pos = (1499,0);
},
{
name = ogonek;
pos = (2866,26);
},
{
name = top;
pos = (1499,1859);
},
{
name = topleft;
pos = (52,1859);
}
);
layerId = m004;
shapes = (
{
closed = 1;
nodes = (
(2866,0,l),
(2866,205,l),
(390,205,l),
(390,824,l),
(2814,824,l),
(2814,1029,l),
(541,1029,ls),
(460,1029,o),
(410,965,o),
(410,936,c),
(390,936,l),
(390,1587,l),
(2866,1587,l),
(2866,1792,l),
(180,1792,l),
(180,0,l)
);
}
);
width = 2986;
},
{
anchors = (
{
name = bottom;
pos = (935,0);
},
{
name = ogonek;
pos = (1739,26);
},
{
name = top;
pos = (935,1859);
},
{
name = topleft;
pos = (52,1859);
}
);
layerId = m003;
shapes = (
{
closed = 1;
nodes = (
(1739,0,l),
(1739,205,l),
(390,205,l),
(390,824,l),
(1688,824,l),
(1688,1029,l),
(697,1029,ls),
(590,1029,o),
(516,965,o),
(516,936,c),
(390,936,l),
(390,1587,l),
(1739,1587,l),
(1739,1792,l),
(180,1792,l),
(180,0,l)
);
}
);
width = 1859;
},
{
anchors = (
{
name = bottom;
pos = (1499,0);
},
{
name = ogonek;
pos = (2866,26);
},
{
name = top;
pos = (1499,1859);
},
{
name = topleft;
pos = (52,1859);
}
);
layerId = m005;
shapes = (
{
closed = 1;
nodes = (
(2866,0,l),
(2866,205,l),
(390,205,l),
(390,824,l),
(2814,824,l),
(2814,1029,l),
(697,1029,ls),
(590,1029,o),
(516,965,o),
(516,936,c),
(390,936,l),
(390,1587,l),
(2866,1587,l),
(2866,1792,l),
(180,1792,l),
(180,0,l)
);
}
);
width = 2986;
}
);
metricLeft = H;
metricRight = O;
unicode = 69;
},
{
glyphname = F;
kernLeft = H;
kernRight = O;
lastChange = "2025-01-25 17:31:50 +0000";
layers = (
{
anchors = (
{
name = bottom;
pos = (923,0);
},
{
name = top;
pos = (923,1859);
}
);
layerId = m01;
shapes = (
{
closed = 1;
nodes = (
(390,0,l),
(390,824,l),
(1688,824,l),
(1688,1029,l),
(541,1029,ls),
(460,1029,o),
(410,965,o),
(410,936,c),
(390,936,l),
(390,1587,l),
(1739,1587,l),
(1739,1792,l),
(180,1792,l),
(180,0,l)
);
}
);
width = 1819;
},
{
anchors = (
{
name = bottom;
pos = (1486,0);
},
{
name = top;
pos = (1486,1859);
}
);
layerId = m004;
shapes = (
{
closed = 1;
nodes = (
(390,0,l),
(390,824,l),
(2814,824,l),
(2814,1029,l),
(541,1029,ls),
(460,1029,o),
(410,965,o),
(410,936,c),
(390,936,l),
(390,1587,l),
(2866,1587,l),
(2866,1792,l),
(180,1792,l),
(180,0,l)
);
}
);
width = 2946;
},
{
anchors = (
{
name = bottom;
pos = (923,0);
},
{
name = top;
pos = (923,1859);
}
);
layerId = m003;
shapes = (
{
closed = 1;
nodes = (
(390,0,l),
(390,824,l),
(1688,824,l),
(1688,1029,l),
(697,1029,ls),
(590,1029,o),
(516,965,o),
(516,936,c),
(390,936,l),
(390,1587,l),
(1739,1587,l),
(1739,1792,l),
(180,1792,l),
(180,0,l)
);
}
);
width = 1819;
},
{
anchors = (
{
name = bottom;
pos = (1486,0);
},
{
name = top;
pos = (1486,1859);
}
);
layerId = m005;
shapes = (
{
closed = 1;
nodes = (
(390,0,l),
(390,824,l),
(2814,824,l),
(2814,1029,l),
(697,1029,ls),
(590,1029,o),
(516,965,o),
(516,936,c),
(390,936,l),
(390,1587,l),
(2866,1587,l),
(2866,1792,l),
(180,1792,l),
(180,0,l)
);
}
);
width = 2946;
}
);
metricLeft = H;
metricRight = "=O-40";
unicode = 70;
},
{
glyphname = G;
kernLeft = O;
kernRight = H;
lastChange = "2025-01-25 17:31:50 +0000";
layers = (
{
anchors = (
{
name = bottom;
pos = (1098,0);
},
{
name = top;
pos = (1098,1859);
}
);
layerId = m01;
shapes = (
{
closed = 1;
nodes = (
(1198,0,ls),
(1388,0,o),
(1544,31,o),
(1664,143,c),
(1684,143,l),
(1684,0,l),
(1894,0,l),
(1894,1029,l),
(972,1029,l),
(972,824,l),
(1684,824,l),
(1684,590,ls),
(1684,296,o),
(1531,205,o),
(1198,205,cs),
(970,205,ls),
(560,205,o),
(330,471,o),
(330,896,cs),
(330,1318,o),
(560,1587,o),
(970,1587,cs),
(1843,1587,l),
(1843,1792,l),
(970,1792,ls),
(458,1792,o),
(120,1452,o),
(120,896,cs),
(120,340,o),
(458,0,o),
(970,0,cs)
);
}
);
width = 2074;
},
{
associatedMasterId = m01;
layerId = "1AE5CAC9-BAFB-4BD6-9011-60B63F1DA5A8";
name = "6. 7. 23 10:19 PM";
shapes = (
{
closed = 1;
nodes = (
(1851,1700,l),
(1672,1789,o),
(1446,1833,o),
(1196,1833,cs),
(591,1833,o),
(128,1536,o),
(128,896,cs),
(128,307,o),
(591,-41,o),
(1196,-41,cs),
(1446,-41,o),
(1672,10,o),
(1851,108,c),
(1851,351,l),
(1702,236,o),
(1485,169,o),
(1196,169,cs),
(627,169,o),
(343,476,o),
(343,899,cs),
(343,1344,o),
(627,1623,o),
(1196,1623,cs),
(1485,1623,o),
(1702,1562,o),
(1851,1452,c)
);
},
{
closed = 1;
nodes = (
(1636,159,l),
(1851,159,l),
(1851,868,l),
(1636,868,l)
);
},
{
closed = 1;
nodes = (
(883,658,l),
(1636,658,l),
(1636,868,l),
(883,868,l)
);
}
);
width = 1953;
},
{
anchors = (
{
name = bottom;
pos = (1661,0);
},
{
name = top;
pos = (1661,1859);
}
);
layerId = m004;
shapes = (
{
closed = 1;
nodes = (
(2324,0,ls),
(2514,0,o),
(2671,31,o),
(2791,144,c),
(2811,144,l),
(2811,0,l),
(3020,0,l),
(3020,1029,l),
(1331,1029,l),
(1331,824,l),
(2811,824,l),
(2811,590,ls),
(2811,296,o),
(2657,205,o),
(2324,205,cs),
(970,205,ls),
(560,205,o),
(330,471,o),
(330,896,cs),
(330,1318,o),
(560,1587,o),
(970,1587,cs),
(2969,1587,l),
(2969,1792,l),
(970,1792,ls),
(458,1792,o),
(120,1452,o),
(120,896,cs),
(120,340,o),
(458,0,o),
(970,0,cs)
);
}
);
width = 3200;
},
{
associatedMasterId = m004;
layerId = "25A6563C-6961-45C0-A70C-68CFD0EFA8F0";
name = "6. 7. 23 10:19 PM";
shapes = (
{
closed = 1;
nodes = (
(1851,1700,l),
(1672,1789,o),
(1446,1833,o),
(1196,1833,cs),
(591,1833,o),
(128,1536,o),
(128,896,cs),
(128,307,o),
(591,-41,o),
(1196,-41,cs),
(1446,-41,o),
(1672,10,o),
(1851,108,c),
(1851,351,l),
(1702,236,o),
(1485,169,o),
(1196,169,cs),
(627,169,o),
(343,476,o),
(343,899,cs),
(343,1344,o),
(627,1623,o),
(1196,1623,cs),
(1485,1623,o),
(1702,1562,o),
(1851,1452,c)
);
},
{
closed = 1;
nodes = (
(1636,159,l),
(1851,159,l),
(1851,868,l),
(1636,868,l)
);
},
{
closed = 1;
nodes = (
(883,658,l),
(1636,658,l),
(1636,868,l),
(883,868,l)
);
}
);
width = 1953;
},
{
associatedMasterId = m003;
layerId = "EA596740-3448-4946-A093-105CB5D7419D";
name = "6. 7. 23 10:19 PM";
shapes = (
{
closed = 1;
nodes = (
(1851,1700,l),
(1672,1789,o),
(1446,1833,o),
(1196,1833,cs),
(591,1833,o),
(128,1536,o),
(128,896,cs),
(128,307,o),
(591,-41,o),
(1196,-41,cs),
(1446,-41,o),
(1672,10,o),
(1851,108,c),
(1851,351,l),
(1702,236,o),
(1485,169,o),
(1196,169,cs),
(627,169,o),
(343,476,o),
(343,899,cs),
(343,1344,o),
(627,1623,o),
(1196,1623,cs),
(1485,1623,o),
(1702,1562,o),
(1851,1452,c)
);
},
{
closed = 1;
nodes = (
(1636,159,l),
(1851,159,l),
(1851,868,l),
(1636,868,l)
);
},
{
closed = 1;
nodes = (
(883,658,l),
(1636,658,l),
(1636,868,l),
(883,868,l)
);
}
);
width = 1953;
},
{
anchors = (
{
name = bottom;
pos = (1661,0);
},
{
name = top;
pos = (1661,1859);
}
);
layerId = m005;
shapes = (
{
closed = 1;
nodes = (
(2324,0,ls),
(2474,0,o),
(2604,20,o),
(2711,195,c),
(2811,195,l),
(2811,0,l),
(3020,0,l),
(3020,1029,l),
(1331,1029,l),
(1331,824,l),
(2811,824,l),
(2811,590,ls),
(2811,306,o),
(2657,205,o),
(2324,205,cs),
(970,205,ls),
(560,205,o),
(330,471,o),
(330,896,cs),
(330,1318,o),
(560,1587,o),
(970,1587,cs),
(2969,1587,l),
(2969,1792,l),
(970,1792,ls),
(458,1792,o),
(120,1452,o),
(120,896,cs),
(120,340,o),
(458,0,o),
(970,0,cs)
);
}
);
width = 3200;
},
{
associatedMasterId = m005;
layerId = "3587915E-069D-44A9-9EB4-8598E58ECFB6";
name = "6. 7. 23 10:19 PM";
shapes = (
{
closed = 1;
nodes = (
(1851,1700,l),
(1672,1789,o),
(1446,1833,o),
(1196,1833,cs),
(591,1833,o),
(128,1536,o),
(128,896,cs),
(128,307,o),
(591,-41,o),
(1196,-41,cs),
(1446,-41,o),
(1672,10,o),
(1851,108,c),
(1851,351,l),
(1702,236,o),
(1485,169,o),
(1196,169,cs),
(627,169,o),
(343,476,o),
(343,899,cs),
(343,1344,o),
(627,1623,o),
(1196,1623,cs),
(1485,1623,o),
(1702,1562,o),
(1851,1452,c)
);
},
{
closed = 1;
nodes = (
(1636,159,l),
(1851,159,l),
(1851,868,l),
(1636,868,l)
);
},
{
closed = 1;
nodes = (
(883,658,l),
(1636,658,l),
(1636,868,l),
(883,868,l)
);
}
);
width = 1953;
},
{
associatedMasterId = m01;
layerId = "2B1AB11A-4677-49F2-8DBA-088BBE8EDC86";
name = "2. 4. 24 at 1:41 AM";
shapes = (
{
closed = 1;
nodes = (
(696,1029,l),
(696,824,l),
(1692,824,l),
(1692,0,l),
(1902,0,l),
(1902,1029,l)
);
},
{
closed = 1;
nodes = (
(1206,0,ls),
(1641,0,o),
(1902,212,o),
(1902,640,c),
(1692,640,l),
(1692,346,o),
(1539,205,o),
(1206,205,cs),
(824,205,ls),
(492,205,o),
(338,346,o),
(338,640,cs),
(338,1152,ls),
(338,1446,o),
(492,1587,o),
(824,1587,cs),
(1851,1587,l),
(1851,1792,l),
(824,1792,ls),
(389,1792,o),
(128,1580,o),
(128,1152,cs),
(128,640,ls),
(128,212,o),
(389,0,o),
(824,0,cs)
);
}
);
width = 2056;
},
{
anchors = (
{
name = bottom;
pos = (1098,0);
},
{
name = top;
pos = (1098,1859);
}
);
layerId = m003;
name = "Regular Inktrap";
shapes = (
{
closed = 1;
nodes = (
(1198,0,ls),
(1348,0,o),
(1477,19,o),
(1584,193,c),
(1684,193,l),
(1684,0,l),
(1894,0,l),
(1894,1029,l),
(972,1029,l),
(972,824,l),
(1684,824,l),
(1684,590,ls),
(1684,296,o),
(1531,205,o),
(1198,205,cs),
(970,205,ls),
(560,205,o),
(330,471,o),
(330,896,cs),
(330,1318,o),
(560,1587,o),
(970,1587,cs),
(1843,1587,l),
(1843,1792,l),
(970,1792,ls),
(458,1792,o),
(120,1452,o),
(120,896,cs),
(120,340,o),
(458,0,o),
(970,0,cs)
);
}
);
width = 2074;
},
{
anchors = (
{
name = bottom;
pos = (1098,0);
},
{
name = top;
pos = (1098,1859);
}
);
associatedMasterId = m003;
hints = (
{
name = _corner.inter;
origin = (0,3,1,5);
stem = 1000;
type = Corner;
}
);
layerId = "923E9E04-F5DB-4823-B08D-228E5954D0EC";
name = "25. 1. 25 at 12:17 PM";
shapes = (
{
closed = 1;
nodes = (
(1198,0,ls),
(1633,0,o),
(1894,162,o),
(1894,590,c),
(1684,590,l),
(1684,296,o),
(1531,205,o),
(1198,205,cs),
(970,205,ls),
(560,205,o),
(330,471,o),
(330,896,cs),
(330,1318,o),
(560,1587,o),
(970,1587,cs),
(1843,1587,l),
(1843,1792,l),
(970,1792,ls),
(458,1792,o),
(120,1452,o),
(120,896,cs),
(120,340,o),
(458,0,o),
(970,0,cs)
);
},
{
closed = 1;
nodes = (
(1894,0,l),
(1894,1029,l),
(972,1029,l),
(972,824,l),
(1684,824,l),
(1684,0,l)
);
}
);
width = 2074;
}
);
metricLeft = O;
metricRight = H;
unicode = 71;
},
{
glyphname = H;
kernLeft = H;
kernRight = H;
lastChange = "2025-01-25 17:31:50 +0000";
layers = (
{
anchors = (
{
name = bottom;
pos = (1069,0);
},
{
name = center;
pos = (1069,1567);
},
{
name = top;
pos = (1069,1859);
},
{
name = topleft;
pos = (52,1859);
}
);
layerId = m01;
shapes = (
{
closed = 1;
nodes = (
(390,0,l),
(390,824,l),
(1593,824,ls),
(1674,824,o),
(1724,888,o),
(1724,917,c),
(1744,917,l),
(1744,0,l),
(1954,0,l),
(1954,1792,l),
(1744,1792,l),
(1744,1029,l),
(541,1029,ls),
(460,1029,o),
(410,965,o),
(410,936,c),
(390,936,l),
(390,1792,l),
(180,1792,l),
(180,0,l)
);
}
);
width = 2134;
},
{
anchors = (
{
name = bottom;
pos = (1632,0);
},
{
name = center;
pos = (1632,1567);
},
{
name = top;
pos = (1632,1859);
},
{
name = topleft;
pos = (52,1859);
}
);
layerId = m004;
shapes = (
{
closed = 1;
nodes = (
(390,0,l),
(390,824,l),
(2720,824,ls),
(2801,824,o),
(2851,888,o),
(2851,917,c),
(2871,917,l),
(2871,0,l),
(3081,0,l),
(3081,1792,l),
(2871,1792,l),
(2871,1029,l),
(541,1029,ls),
(460,1029,o),
(410,965,o),
(410,936,c),
(390,936,l),
(390,1792,l),
(180,1792,l),
(180,0,l)
);
}
);
width = 3261;
},
{
anchors = (
{
name = bottom;
pos = (1069,0);
},
{
name = center;
pos = (1069,1567);
},
{
name = top;
pos = (1069,1859);
},
{
name = topleft;
pos = (52,1859);
}
);
layerId = m003;
shapes = (
{
closed = 1;
nodes = (
(390,0,l),
(390,824,l),
(1437,824,ls),
(1544,824,o),
(1618,888,o),
(1618,917,c),
(1744,917,l),
(1744,0,l),
(1954,0,l),
(1954,1792,l),
(1744,1792,l),
(1744,1029,l),
(697,1029,ls),
(590,1029,o),
(516,965,o),
(516,936,c),
(390,936,l),
(390,1792,l),
(180,1792,l),
(180,0,l)
);
}
);
width = 2134;
},
{
anchors = (
{
name = bottom;
pos = (1632,0);
},
{
name = center;
pos = (1632,1567);
},
{
name = top;
pos = (1632,1859);
},
{
name = topleft;
pos = (52,1859);
}
);
layerId = m005;
shapes = (
{
closed = 1;
nodes = (
(390,0,l),
(390,824,l),
(2564,824,ls),
(2671,824,o),
(2745,888,o),
(2745,917,c),
(2871,917,l),
(2871,0,l),
(3081,0,l),
(3081,1792,l),
(2871,1792,l),
(2871,1029,l),
(697,1029,ls),
(590,1029,o),
(516,965,o),
(516,936,c),
(390,936,l),
(390,1792,l),
(180,1792,l),
(180,0,l)
);
}
);
width = 3261;
}
);
unicode = 72;
},
{
glyphname = Hbar;
kernLeft = H;
kernRight = H;
lastChange = "2025-01-25 17:31:50 +0000";
layers = (
{
layerId = m01;
shapes = (
{
closed = 1;
nodes = (
(623,0,l),
(623,824,l),
(1826,824,ls),
(1907,824,o),
(1957,888,o),
(1957,917,c),
(1977,917,l),
(1977,0,l),
(2187,0,l),
(2187,1464,l),
(2520,1464,l),
(2520,1669,l),
(2187,1669,l),
(2187,1792,l),
(1977,1792,l),
(1977,1669,l),
(774,1669,ls),
(693,1669,o),
(643,1605,o),
(643,1576,c),
(623,1576,l),
(623,1792,l),
(413,1792,l),
(413,1669,l),
(80,1669,l),
(80,1464,l),
(413,1464,l),
(413,0,l)
);
},
{
closed = 1;
nodes = (
(1826,1464,ls),
(1907,1464,o),
(1957,1528,o),
(1957,1557,c),
(1977,1557,l),
(1977,1029,l),
(774,1029,ls),
(693,1029,o),
(643,965,o),
(643,936,c),
(623,936,l),
(623,1464,l)
);
}
);
width = 2600;
},
{
layerId = m004;
shapes = (
{
closed = 1;
nodes = (
(700,0,l),
(700,824,l),
(3029,824,ls),
(3110,824,o),
(3160,888,o),
(3160,917,c),
(3180,917,l),
(3180,0,l),
(3390,0,l),
(3390,1464,l),
(3800,1464,l),
(3800,1669,l),
(3390,1669,l),
(3390,1792,l),
(3180,1792,l),
(3180,1669,l),
(851,1669,ls),
(770,1669,o),
(720,1605,o),
(720,1576,c),
(700,1576,l),
(700,1792,l),
(490,1792,l),
(490,1669,l),
(80,1669,l),
(80,1464,l),
(490,1464,l),
(490,0,l)
);
},
{
closed = 1;
nodes = (
(3029,1464,ls),
(3110,1464,o),
(3160,1528,o),
(3160,1557,c),
(3180,1557,l),
(3180,1029,l),
(851,1029,ls),
(770,1029,o),
(720,965,o),
(720,936,c),
(700,936,l),
(700,1464,l)
);
}
);
width = 3880;
},
{
layerId = m003;
shapes = (
{
closed = 1;
nodes = (
(623,0,l),
(623,824,l),
(1670,824,ls),
(1777,824,o),
(1851,888,o),
(1851,917,c),
(1977,917,l),
(1977,0,l),
(2187,0,l),
(2187,1464,l),
(2520,1464,l),
(2520,1669,l),
(2187,1669,l),
(2187,1792,l),
(1977,1792,l),
(1977,1669,l),
(930,1669,ls),
(823,1669,o),
(749,1605,o),
(749,1576,c),
(623,1576,l),
(623,1792,l),
(413,1792,l),
(413,1669,l),
(80,1669,l),
(80,1464,l),
(413,1464,l),
(413,0,l)
);
},
{
closed = 1;
nodes = (
(1670,1464,ls),
(1777,1464,o),
(1851,1528,o),
(1851,1557,c),
(1977,1557,l),
(1977,1029,l),
(930,1029,ls),
(823,1029,o),
(749,965,o),
(749,936,c),
(623,936,l),
(623,1464,l)
);
}
);
width = 2600;
},
{
layerId = m005;
shapes = (
{
closed = 1;
nodes = (
(700,0,l),
(700,824,l),
(2873,824,ls),
(2980,824,o),
(3054,888,o),
(3054,917,c),
(3180,917,l),
(3180,0,l),
(3390,0,l),
(3390,1464,l),
(3800,1464,l),
(3800,1669,l),
(3390,1669,l),
(3390,1792,l),
(3180,1792,l),
(3180,1669,l),
(1007,1669,ls),
(900,1669,o),
(826,1605,o),
(826,1576,c),
(700,1576,l),
(700,1792,l),
(490,1792,l),
(490,1669,l),
(80,1669,l),
(80,1464,l),
(490,1464,l),
(490,0,l)
);
},
{
closed = 1;
nodes = (
(2873,1464,ls),
(2980,1464,o),
(3054,1528,o),
(3054,1557,c),
(3180,1557,l),
(3180,1029,l),
(1007,1029,ls),
(900,1029,o),
(826,965,o),
(826,936,c),
(700,936,l),
(700,1464,l)
);
}
);
width = 3880;
}
);
metricLeft = "=H-100";
metricRight = "=H-100";
unicode = 294;
},
{
glyphname = I;
kernLeft = H;
kernRight = H;
lastChange = "2025-01-25 17:31:50 +0000";
layers = (
{
anchors = (
{
name = bottom;
pos = (285,0);
},
{
name = ogonek;
pos = (390,26);
},
{
name = top;
pos = (285,1859);
},
{
name = topleft;
pos = (52,1859);
}
);
layerId = m01;
shapes = (
{
closed = 1;
nodes = (
(390,0,l),
(390,1792,l),
(180,1792,l),
(180,0,l)
);
}
);
width = 570;
},
{
anchors = (
{
name = bottom;
pos = (285,0);
},
{
name = ogonek;
pos = (390,26);
},
{
name = top;
pos = (285,1859);
},
{
name = topleft;
pos = (52,1859);
}
);
layerId = m004;
shapes = (
{
closed = 1;
nodes = (
(390,0,l),
(390,1792,l),
(180,1792,l),
(180,0,l)
);
}
);
width = 570;
},
{
anchors = (
{
name = bottom;
pos = (285,0);
},
{
name = ogonek;
pos = (390,26);
},
{
name = top;
pos = (285,1859);
},
{
name = topleft;
pos = (52,1859);
}
);
layerId = m003;
shapes = (
{
closed = 1;
nodes = (
(390,0,l),
(390,1792,l),
(180,1792,l),
(180,0,l)
);
}
);
width = 570;
},
{
anchors = (
{
name = bottom;
pos = (285,0);
},
{
name = ogonek;
pos = (390,26);
},
{
name = top;
pos = (285,1859);
},
{
name = topleft;
pos = (52,1859);
}
);
layerId = m005;
shapes = (
{
closed = 1;
nodes = (
(390,0,l),
(390,1792,l),
(180,1792,l),
(180,0,l)
);
}
);
width = 570;
}
);
metricLeft = H;
metricRight = H;
unicode = 73;
},
{
glyphname = J;
kernRight = H;
lastChange = "2025-01-25 17:31:50 +0000";
layers = (
{
anchors = (
{
name = bottom;
pos = (908,0);
},
{
name = top;
pos = (908,1859);
}
);
layerId = m01;
shapes = (
{
closed = 1;
nodes = (
(995,0,ls),
(1430,0,o),
(1691,212,o),
(1691,640,cs),
(1691,1792,l),
(1482,1792,l),
(1482,640,ls),
(1482,346,o),
(1328,205,o),
(995,205,cs),
(716,205,ls),
(383,205,o),
(230,346,o),
(230,640,c),
(20,640,l),
(20,212,o),
(281,0,o),
(716,0,cs)
);
}
);
width = 1871;
},
{
anchors = (
{
name = bottom;
pos = (1126,0);
},
{
name = top;
pos = (1126,1859);
}
);
layerId = m004;
shapes = (
{
closed = 1;
nodes = (
(1430,0,ls),
(1866,0,o),
(2127,212,o),
(2127,640,cs),
(2127,1792,l),
(1917,1792,l),
(1917,640,ls),
(1917,346,o),
(1763,205,o),
(1430,205,cs),
(716,205,ls),
(383,205,o),
(230,346,o),
(230,640,c),
(20,640,l),
(20,212,o),
(281,0,o),
(716,0,cs)
);
}
);
width = 2307;
},
{
anchors = (
{
name = bottom;
pos = (908,0);
},
{
name = top;
pos = (908,1859);
}
);
layerId = m003;
shapes = (
{
closed = 1;
nodes = (
(995,0,ls),
(1430,0,o),
(1691,212,o),
(1691,640,cs),
(1691,1792,l),
(1482,1792,l),
(1482,640,ls),
(1482,346,o),
(1328,205,o),
(995,205,cs),
(716,205,ls),
(383,205,o),
(230,346,o),
(230,640,c),
(20,640,l),
(20,212,o),
(281,0,o),
(716,0,cs)
);
}
);
width = 1871;
},
{
anchors = (
{
name = bottom;
pos = (1126,0);
},
{
name = top;
pos = (1126,1859);
}
);
layerId = m005;
shapes = (
{
closed = 1;
nodes = (
(1430,0,ls),
(1866,0,o),
(2127,212,o),
(2127,640,cs),
(2127,1792,l),
(1917,1792,l),
(1917,640,ls),
(1917,346,o),
(1763,205,o),
(1430,205,cs),
(716,205,ls),
(383,205,o),
(230,346,o),
(230,640,c),
(20,640,l),
(20,212,o),
(281,0,o),
(716,0,cs)
);
}
);
width = 2307;
}
);
metricLeft = "=V-40";
metricRight = "=H";
unicode = 74;
},
{
glyphname = K;
kernLeft = H;
kernRight = O;
lastChange = "2025-01-25 17:31:50 +0000";
layers = (
{
anchors = (
{
name = bottom;
pos = (882,0);
},
{
name = top;
pos = (882,1859);
}
);
layerId = m01;
shapes = (
{
closed = 1;
nodes = (
(390,0,l),
(390,824,l),
(651,1005,l),
(1519,0,l),
(1785,0,l),
(818,1121,l),
(1785,1792,l),
(1455,1792,l),
(552,1178,ls),
(486,1133,o),
(426,1059,o),
(416,1008,c),
(390,1008,l),
(390,1792,l),
(180,1792,l),
(180,0,l)
);
}
);
width = 1865;
},
{
anchors = (
{
name = bottom;
pos = (1368,0);
},
{
name = top;
pos = (1368,1859);
}
);
layerId = m004;
shapes = (
{
closed = 1;
nodes = (
(390,0,l),
(390,825,l),
(1313,1202,l),
(2430,0,l),
(2707,0,l),
(1513,1284,l),
(2758,1792,l),
(2285,1792,l),
(572,1112,ls),
(498,1083,o),
(426,1031,o),
(416,980,c),
(390,980,l),
(390,1792,l),
(180,1792,l),
(180,0,l)
);
}
);
width = 2838;
},
{
associatedMasterId = m004;
layerId = "41F6B54D-5603-4DE6-8367-2670E43842CF";
name = "11. 7. 23 3:27 PM";
shapes = (
{
closed = 1;
nodes = (
(179,0,l),
(394,0,l),
(394,1792,l),
(179,1792,l)
);
},
{
closed = 1;
nodes = (
(2148,1792,l),
(394,663,l),
(394,919,l),
(1751,1792,l)
);
},
{
closed = 1;
nodes = (
(1851,0,l),
(870,1039,l),
(1044,1165,l),
(2148,0,l)
);
}
);
width = 2225;
},
{
anchors = (
{
name = bottom;
pos = (882,0);
},
{
name = top;
pos = (882,1859);
}
);
layerId = m003;
shapes = (
{
closed = 1;
nodes = (
(390,0,l),
(390,824,l),
(651,1005,l),
(1519,0,l),
(1785,0,l),
(818,1121,l),
(1785,1792,l),
(1455,1792,l),
(624,1227,ls),
(515,1153,o),
(495,1047,o),
(490,1007,c),
(390,1007,l),
(390,1792,l),
(180,1792,l),
(180,0,l)
);
}
);
width = 1865;
},
{
anchors = (
{
name = bottom;
pos = (1368,0);
},
{
name = top;
pos = (1368,1859);
}
);
layerId = m005;
shapes = (
{
closed = 1;
nodes = (
(390,0,l),
(390,825,l),
(1313,1202,l),
(2430,0,l),
(2707,0,l),
(1513,1284,l),
(2758,1792,l),
(2285,1792,l),
(653,1144,ls),
(531,1095,o),
(495,1019,o),
(490,979,c),
(390,979,l),
(390,1792,l),
(180,1792,l),
(180,0,l)
);
}
);
width = 2838;
},
{
associatedMasterId = m005;
layerId = "76C0A201-DBD3-4627-9289-C95DC4FB8C60";
name = "11. 7. 23 3:27 PM";
shapes = (
{
closed = 1;
nodes = (
(179,0,l),
(394,0,l),
(394,1792,l),
(179,1792,l)
);
},
{
closed = 1;
nodes = (
(2148,1792,l),
(394,663,l),
(394,919,l),
(1751,1792,l)
);
},
{
closed = 1;
nodes = (
(1851,0,l),
(870,1039,l),
(1044,1165,l),
(2148,0,l)
);
}
);
width = 2225;
}
);
metricLeft = H;
metricRight = "=O-40";
unicode = 75;
},
{
glyphname = L;
kernLeft = H;
kernRight = L;
lastChange = "2025-01-25 17:31:50 +0000";
layers = (
{
anchors = (
{
name = bottom;
pos = (856,0);
},
{
name = center;
pos = (544,896);
},
{
name = top;
pos = (285,1859);
},
{
name = topright;
pos = (493,1859);
}
);
guides = (
{
pos = (133,390);
}
);
layerId = m01;
shapes = (
{
closed = 1;
nodes = (
(1657,0,l),
(1657,205,l),
(390,205,l),
(390,1792,l),
(180,1792,l),
(180,0,l)
);
}
);
width = 1677;
},
{
anchors = (
{
name = bottom;
pos = (1240,0);
},
{
name = center;
pos = (800,896);
},
{
name = top;
pos = (285,1859);
},
{
name = topright;
pos = (493,1859);
}
);
layerId = m004;
shapes = (
{
closed = 1;
nodes = (
(2425,0,l),
(2425,205,l),
(390,205,l),
(390,1792,l),
(180,1792,l),
(180,0,l)
);
}
);
width = 2445;
},
{
anchors = (
{
name = bottom;
pos = (856,0);
},
{
name = center;
pos = (544,896);
},
{
name = top;
pos = (285,1859);
},
{
name = topright;
pos = (493,1859);
}
);
layerId = m003;
shapes = (
{
closed = 1;
nodes = (
(1657,0,l),
(1657,205,l),
(390,205,l),
(390,1792,l),
(180,1792,l),
(180,0,l)
);
}
);
width = 1677;
},
{
anchors = (
{
name = bottom;
pos = (1240,0);
},
{
name = center;
pos = (800,896);
},
{
name = top;
pos = (285,1859);
},
{
name = topright;
pos = (493,1859);
}
);
layerId = m005;
shapes = (
{
closed = 1;
nodes = (
(2425,0,l),
(2425,205,l),
(390,205,l),
(390,1792,l),
(180,1792,l),
(180,0,l)
);
}
);
width = 2445;
}
);
metricLeft = H;
metricRight = "=V-40";
unicode = 76;
},
{
glyphname = Lslash;
kernLeft = H;
kernRight = L;
lastChange = "2025-01-25 17:31:50 +0000";
layers = (
{
layerId = m01;
shapes = (
{
closed = 1;
nodes = (
(1902,0,l),
(1902,205,l),
(634,205,l),
(634,731,l),
(1354,1078,l),
(1269,1257,l),
(811,1038,ls),
(739,1003,o),
(670,944,o),
(660,893,c),
(634,893,l),
(634,1792,l),
(424,1792,l),
(424,852,l),
(80,687,l),
(164,505,l),
(247,545,ls),
(319,580,o),
(388,639,o),
(398,690,c),
(424,690,l),
(424,0,l)
);
}
);
width = 1922;
},
{
layerId = m004;
shapes = (
{
closed = 1;
nodes = (
(2722,0,l),
(2722,205,l),
(686,205,l),
(686,684,l),
(2110,1065,l),
(2058,1257,l),
(875,941,ls),
(798,921,o),
(722,882,o),
(712,831,c),
(686,831,l),
(686,1792,l),
(476,1792,l),
(476,836,l),
(80,730,l),
(131,535,l),
(287,577,ls),
(364,597,o),
(440,636,o),
(450,687,c),
(476,687,l),
(476,0,l)
);
}
);
width = 2742;
},
{
layerId = m003;
shapes = (
{
closed = 1;
nodes = (
(1932,0,l),
(1932,205,l),
(664,205,l),
(664,722,l),
(1384,1078,l),
(1299,1257,l),
(918,1069,ls),
(800,1010,o),
(769,923,o),
(764,883,c),
(664,883,l),
(664,1792,l),
(454,1792,l),
(454,841,l),
(80,657,l),
(164,475,l),
(200,493,ls),
(318,552,o),
(349,639,o),
(354,679,c),
(454,679,l),
(454,0,l)
);
}
);
width = 1952;
},
{
layerId = m005;
shapes = (
{
closed = 1;
nodes = (
(2722,0,l),
(2722,205,l),
(686,205,l),
(686,684,l),
(2110,1065,l),
(2058,1257,l),
(959,964,ls),
(832,929,o),
(791,870,o),
(786,830,c),
(686,830,l),
(686,1792,l),
(476,1792,l),
(476,836,l),
(80,730,l),
(131,535,l),
(203,554,ls),
(330,589,o),
(371,648,o),
(376,688,c),
(476,688,l),
(476,0,l)
);
}
);
width = 2742;
}
);
metricLeft = "=L-100";
metricRight = "=L";
unicode = 321;
},
{
glyphname = M;
kernLeft = H;
kernRight = H;
lastChange = "2025-01-25 17:35:11 +0000";
layers = (
{
anchors = (
{
name = bottom;
pos = (1445,0);
},
{
name = top;
pos = (1445,1859);
}
);
layerId = m01;
shapes = (
{
closed = 1;
nodes = (
(390,0,l),
(390,1235,ls),
(390,1315,o),
(355,1419,o),
(335,1467,c),
(357,1481,l),
(1337,0,l),
(1547,0,l),
(2530,1482,l),
(2552,1468,l),
(2532,1420,o),
(2497,1316,o),
(2497,1236,cs),
(2497,0,l),
(2707,0,l),
(2707,1792,l),
(2497,1792,l),
(1528,336,ls),
(1486,272,o),
(1451,203,o),
(1451,185,c),
(1431,185,l),
(1431,203,o),
(1396,272,o),
(1354,336,cs),
(390,1792,l),
(180,1792,l),
(180,0,l)
);
}
);
width = 2887;
},
{
anchors = (
{
name = bottom;
pos = (1701,0);
},
{
name = top;
pos = (1701,1859);
}
);
layerId = m004;
shapes = (
{
closed = 1;
nodes = (
(390,0,l),
(390,1283,ls),
(390,1363,o),
(356,1463,o),
(332,1509,c),
(352,1526,l),
(1593,0,l),
(1803,0,l),
(3045,1527,l),
(3065,1510,l),
(3041,1464,o),
(3007,1364,o),
(3007,1284,cs),
(3009,0,l),
(3219,0,l),
(3219,1792,l),
(3009,1792,l),
(1798,311,ls),
(1749,252,o),
(1708,187,o),
(1708,169,c),
(1688,169,l),
(1688,187,o),
(1647,252,o),
(1598,311,cs),
(390,1792,l),
(180,1792,l),
(180,0,l)
);
}
);
width = 3399;
},
{
anchors = (
{
name = bottom;
pos = (1445,0);
},
{
name = top;
pos = (1445,1859);
}
);
layerId = m003;
shapes = (
{
closed = 1;
nodes = (
(390,0,l),
(390,1148,ls),
(389,1280,o),
(291,1391,o),
(273,1427,c),
(356,1482,l),
(1337,0,l),
(1547,0,l),
(2531,1483,l),
(2614,1428,l),
(2596,1391,o),
(2498,1281,o),
(2497,1149,cs),
(2497,0,l),
(2707,0,l),
(2707,1792,l),
(2497,1792,l),
(1544,360,ls),
(1504,300,o),
(1491,213,o),
(1491,185,c),
(1391,185,l),
(1391,213,o),
(1378,300,o),
(1338,360,cs),
(390,1792,l),
(180,1792,l),
(180,0,l)
);
}
);
width = 2887;
},
{
anchors = (
{
name = bottom;
pos = (1701,0);
},
{
name = top;
pos = (1701,1859);
}
);
layerId = m005;
shapes = (
{
closed = 1;
nodes = (
(390,0,l),
(390,1196,ls),
(389,1328,o),
(295,1429,o),
(274,1463,c),
(352,1526,l),
(1593,0,l),
(1803,0,l),
(3044,1526,l),
(3122,1463,l),
(3101,1429,o),
(3007,1328,o),
(3007,1196,cs),
(3009,0,l),
(3219,0,l),
(3219,1792,l),
(3009,1792,l),
(1816,333,ls),
(1770,277,o),
(1748,197,o),
(1748,169,c),
(1648,169,l),
(1648,197,o),
(1626,277,o),
(1580,333,cs),
(390,1792,l),
(180,1792,l),
(180,0,l)
);
}
);
width = 3399;
}
);
metricLeft = H;
metricRight = H;
unicode = 77;
},
{
glyphname = N;
kernLeft = H;
kernRight = H;
lastChange = "2025-01-25 17:31:50 +0000";
layers = (
{
anchors = (
{
name = bottom;
pos = (1063,0);
},
{
name = top;
pos = (1063,1859);
}
);
layerId = m01;
shapes = (
{
closed = 1;
nodes = (
(390,0,l),
(390,1297,ls),
(390,1377,o),
(357,1476,o),
(331,1520,c),
(350,1538,l),
(1734,0,l),
(1944,0,l),
(1944,1792,l),
(1734,1792,l),
(1734,495,ls),
(1734,415,o),
(1767,316,o),
(1793,272,c),
(1774,254,l),
(390,1792,l),
(180,1792,l),
(180,0,l)
);
}
);
width = 2124;
},
{
anchors = (
{
name = bottom;
pos = (1627,0);
},
{
name = top;
pos = (1627,1859);
}
);
layerId = m004;
shapes = (
{
closed = 1;
nodes = (
(390,0,l),
(390,1360,ls),
(390,1440,o),
(363,1530,o),
(325,1566,c),
(339,1588,l),
(2861,0,l),
(3070,0,l),
(3070,1792,l),
(2861,1792,l),
(2861,432,ls),
(2861,352,o),
(2888,262,o),
(2926,226,c),
(2912,204,l),
(390,1792,l),
(180,1792,l),
(180,0,l)
);
}
);
width = 3250;
},
{
anchors = (
{
name = bottom;
pos = (1063,0);
},
{
name = top;
pos = (1063,1859);
}
);
layerId = m003;
shapes = (
{
closed = 1;
nodes = (
(390,0,l),
(390,1210,ls),
(389,1342,o),
(298,1438,o),
(275,1471,c),
(349,1538,l),
(1734,0,l),
(1944,0,l),
(1944,1792,l),
(1734,1792,l),
(1734,582,ls),
(1735,450,o),
(1826,354,o),
(1849,321,c),
(1775,254,l),
(390,1792,l),
(180,1792,l),
(180,0,l)
);
}
);
width = 2124;
},
{
anchors = (
{
name = bottom;
pos = (1627,0);
},
{
name = top;
pos = (1627,1859);
}
);
layerId = m005;
shapes = (
{
closed = 1;
nodes = (
(390,0,l),
(390,1273,ls),
(389,1405,o),
(316,1478,o),
(285,1504,c),
(338,1589,l),
(2861,0,l),
(3070,0,l),
(3070,1792,l),
(2861,1792,l),
(2861,519,ls),
(2862,387,o),
(2935,314,o),
(2966,288,c),
(2913,203,l),
(390,1792,l),
(180,1792,l),
(180,0,l)
);
}
);
width = 3250;
}
);
metricLeft = H;
metricRight = H;
unicode = 78;
},
{
glyphname = O;
kernLeft = O;
kernRight = O;
lastChange = "2025-01-25 17:31:50 +0000";
layers = (
{
anchors = (
{
name = bottom;
pos = (1162,0);
},
{
name = center;
pos = (1162,929);
},
{
name = ogonek;
pos = (2099,26);
},
{
name = top;
pos = (1162,1859);
},
{
name = topleft;
pos = (43,1859);
},
{
name = topright;
pos = (2281,1859);
}
);
guides = (
{
pos = (506,350);
}
);
layerId = m01;
shapes = (
{
closed = 1;
nodes = (
(1354,0,ls),
(1866,0,o),
(2204,340,o),
(2204,896,cs),
(2204,1452,o),
(1866,1792,o),
(1354,1792,cs),
(970,1792,ls),
(458,1792,o),
(120,1452,o),
(120,896,cs),
(120,340,o),
(458,0,o),
(970,0,cs)
);
},
{
closed = 1;
nodes = (
(970,205,ls),
(560,205,o),
(330,471,o),
(330,896,cs),
(330,1318,o),
(560,1587,o),
(970,1587,cs),
(1354,1587,ls),
(1764,1587,o),
(1994,1318,o),
(1994,896,cs),
(1994,471,o),
(1764,205,o),
(1354,205,cs)
);
}
);
width = 2324;
},
{
anchors = (
{
name = bottom;
pos = (1725,0);
},
{
name = center;
pos = (1725,929);
},
{
name = ogonek;
pos = (3113,26);
},
{
name = top;
pos = (1725,1859);
},
{
name = topleft;
pos = (43,1859);
},
{
name = topright;
pos = (3407,1859);
}
);
layerId = m004;
shapes = (
{
closed = 1;
nodes = (
(2480,0,ls),
(2992,0,o),
(3330,340,o),
(3330,896,cs),
(3330,1452,o),
(2992,1792,o),
(2480,1792,cs),
(970,1792,ls),
(458,1792,o),
(120,1452,o),
(120,896,cs),
(120,340,o),
(458,0,o),
(970,0,cs)
);
},
{
closed = 1;
nodes = (
(970,205,ls),
(560,205,o),
(330,471,o),
(330,896,cs),
(330,1318,o),
(560,1587,o),
(970,1587,cs),
(2480,1587,ls),
(2890,1587,o),
(3120,1318,o),
(3120,896,cs),
(3120,471,o),
(2890,205,o),
(2480,205,cs)
);
}
);
width = 3450;
},
{
anchors = (
{
name = bottom;
pos = (1162,0);
},
{
name = center;
pos = (1162,929);
},
{
name = ogonek;
pos = (2099,26);
},
{
name = top;
pos = (1162,1859);
},
{
name = topleft;
pos = (43,1859);
},
{
name = topright;
pos = (2281,1859);
}
);
layerId = m003;
shapes = (
{
closed = 1;
nodes = (
(1354,0,ls),
(1866,0,o),
(2204,340,o),
(2204,896,cs),
(2204,1452,o),
(1866,1792,o),
(1354,1792,cs),
(970,1792,ls),
(458,1792,o),
(120,1452,o),
(120,896,cs),
(120,340,o),
(458,0,o),
(970,0,cs)
);
},
{
closed = 1;
nodes = (
(970,205,ls),
(560,205,o),
(330,471,o),
(330,896,cs),
(330,1318,o),
(560,1587,o),
(970,1587,cs),
(1354,1587,ls),
(1764,1587,o),
(1994,1318,o),
(1994,896,cs),
(1994,471,o),
(1764,205,o),
(1354,205,cs)
);
}
);
width = 2324;
},
{
anchors = (
{
name = bottom;
pos = (1725,0);
},
{
name = center;
pos = (1725,929);
},
{
name = ogonek;
pos = (3113,26);
},
{
name = top;
pos = (1725,1859);
},
{
name = topleft;
pos = (43,1859);
},
{
name = topright;
pos = (3407,1859);
}
);
layerId = m005;
shapes = (
{
closed = 1;
nodes = (
(2480,0,ls),
(2992,0,o),
(3330,340,o),
(3330,896,cs),
(3330,1452,o),
(2992,1792,o),
(2480,1792,cs),
(970,1792,ls),
(458,1792,o),
(120,1452,o),
(120,896,cs),
(120,340,o),
(458,0,o),
(970,0,cs)
);
},
{
closed = 1;
nodes = (
(970,205,ls),
(560,205,o),
(330,471,o),
(330,896,cs),
(330,1318,o),
(560,1587,o),
(970,1587,cs),
(2480,1587,ls),
(2890,1587,o),
(3120,1318,o),
(3120,896,cs),
(3120,471,o),
(2890,205,o),
(2480,205,cs)
);
}
);
width = 3450;
},
{
associatedMasterId = m01;
guides = (
{
pos = (514,350);
}
);
layerId = "C6B349A6-301B-4A59-909C-7D677B70C089";
name = "2. 4. 24 at 1:35 AM";
shapes = (
{
closed = 1;
nodes = (
(1516,0,ls),
(1951,0,o),
(2212,212,o),
(2212,640,cs),
(2212,1152,ls),
(2212,1580,o),
(1951,1792,o),
(1516,1792,cs),
(824,1792,ls),
(389,1792,o),
(128,1580,o),
(128,1152,cs),
(128,640,ls),
(128,212,o),
(389,0,o),
(824,0,cs)
);
},
{
closed = 1;
nodes = (
(333,1152,ls),
(333,1446,o),
(492,1592,o),
(824,1592,cs),
(1516,1592,ls),
(1848,1592,o),
(2007,1446,o),
(2007,1152,cs),
(2007,640,ls),
(2007,346,o),
(1848,200,o),
(1516,200,cs),
(824,200,ls),
(492,200,o),
(333,346,o),
(333,640,cs)
);
},
{
closed = 1;
nodes = (
(1316,0,ls),
(1725,0,o),
(1987,468,o),
(1987,896,cs),
(1987,1324,o),
(1725,1792,o),
(1316,1792,cs),
(1029,1792,ls),
(620,1792,o),
(358,1324,o),
(358,896,cs),
(358,468,o),
(620,0,o),
(1029,0,cs)
);
},
{
closed = 1;
nodes = (
(563,1190,o),
(722,1592,o),
(1029,1592,cs),
(1316,1592,ls),
(1623,1592,o),
(1782,1190,o),
(1782,896,cs),
(1782,599,o),
(1623,200,o),
(1316,200,cs),
(1029,200,ls),
(722,200,o),
(563,599,o),
(563,896,cs)
);
}
);
width = 2340;
},
{
associatedMasterId = m004;
layerId = "71E1584C-FA95-47D1-9A78-38570F9D75C5";
name = "2. 4. 24 at 1:37 AM";
shapes = (
{
closed = 1;
nodes = (
(2642,0,ls),
(3077,0,o),
(3338,212,o),
(3338,640,cs),
(3338,1152,ls),
(3338,1580,o),
(3077,1792,o),
(2642,1792,cs),
(824,1792,ls),
(389,1792,o),
(128,1580,o),
(128,1152,cs),
(128,640,ls),
(128,212,o),
(389,0,o),
(824,0,cs)
);
},
{
closed = 1;
nodes = (
(333,1152,ls),
(333,1446,o),
(492,1592,o),
(824,1592,cs),
(2642,1592,ls),
(2975,1592,o),
(3133,1446,o),
(3133,1152,cs),
(3133,640,ls),
(3133,346,o),
(2975,200,o),
(2642,200,cs),
(824,200,ls),
(492,200,o),
(333,346,o),
(333,640,cs)
);
}
);
width = 3466;
},
{
associatedMasterId = m003;
layerId = "6B50E084-3EF4-4370-BBB3-7E8D22EB4B59";
name = "2. 4. 24 at 1:37 AM";
shapes = (
{
closed = 1;
nodes = (
(1516,0,ls),
(1951,0,o),
(2212,212,o),
(2212,640,cs),
(2212,1152,ls),
(2212,1580,o),
(1951,1792,o),
(1516,1792,cs),
(824,1792,ls),
(389,1792,o),
(128,1580,o),
(128,1152,cs),
(128,640,ls),
(128,212,o),
(389,0,o),
(824,0,cs)
);
},
{
closed = 1;
nodes = (
(333,1152,ls),
(333,1446,o),
(492,1592,o),
(824,1592,cs),
(1516,1592,ls),
(1848,1592,o),
(2007,1446,o),
(2007,1152,cs),
(2007,640,ls),
(2007,346,o),
(1848,200,o),
(1516,200,cs),
(824,200,ls),
(492,200,o),
(333,346,o),
(333,640,cs)
);
}
);
width = 2340;
},
{
associatedMasterId = m005;
layerId = "8C8AE554-FF65-4281-A7F2-1B5CD67FC8D4";
name = "2. 4. 24 at 1:38 AM";
shapes = (
{
closed = 1;
nodes = (
(2642,0,ls),
(3077,0,o),
(3338,212,o),
(3338,640,cs),
(3338,1152,ls),
(3338,1580,o),
(3077,1792,o),
(2642,1792,cs),
(824,1792,ls),
(389,1792,o),
(128,1580,o),
(128,1152,cs),
(128,640,ls),
(128,212,o),
(389,0,o),
(824,0,cs)
);
},
{
closed = 1;
nodes = (
(333,1152,ls),
(333,1446,o),
(492,1592,o),
(824,1592,cs),
(2642,1592,ls),
(2975,1592,o),
(3133,1446,o),
(3133,1152,cs),
(3133,640,ls),
(3133,346,o),
(2975,200,o),
(2642,200,cs),
(824,200,ls),
(492,200,o),
(333,346,o),
(333,640,cs)
);
}
);
width = 3466;
}
);
unicode = 79;
},
{
glyphname = Oslash;
kernLeft = O;
kernRight = O;
lastChange = "2025-01-25 17:31:50 +0000";
layers = (
{
layerId = m01;
shapes = (
{
closed = 1;
nodes = (
(447,157,l),
(586,55,o),
(764,0,o),
(970,0,cs),
(1354,0,ls),
(1866,0,o),
(2204,340,o),
(2204,896,cs),
(2204,1142,o),
(2137,1347,o),
(2019,1497,c),
(2204,1654,l),
(2060,1792,l),
(1876,1635,l),
(1737,1737,o),
(1560,1792,o),
(1354,1792,cs),
(970,1792,ls),
(458,1792,o),
(120,1452,o),
(120,896,cs),
(120,650,o),
(186,447,o),
(305,295,c),
(120,138,l),
(263,0,l)
);
},
{
closed = 1;
nodes = (
(463,431,l),
(376,547,o),
(330,706,o),
(330,896,cs),
(330,1318,o),
(560,1587,o),
(970,1587,cs),
(1354,1587,ls),
(1496,1587,o),
(1616,1555,o),
(1712,1496,c)
);
},
{
closed = 1;
nodes = (
(970,205,ls),
(828,205,o),
(707,237,o),
(611,296,c),
(1860,1361,l),
(1948,1244,o),
(1994,1085,o),
(1994,896,cs),
(1994,471,o),
(1764,205,o),
(1354,205,cs)
);
}
);
width = 2324;
},
{
layerId = m004;
shapes = (
{
closed = 1;
nodes = (
(486,131,l),
(618,46,o),
(782,0,o),
(970,0,cs),
(2480,0,ls),
(2992,0,o),
(3330,340,o),
(3330,896,cs),
(3330,1151,o),
(3259,1360,o),
(3133,1512,c),
(3330,1615,l),
(3216,1792,l),
(2965,1661,l),
(2831,1747,o),
(2668,1792,o),
(2480,1792,cs),
(970,1792,ls),
(458,1792,o),
(120,1452,o),
(120,896,cs),
(120,641,o),
(191,432,o),
(317,280,c),
(120,177,l),
(235,0,l)
);
},
{
closed = 1;
nodes = (
(507,379,l),
(391,499,o),
(330,676,o),
(330,896,cs),
(330,1318,o),
(560,1587,o),
(970,1587,cs),
(2480,1587,ls),
(2577,1587,o),
(2664,1572,o),
(2740,1544,c)
);
},
{
closed = 1;
nodes = (
(970,205,ls),
(873,205,o),
(786,220,o),
(710,248,c),
(2942,1412,l),
(3058,1292,o),
(3120,1115,o),
(3120,896,cs),
(3120,471,o),
(2890,205,o),
(2480,205,cs)
);
}
);
width = 3450;
},
{
layerId = m003;
shapes = (
{
closed = 1;
nodes = (
(447,157,l),
(586,55,o),
(764,0,o),
(970,0,cs),
(1354,0,ls),
(1866,0,o),
(2204,340,o),
(2204,896,cs),
(2204,1142,o),
(2137,1347,o),
(2019,1497,c),
(2204,1654,l),
(2060,1792,l),
(1876,1635,l),
(1737,1737,o),
(1560,1792,o),
(1354,1792,cs),
(970,1792,ls),
(458,1792,o),
(120,1452,o),
(120,896,cs),
(120,650,o),
(186,447,o),
(305,295,c),
(120,138,l),
(263,0,l)
);
},
{
closed = 1;
nodes = (
(463,431,l),
(376,547,o),
(330,706,o),
(330,896,cs),
(330,1318,o),
(560,1587,o),
(970,1587,cs),
(1354,1587,ls),
(1496,1587,o),
(1616,1555,o),
(1712,1496,c)
);
},
{
closed = 1;
nodes = (
(970,205,ls),
(828,205,o),
(707,237,o),
(611,296,c),
(1860,1361,l),
(1948,1244,o),
(1994,1085,o),
(1994,896,cs),
(1994,471,o),
(1764,205,o),
(1354,205,cs)
);
}
);
width = 2324;
},
{
layerId = m005;
shapes = (
{
closed = 1;
nodes = (
(486,131,l),
(618,46,o),
(782,0,o),
(970,0,cs),
(2480,0,ls),
(2992,0,o),
(3330,340,o),
(3330,896,cs),
(3330,1151,o),
(3259,1360,o),
(3133,1512,c),
(3330,1615,l),
(3226,1792,l),
(2969,1658,l),
(2835,1745,o),
(2670,1792,o),
(2480,1792,cs),
(970,1792,ls),
(458,1792,o),
(120,1452,o),
(120,896,cs),
(120,641,o),
(191,432,o),
(317,280,c),
(120,177,l),
(235,0,l)
);
},
{
closed = 1;
nodes = (
(508,379,l),
(392,499,o),
(330,676,o),
(330,896,cs),
(330,1318,o),
(560,1587,o),
(970,1587,cs),
(2480,1587,ls),
(2579,1587,o),
(2667,1572,o),
(2745,1542,c)
);
},
{
closed = 1;
nodes = (
(970,205,ls),
(873,205,o),
(786,220,o),
(710,248,c),
(2942,1412,l),
(3058,1292,o),
(3120,1115,o),
(3120,896,cs),
(3120,471,o),
(2890,205,o),
(2480,205,cs)
);
}
);
width = 3450;
}
);
metricLeft = "=O";
metricRight = "=O";
unicode = 216;
},
{
glyphname = OE;
kernLeft = O;
kernRight = O;
lastChange = "2025-01-25 17:31:50 +0000";
layers = (
{
layerId = m01;
shapes = (
{
closed = 1;
nodes = (
(3067,0,l),
(3067,205,l),
(1717,205,l),
(1717,824,l),
(3015,824,l),
(3015,1029,l),
(1868,1029,ls),
(1787,1029,o),
(1737,965,o),
(1737,936,c),
(1717,936,l),
(1717,1587,l),
(3067,1587,l),
(3067,1792,l),
(970,1792,ls),
(458,1792,o),
(120,1452,o),
(120,896,cs),
(120,340,o),
(458,0,o),
(970,0,cs)
);
},
{
closed = 1;
nodes = (
(560,205,o),
(330,471,o),
(330,896,cs),
(330,1318,o),
(560,1587,o),
(970,1587,cs),
(1508,1587,l),
(1508,205,l),
(970,205,ls)
);
}
);
width = 3187;
},
{
layerId = m004;
shapes = (
{
closed = 1;
nodes = (
(4516,0,l),
(4516,205,l),
(2040,205,l),
(2040,824,l),
(4464,824,l),
(4464,1029,l),
(2191,1029,ls),
(2110,1029,o),
(2060,965,o),
(2060,936,c),
(2040,936,l),
(2040,1587,l),
(4516,1587,l),
(4516,1792,l),
(970,1792,ls),
(458,1792,o),
(120,1452,o),
(120,896,cs),
(120,340,o),
(458,0,o),
(970,0,cs)
);
},
{
closed = 1;
nodes = (
(560,205,o),
(330,471,o),
(330,896,cs),
(330,1318,o),
(560,1587,o),
(970,1587,cs),
(1830,1587,l),
(1830,205,l),
(970,205,ls)
);
}
);
width = 4636;
},
{
layerId = m003;
shapes = (
{
closed = 1;
nodes = (
(3067,0,l),
(3067,205,l),
(1717,205,l),
(1717,824,l),
(3015,824,l),
(3015,1029,l),
(2024,1029,ls),
(1917,1029,o),
(1843,965,o),
(1843,936,c),
(1717,936,l),
(1717,1587,l),
(3067,1587,l),
(3067,1792,l),
(970,1792,ls),
(458,1792,o),
(120,1452,o),
(120,896,cs),
(120,340,o),
(458,0,o),
(970,0,cs)
);
},
{
closed = 1;
nodes = (
(560,205,o),
(330,471,o),
(330,896,cs),
(330,1318,o),
(560,1587,o),
(970,1587,cs),
(1508,1587,l),
(1508,205,l),
(970,205,ls)
);
}
);
width = 3187;
},
{
layerId = m005;
shapes = (
{
closed = 1;
nodes = (
(4516,0,l),
(4516,205,l),
(2040,205,l),
(2040,824,l),
(4464,824,l),
(4464,1029,l),
(2347,1029,ls),
(2240,1029,o),
(2166,965,o),
(2166,936,c),
(2040,936,l),
(2040,1587,l),
(4516,1587,l),
(4516,1792,l),
(970,1792,ls),
(458,1792,o),
(120,1452,o),
(120,896,cs),
(120,340,o),
(458,0,o),
(970,0,cs)
);
},
{
closed = 1;
nodes = (
(560,205,o),
(330,471,o),
(330,896,cs),
(330,1318,o),
(560,1587,o),
(970,1587,cs),
(1830,1587,l),
(1830,205,l),
(970,205,ls)
);
}
);
width = 4636;
}
);
metricLeft = O;
metricRight = E;
unicode = 338;
},
{
glyphname = P;
kernLeft = H;
kernRight = O;
lastChange = "2025-01-25 17:31:50 +0000";
layers = (
{
anchors = (
{
name = bottom;
pos = (979,0);
},
{
name = top;
pos = (979,1859);
}
);
layerId = m01;
shapes = (
{
closed = 1;
nodes = (
(390,0,l),
(390,824,l),
(1337,824,ls),
(1655,824,o),
(1877,1011,o),
(1877,1303,cs),
(1877,1595,o),
(1655,1792,o),
(1337,1792,cs),
(180,1792,l),
(180,0,l)
);
},
{
closed = 1;
nodes = (
(1337,1587,ls),
(1573,1587,o),
(1668,1446,o),
(1668,1308,cs),
(1668,1170,o),
(1573,1029,o),
(1337,1029,cs),
(541,1029,ls),
(460,1029,o),
(410,965,o),
(410,936,c),
(390,936,l),
(390,1587,l)
);
}
);
width = 1957;
},
{
anchors = (
{
name = bottom;
pos = (1542,0);
},
{
name = top;
pos = (1542,1859);
}
);
layerId = m004;
shapes = (
{
closed = 1;
nodes = (
(390,0,l),
(390,824,l),
(2464,824,ls),
(2781,824,o),
(3004,1011,o),
(3004,1303,cs),
(3004,1595,o),
(2781,1792,o),
(2464,1792,cs),
(180,1792,l),
(180,0,l)
);
},
{
closed = 1;
nodes = (
(2464,1587,ls),
(2699,1587,o),
(2794,1446,o),
(2794,1308,cs),
(2794,1170,o),
(2699,1029,o),
(2464,1029,cs),
(541,1029,ls),
(460,1029,o),
(410,965,o),
(410,936,c),
(390,936,l),
(390,1587,l)
);
}
);
width = 3084;
},
{
anchors = (
{
name = bottom;
pos = (979,0);
},
{
name = top;
pos = (979,1859);
}
);
layerId = m003;
shapes = (
{
closed = 1;
nodes = (
(390,0,l),
(390,824,l),
(1337,824,ls),
(1655,824,o),
(1877,1011,o),
(1877,1303,cs),
(1877,1595,o),
(1655,1792,o),
(1337,1792,cs),
(180,1792,l),
(180,0,l)
);
},
{
closed = 1;
nodes = (
(1337,1587,ls),
(1573,1587,o),
(1668,1446,o),
(1668,1308,cs),
(1668,1170,o),
(1573,1029,o),
(1337,1029,cs),
(697,1029,ls),
(590,1029,o),
(516,965,o),
(516,936,c),
(390,936,l),
(390,1587,l)
);
}
);
width = 1957;
},
{
anchors = (
{
name = bottom;
pos = (1542,0);
},
{
name = top;
pos = (1542,1859);
}
);
layerId = m005;
shapes = (
{
closed = 1;
nodes = (
(390,0,l),
(390,824,l),
(2464,824,ls),
(2781,824,o),
(3004,1011,o),
(3004,1303,cs),
(3004,1595,o),
(2781,1792,o),
(2464,1792,cs),
(180,1792,l),
(180,0,l)
);
},
{
closed = 1;
nodes = (
(2464,1587,ls),
(2699,1587,o),
(2794,1446,o),
(2794,1308,cs),
(2794,1170,o),
(2699,1029,o),
(2464,1029,cs),
(697,1029,ls),
(590,1029,o),
(516,965,o),
(516,936,c),
(390,936,l),
(390,1587,l)
);
}
);
width = 3084;
},
{
associatedMasterId = m01;
layerId = "AFB9DCFA-6FDA-4FAE-8DBB-352B910E59A8";
name = "2. 4. 24 at 1:45 AM";
shapes = (
{
closed = 1;
nodes = (
(179,0,l),
(389,0,l),
(389,1792,l),
(179,1792,l)
);
},
{
closed = 1;
nodes = (
(394,1792,l),
(394,1582,l),
(1116,1582,l),
(1539,1582,o),
(1661,1436,o),
(1661,1219,cs),
(1661,1001,o),
(1539,847,o),
(1116,847,c),
(394,847,l),
(394,637,l),
(1116,637,l),
(1605,637,o),
(1876,832,o),
(1876,1216,cs),
(1876,1600,o),
(1605,1792,o),
(1116,1792,c)
);
}
);
width = 1953;
}
);
metricLeft = H;
metricRight = "=O-40";
unicode = 80;
},
{
glyphname = Thorn;
kernLeft = H;
kernRight = O;
lastChange = "2025-01-25 17:31:50 +0000";
layers = (
{
layerId = m01;
shapes = (
{
closed = 1;
nodes = (
(390,0,l),
(390,412,l),
(1337,412,ls),
(1655,412,o),
(1877,599,o),
(1877,891,cs),
(1877,1183,o),
(1655,1380,o),
(1337,1380,cs),
(541,1380,ls),
(460,1380,o),
(410,1316,o),
(410,1287,c),
(390,1287,l),
(390,1792,l),
(180,1792,l),
(180,0,l)
);
},
{
closed = 1;
nodes = (
(1337,1175,ls),
(1573,1175,o),
(1668,1034,o),
(1668,896,cs),
(1668,758,o),
(1573,617,o),
(1337,617,cs),
(541,617,ls),
(460,617,o),
(410,553,o),
(410,524,c),
(390,524,l),
(390,1175,l)
);
}
);
width = 1957;
},
{
layerId = m004;
shapes = (
{
closed = 1;
nodes = (
(390,0,l),
(390,412,l),
(2464,412,ls),
(2781,412,o),
(3004,599,o),
(3004,891,cs),
(3004,1183,o),
(2781,1380,o),
(2464,1380,cs),
(541,1380,ls),
(460,1380,o),
(410,1316,o),
(410,1287,c),
(390,1287,l),
(390,1792,l),
(180,1792,l),
(180,0,l)
);
},
{
closed = 1;
nodes = (
(2464,1175,ls),
(2699,1175,o),
(2794,1034,o),
(2794,896,cs),
(2794,758,o),
(2699,617,o),
(2464,617,cs),
(541,617,ls),
(460,617,o),
(410,553,o),
(410,524,c),
(390,524,l),
(390,1175,l)
);
}
);
width = 3084;
},
{
layerId = m003;
shapes = (
{
closed = 1;
nodes = (
(390,0,l),
(390,412,l),
(1337,412,ls),
(1655,412,o),
(1877,599,o),
(1877,891,cs),
(1877,1183,o),
(1655,1380,o),
(1337,1380,cs),
(697,1380,ls),
(590,1380,o),
(516,1316,o),
(516,1287,c),
(390,1287,l),
(390,1792,l),
(180,1792,l),
(180,0,l)
);
},
{
closed = 1;
nodes = (
(1337,1175,ls),
(1573,1175,o),
(1668,1034,o),
(1668,896,cs),
(1668,758,o),
(1573,617,o),
(1337,617,cs),
(697,617,ls),
(590,617,o),
(516,553,o),
(516,524,c),
(390,524,l),
(390,1175,l)
);
}
);
width = 1957;
},
{
layerId = m005;
shapes = (
{
closed = 1;
nodes = (
(390,0,l),
(390,412,l),
(2464,412,ls),
(2781,412,o),
(3004,599,o),
(3004,891,cs),
(3004,1183,o),
(2781,1380,o),
(2464,1380,cs),
(697,1380,ls),
(590,1380,o),
(516,1316,o),
(516,1287,c),
(390,1287,l),
(390,1792,l),
(180,1792,l),
(180,0,l)
);
},
{
closed = 1;
nodes = (
(2464,1175,ls),
(2699,1175,o),
(2794,1034,o),
(2794,896,cs),
(2794,758,o),
(2699,617,o),
(2464,617,cs),
(697,617,ls),
(590,617,o),
(516,553,o),
(516,524,c),
(390,524,l),
(390,1175,l)
);
}
);
width = 3084;
}
);
metricLeft = P;
metricRight = "=P";
unicode = 222;
},
{
glyphname = Q;
kernLeft = O;
kernRight = O;
lastChange = "2025-01-25 17:31:50 +0000";
layers = (
{
anchors = (
{
name = bottom;
pos = (1162,0);
},
{
name = top;
pos = (1162,1859);
}
);
guides = (
{
angle = 270;
pos = (856,94);
}
);
layerId = m01;
shapes = (
{
closed = 1;
nodes = (
(2244,0,l),
(2244,205,l),
(2087,205,ls),
(2006,205,o),
(1903,147,o),
(1882,127,c),
(1868,142,l),
(1951,219,ls),
(2112,374,o),
(2204,606,o),
(2204,896,cs),
(2204,1452,o),
(1866,1792,o),
(1354,1792,cs),
(970,1792,ls),
(458,1792,o),
(120,1452,o),
(120,896,cs),
(120,340,o),
(458,0,o),
(970,0,cs)
);
},
{
closed = 1;
nodes = (
(970,205,ls),
(560,205,o),
(330,471,o),
(330,896,cs),
(330,1318,o),
(560,1587,o),
(970,1587,cs),
(1354,1587,ls),
(1764,1587,o),
(1994,1318,o),
(1994,896,cs),
(1994,471,o),
(1764,205,o),
(1354,205,cs)
);
}
);
width = 2324;
},
{
anchors = (
{
name = bottom;
pos = (1725,0);
},
{
name = top;
pos = (1725,1859);
}
);
guides = (
{
angle = 270;
pos = (1296,469);
}
);
layerId = m004;
shapes = (
{
closed = 1;
nodes = (
(3370,0,l),
(3370,205,l),
(3213,205,ls),
(3132,205,o),
(3029,147,o),
(3008,127,c),
(2994,142,l),
(3077,219,ls),
(3238,374,o),
(3330,606,o),
(3330,896,cs),
(3330,1452,o),
(2992,1792,o),
(2480,1792,cs),
(970,1792,ls),
(458,1792,o),
(120,1452,o),
(120,896,cs),
(120,340,o),
(458,0,o),
(970,0,cs)
);
},
{
closed = 1;
nodes = (
(970,205,ls),
(560,205,o),
(330,471,o),
(330,896,cs),
(330,1318,o),
(560,1587,o),
(970,1587,cs),
(2480,1587,ls),
(2890,1587,o),
(3120,1318,o),
(3120,896,cs),
(3120,471,o),
(2890,205,o),
(2480,205,cs)
);
}
);
width = 3450;
},
{
anchors = (
{
name = bottom;
pos = (1162,0);
},
{
name = top;
pos = (1162,1859);
}
);
guides = (
{
angle = 270;
pos = (856,94);
}
);
layerId = m003;
shapes = (
{
closed = 1;
nodes = (
(2264,0,l),
(2264,205,l),
(2212,205,ls),
(2116,205,o),
(1966,78,o),
(1945,59,c),
(1868,142,l),
(1951,219,ls),
(2112,374,o),
(2204,606,o),
(2204,896,cs),
(2204,1452,o),
(1866,1792,o),
(1354,1792,cs),
(970,1792,ls),
(458,1792,o),
(120,1452,o),
(120,896,cs),
(120,340,o),
(458,0,o),
(970,0,cs)
);
},
{
closed = 1;
nodes = (
(970,205,ls),
(560,205,o),
(330,471,o),
(330,896,cs),
(330,1318,o),
(560,1587,o),
(970,1587,cs),
(1354,1587,ls),
(1764,1587,o),
(1994,1318,o),
(1994,896,cs),
(1994,471,o),
(1764,205,o),
(1354,205,cs)
);
}
);
width = 2344;
},
{
anchors = (
{
name = bottom;
pos = (1725,0);
},
{
name = top;
pos = (1725,1859);
}
);
guides = (
{
angle = 270;
pos = (1296,469);
}
);
layerId = m005;
shapes = (
{
closed = 1;
nodes = (
(3370,0,l),
(3370,205,l),
(3369,205,ls),
(3262,205,o),
(3101,69,o),
(3080,49,c),
(2994,142,l),
(3077,219,ls),
(3238,374,o),
(3330,606,o),
(3330,896,cs),
(3330,1452,o),
(2992,1792,o),
(2480,1792,cs),
(970,1792,ls),
(458,1792,o),
(120,1452,o),
(120,896,cs),
(120,340,o),
(458,0,o),
(970,0,cs)
);
},
{
closed = 1;
nodes = (
(970,205,ls),
(560,205,o),
(330,471,o),
(330,896,cs),
(330,1318,o),
(560,1587,o),
(970,1587,cs),
(2480,1587,ls),
(2890,1587,o),
(3120,1318,o),
(3120,896,cs),
(3120,471,o),
(2890,205,o),
(2480,205,cs)
);
}
);
width = 3450;
},
{
associatedMasterId = m01;
guides = (
{
angle = 270;
pos = (864,94);
}
);
layerId = "A8C28323-E5B8-45A2-9112-D8C5F4571F26";
name = "7. 8. 24 at 1:04 PM";
shapes = (
{
closed = 1;
nodes = (
(2186,0,l),
(1426,824,l),
(1155,824,l),
(1915,0,l)
);
},
{
ref = O;
}
);
width = 2340;
}
);
metricLeft = O;
metricRight = "=O-40";
unicode = 81;
},
{
glyphname = R;
kernLeft = H;
kernRight = H;
lastChange = "2025-01-25 17:31:50 +0000";
layers = (
{
anchors = (
{
name = bottom;
pos = (1568,0);
},
{
name = top;
pos = (1568,1859);
}
);
layerId = m004;
shapes = (
{
closed = 1;
nodes = (
(390,0,l),
(390,824,l),
(2464,824,ls),
(2699,824,o),
(2794,666,o),
(2794,515,cs),
(2794,0,l),
(3004,0,l),
(3004,502,ls),
(3004,709,o),
(2908,874,o),
(2694,928,c),
(2697,948,l),
(2870,989,o),
(3004,1097,o),
(3004,1316,cs),
(3004,1592,o),
(2781,1792,o),
(2464,1792,cs),
(180,1792,l),
(180,0,l)
);
},
{
closed = 1;
nodes = (
(390,1029,l),
(390,1587,l),
(2464,1587,ls),
(2699,1587,o),
(2794,1446,o),
(2794,1308,cs),
(2794,1170,o),
(2699,1029,o),
(2464,1029,cs)
);
}
);
width = 3184;
},
{
anchors = (
{
name = bottom;
pos = (979,0);
},
{
name = top;
pos = (979,1859);
}
);
layerId = m003;
shapes = (
{
closed = 1;
nodes = (
(390,0,l),
(390,824,l),
(1286,824,ls),
(1522,824,o),
(1616,666,o),
(1616,515,cs),
(1616,0,l),
(1826,0,l),
(1826,502,ls),
(1826,696,o),
(1742,853,o),
(1517,887,c),
(1522,987,l),
(1712,1006,o),
(1826,1114,o),
(1826,1316,cs),
(1826,1592,o),
(1604,1792,o),
(1286,1792,cs),
(180,1792,l),
(180,0,l)
);
},
{
closed = 1;
nodes = (
(390,1029,l),
(390,1587,l),
(1286,1587,ls),
(1522,1587,o),
(1616,1446,o),
(1616,1308,cs),
(1616,1170,o),
(1522,1029,o),
(1286,1029,cs)
);
}
);
width = 2006;
},
{
anchors = (
{
name = bottom;
pos = (1568,0);
},
{
name = top;
pos = (1568,1859);
}
);
layerId = m005;
shapes = (
{
closed = 1;
nodes = (
(390,0,l),
(390,824,l),
(2464,824,ls),
(2699,824,o),
(2794,666,o),
(2794,515,cs),
(2794,0,l),
(3004,0,l),
(3004,502,ls),
(3004,696,o),
(2920,853,o),
(2694,887,c),
(2699,987,l),
(2890,1006,o),
(3004,1114,o),
(3004,1316,cs),
(3004,1592,o),
(2781,1792,o),
(2464,1792,cs),
(180,1792,l),
(180,0,l)
);
},
{
closed = 1;
nodes = (
(390,1029,l),
(390,1587,l),
(2464,1587,ls),
(2699,1587,o),
(2794,1446,o),
(2794,1308,cs),
(2794,1170,o),
(2699,1029,o),
(2464,1029,cs)
);
}
);
width = 3184;
},
{
associatedMasterId = m01;
layerId = "2A8B172B-5055-4B1F-8813-F3FD74EEC0C9";
name = "3. 4. 24 at 8:52 PM";
shapes = (
{
closed = 1;
nodes = (
(179,0,l),
(394,0,l),
(394,1792,l),
(179,1792,l)
);
},
{
closed = 1;
nodes = (
(394,1792,l),
(394,1582,l),
(1116,1582,l),
(1487,1582,o),
(1661,1513,o),
(1661,1295,cs),
(1661,1078,o),
(1487,1001,o),
(1116,1001,c),
(394,1001,l),
(394,791,l),
(1116,791,l),
(1605,791,o),
(1876,934,o),
(1876,1293,cs),
(1876,1651,o),
(1605,1792,o),
(1116,1792,c)
);
},
{
closed = 1;
nodes = (
(1564,0,l),
(1851,0,l),
(1114,791,l),
(837,791,l)
);
}
);
width = 2004;
},
{
anchors = (
{
name = bottom;
pos = (1004,0);
},
{
name = top;
pos = (1004,1859);
}
);
associatedMasterId = m01;
hints = (
{
name = _corner.inkstraight;
origin = (0,20,1,1);
stem = 1000;
type = Corner;
},
{
name = _corner.inkhormid;
origin = (0,4);
scale = (0.9,1);
type = Corner;
}
);
layerId = "E74B71B4-B813-4CF4-9722-7FB81E115E4D";
name = "16. 10. 24 at 10:39 AM";
shapes = (
{
closed = 1;
nodes = (
(1825,0,l),
(1825,389,ls),
(1825,614,o),
(1754,778,o),
(1595,886,c),
(1779,963,o),
(1876,1111,o),
(1876,1303,cs),
(1876,1595,o),
(1654,1792,o),
(1336,1792,cs),
(312,1792,l),
(312,1587,l),
(1336,1587,ls),
(1572,1587,o),
(1667,1446,o),
(1667,1308,cs),
(1667,1170,o),
(1572,1029,o),
(1336,1029,cs),
(312,1029,l),
(312,824,l),
(1129,824,ls),
(1462,824,o),
(1615,684,o),
(1615,389,cs),
(1615,0,l)
);
},
{
closed = 1;
nodes = (
(389,0,l),
(389,1792,l),
(179,1792,l),
(179,0,l)
);
}
);
width = 2004;
},
{
anchors = (
{
name = bottom;
pos = (979,0);
},
{
name = top;
pos = (979,1859);
}
);
layerId = m01;
name = "Regular Expaned";
shapes = (
{
closed = 1;
nodes = (
(390,0,l),
(390,824,l),
(1286,824,ls),
(1522,824,o),
(1616,666,o),
(1616,515,cs),
(1616,0,l),
(1826,0,l),
(1826,502,ls),
(1826,709,o),
(1730,874,o),
(1517,928,c),
(1520,948,l),
(1692,989,o),
(1826,1097,o),
(1826,1316,cs),
(1826,1592,o),
(1604,1792,o),
(1286,1792,cs),
(180,1792,l),
(180,0,l)
);
},
{
closed = 1;
nodes = (
(390,1029,l),
(390,1587,l),
(1286,1587,ls),
(1522,1587,o),
(1616,1446,o),
(1616,1308,cs),
(1616,1170,o),
(1522,1029,o),
(1286,1029,cs)
);
}
);
width = 2006;
},
{
anchors = (
{
name = bottom;
pos = (1567,0);
},
{
name = top;
pos = (1567,1859);
}
);
associatedMasterId = m004;
hints = (
{
name = _corner.inkhormid;
origin = (0,4);
scale = (0.9,1);
type = Corner;
},
{
name = _corner.inkstraight;
origin = (0,20,1,1);
stem = 1000;
type = Corner;
}
);
layerId = "680FFE7F-0FC4-4641-9F4B-F56ED469B20A";
name = "16. 10. 24 at 10:40 AM";
shapes = (
{
closed = 1;
nodes = (
(2952,0,l),
(2952,389,ls),
(2952,614,o),
(2880,778,o),
(2721,886,c),
(2906,963,o),
(3003,1111,o),
(3003,1303,cs),
(3003,1595,o),
(2780,1792,o),
(2463,1792,cs),
(312,1792,l),
(312,1587,l),
(2463,1587,ls),
(2698,1587,o),
(2793,1446,o),
(2793,1308,cs),
(2793,1170,o),
(2698,1029,o),
(2463,1029,cs),
(312,1029,l),
(312,824,l),
(2255,824,ls),
(2588,824,o),
(2742,684,o),
(2742,389,cs),
(2742,0,l)
);
},
{
closed = 1;
nodes = (
(389,0,l),
(389,1792,l),
(179,1792,l),
(179,0,l)
);
}
);
width = 3131;
},
{
anchors = (
{
name = bottom;
pos = (1567,0);
},
{
name = top;
pos = (1567,1859);
}
);
associatedMasterId = m005;
hints = (
{
name = _corner.inkhormid;
origin = (0,4);
type = Corner;
},
{
name = _corner.inkstraight;
origin = (0,20,1,1);
stem = 1000;
type = Corner;
}
);
layerId = "63E06557-214B-45B0-A62E-722E64615E05";
name = "16. 10. 24 at 10:40 AM";
shapes = (
{
closed = 1;
nodes = (
(2952,0,l),
(2952,389,ls),
(2952,614,o),
(2880,778,o),
(2721,886,c),
(2906,963,o),
(3003,1111,o),
(3003,1303,cs),
(3003,1595,o),
(2780,1792,o),
(2463,1792,cs),
(312,1792,l),
(312,1587,l),
(2463,1587,ls),
(2698,1587,o),
(2793,1446,o),
(2793,1308,cs),
(2793,1170,o),
(2698,1029,o),
(2463,1029,cs),
(312,1029,l),
(312,824,l),
(2255,824,ls),
(2588,824,o),
(2742,684,o),
(2742,389,cs),
(2742,0,l)
);
},
{
closed = 1;
nodes = (
(389,0,l),
(389,1792,l),
(179,1792,l),
(179,0,l)
);
}
);
width = 3131;
},
{
anchors = (
{
name = bottom;
pos = (1004,0);
},
{
name = top;
pos = (1004,1859);
}
);
associatedMasterId = m003;
hints = (
{
name = _corner.inkhormid;
options = 1;
origin = (0,4);
scale = (1,-1);
type = Corner;
},
{
name = _corner.inkstraight;
origin = (0,20,1,1);
stem = 1000;
type = Corner;
}
);
layerId = "36C13A36-FAA0-4405-8E8D-72448E9F3871";
name = "16. 10. 24 at 10:41 AM";
shapes = (
{
closed = 1;
nodes = (
(1825,0,l),
(1825,389,ls),
(1825,614,o),
(1754,778,o),
(1595,886,c),
(1779,963,o),
(1876,1111,o),
(1876,1303,cs),
(1876,1595,o),
(1654,1792,o),
(1336,1792,cs),
(312,1792,l),
(312,1587,l),
(1336,1587,ls),
(1572,1587,o),
(1667,1446,o),
(1667,1308,cs),
(1667,1170,o),
(1572,1029,o),
(1336,1029,cs),
(312,1029,l),
(312,824,l),
(1129,824,ls),
(1462,824,o),
(1615,684,o),
(1615,389,cs),
(1615,0,l)
);
},
{
closed = 1;
nodes = (
(389,0,l),
(389,1792,l),
(179,1792,l),
(179,0,l)
);
}
);
width = 2004;
},
{
anchors = (
{
name = bottom;
pos = (1004,0);
},
{
name = top;
pos = (1004,1859);
}
);
associatedMasterId = m01;
hints = (
{
name = _corner.inkhormid;
origin = (1,12,2,9);
stem = 1000;
type = Corner;
}
);
layerId = "C0E19EC4-38B1-408E-9FE4-44E9B1E134FF";
name = "16. 10. 24 at 10:45 AM";
shapes = (
{
closed = 1;
nodes = (
(179,0,l),
(389,0,l),
(389,1792,l),
(179,1792,l)
);
},
{
closed = 1;
nodes = (
(1336,1587,ls),
(1572,1587,o),
(1667,1446,o),
(1667,1308,cs),
(1667,1170,o),
(1572,1029,o),
(1336,1029,cs),
(312,1029,l),
(312,824,l),
(1336,824,l),
(1654,824,o),
(1876,1011,o),
(1876,1303,cs),
(1876,1595,o),
(1654,1792,o),
(1336,1792,cs),
(312,1792,l),
(312,1587,l)
);
},
{
closed = 1;
nodes = (
(1180,824,l),
(1513,824,o),
(1667,684,o),
(1667,389,c),
(1667,0,l),
(1876,0,l),
(1876,389,l),
(1876,817,o),
(1615,1029,o),
(1180,1029,c)
);
}
);
width = 2004;
},
{
anchors = (
{
name = bottom;
pos = (1004,0);
},
{
name = top;
pos = (1004,1859);
}
);
associatedMasterId = m003;
hints = (
{
name = _corner.inkhormid;
origin = (1,12,2,9);
stem = 1000;
type = Corner;
}
);
layerId = "D3892D37-DEFC-4BEE-B877-039E5F5F4E8C";
name = "16. 10. 24 at 11:01 AM";
shapes = (
{
closed = 1;
nodes = (
(179,0,l),
(389,0,l),
(389,1792,l),
(179,1792,l)
);
},
{
closed = 1;
nodes = (
(1336,1587,ls),
(1572,1587,o),
(1667,1446,o),
(1667,1308,cs),
(1667,1170,o),
(1572,1029,o),
(1336,1029,cs),
(312,1029,l),
(312,824,l),
(1336,824,l),
(1654,824,o),
(1876,1011,o),
(1876,1303,cs),
(1876,1595,o),
(1654,1792,o),
(1336,1792,cs),
(312,1792,l),
(312,1587,l)
);
},
{
closed = 1;
nodes = (
(1180,824,l),
(1513,824,o),
(1667,684,o),
(1667,389,c),
(1667,0,l),
(1876,0,l),
(1876,389,l),
(1876,817,o),
(1615,1029,o),
(1180,1029,c)
);
}
);
width = 2004;
}
);
metricLeft = H;
metricRight = H;
unicode = 82;
},
{
glyphname = S;
kernLeft = O;
kernRight = O;
lastChange = "2025-01-25 17:31:50 +0000";
layers = (
{
anchors = (
{
name = bottom;
pos = (1162,0);
},
{
name = top;
pos = (1162,1859);
}
);
guides = (
{
angle = 270;
pos = (42,265);
},
{
angle = 270;
pos = (856,548);
}
);
layerId = m01;
shapes = (
{
closed = 1;
nodes = (
(1669,0,ls),
(1973,0,o),
(2204,205,o),
(2204,522,cs),
(2204,840,o),
(1973,1032,o),
(1669,1032,cs),
(660,1032,ls),
(425,1032,o),
(330,1160,o),
(330,1303,cs),
(330,1446,o),
(425,1587,o),
(660,1587,cs),
(2153,1587,l),
(2153,1792,l),
(660,1792,ls),
(343,1792,o),
(120,1595,o),
(120,1303,cs),
(120,1011,o),
(343,824,o),
(660,824,cs),
(1669,824,ls),
(1866,824,o),
(1994,717,o),
(1994,515,cs),
(1994,312,o),
(1866,205,o),
(1669,205,cs),
(171,205,l),
(171,0,l)
);
}
);
width = 2324;
},
{
anchors = (
{
name = bottom;
pos = (1710,0);
},
{
name = top;
pos = (1710,1859);
}
);
guides = (
{
angle = 270;
pos = (262,265);
},
{
angle = 270;
pos = (1076,548);
}
);
layerId = m004;
shapes = (
{
closed = 1;
nodes = (
(2762,0,ls),
(3067,0,o),
(3297,205,o),
(3297,522,cs),
(3297,840,o),
(3067,1032,o),
(2762,1032,cs),
(660,1032,ls),
(425,1032,o),
(330,1160,o),
(330,1303,cs),
(330,1446,o),
(425,1587,o),
(660,1587,cs),
(3246,1587,l),
(3246,1792,l),
(660,1792,ls),
(343,1792,o),
(120,1595,o),
(120,1303,cs),
(120,1011,o),
(343,824,o),
(660,824,cs),
(2762,824,ls),
(2959,824,o),
(3087,717,o),
(3087,515,cs),
(3087,312,o),
(2959,205,o),
(2762,205,cs),
(171,205,l),
(171,0,l)
);
}
);
width = 3417;
},
{
anchors = (
{
name = bottom;
pos = (1162,0);
},
{
name = top;
pos = (1162,1859);
}
);
guides = (
{
angle = 270;
pos = (42,265);
},
{
angle = 270;
pos = (856,548);
}
);
layerId = m003;
shapes = (
{
closed = 1;
nodes = (
(1669,0,ls),
(1973,0,o),
(2204,205,o),
(2204,522,cs),
(2204,840,o),
(1973,1032,o),
(1669,1032,cs),
(660,1032,ls),
(425,1032,o),
(330,1160,o),
(330,1303,cs),
(330,1446,o),
(425,1587,o),
(660,1587,cs),
(2153,1587,l),
(2153,1792,l),
(660,1792,ls),
(343,1792,o),
(120,1595,o),
(120,1303,cs),
(120,1011,o),
(343,824,o),
(660,824,cs),
(1669,824,ls),
(1866,824,o),
(1994,717,o),
(1994,515,cs),
(1994,312,o),
(1866,205,o),
(1669,205,cs),
(171,205,l),
(171,0,l)
);
}
);
width = 2324;
},
{
anchors = (
{
name = bottom;
pos = (1710,0);
},
{
name = top;
pos = (1710,1859);
}
);
guides = (
{
angle = 270;
pos = (190,265);
},
{
angle = 270;
pos = (1004,548);
}
);
layerId = m005;
shapes = (
{
closed = 1;
nodes = (
(2762,0,ls),
(3067,0,o),
(3297,205,o),
(3297,522,cs),
(3297,840,o),
(3067,1032,o),
(2762,1032,cs),
(660,1032,ls),
(425,1032,o),
(330,1160,o),
(330,1303,cs),
(330,1446,o),
(425,1587,o),
(660,1587,cs),
(3246,1587,l),
(3246,1792,l),
(660,1792,ls),
(343,1792,o),
(120,1595,o),
(120,1303,cs),
(120,1011,o),
(343,824,o),
(660,824,cs),
(2762,824,ls),
(2959,824,o),
(3087,717,o),
(3087,515,cs),
(3087,312,o),
(2959,205,o),
(2762,205,cs),
(171,205,l),
(171,0,l)
);
}
);
width = 3417;
}
);
metricLeft = O;
metricRight = O;
unicode = 83;
},
{
glyphname = Germandbls;
kernLeft = H;
kernRight = O;
lastChange = "2025-01-25 17:31:50 +0000";
layers = (
{
layerId = m01;
shapes = (
{
closed = 1;
nodes = (
(180,0,l),
(390,0,l),
(390,1293,ls),
(390,1472,o),
(505,1587,o),
(741,1587,cs),
(1292,1588,ls),
(1372,1588,o),
(1472,1622,o),
(1518,1646,c),
(1535,1626,l),
(723,973,l),
(723,824,l),
(1363,824,ls),
(1624,824,o),
(1719,678,o),
(1719,515,cs),
(1719,351,o),
(1624,205,o),
(1363,205,cs),
(723,205,l),
(723,0,l),
(1363,0,ls),
(1706,0,o),
(1929,209,o),
(1929,515,cs),
(1929,828,o),
(1696,1029,o),
(1403,1029,cs),
(1308,1029,ls),
(1228,1029,o),
(1128,995,o),
(1082,971,c),
(1065,991,l),
(1877,1644,l),
(1877,1792,l),
(741,1792,ls),
(400,1792,o),
(180,1595,o),
(180,1293,cs)
);
}
);
width = 2049;
},
{
layerId = m004;
shapes = (
{
closed = 1;
nodes = (
(180,0,l),
(390,0,l),
(390,1293,ls),
(390,1472,o),
(505,1587,o),
(741,1587,cs),
(1934,1587,ls),
(2014,1587,o),
(2121,1623,o),
(2170,1638,c),
(2183,1616,l),
(999,973,l),
(999,824,l),
(2151,824,ls),
(2413,824,o),
(2507,678,o),
(2507,515,cs),
(2507,351,o),
(2413,205,o),
(2151,205,cs),
(795,205,l),
(795,0,l),
(2151,0,ls),
(2494,0,o),
(2717,205,o),
(2717,515,cs),
(2717,824,o),
(2494,1029,o),
(2151,1029,cs),
(1729,1029,ls),
(1649,1029,o),
(1542,993,o),
(1493,978,c),
(1480,1000,l),
(2666,1644,l),
(2666,1792,l),
(741,1792,ls),
(400,1792,o),
(180,1595,o),
(180,1293,cs)
);
}
);
width = 2837;
},
{
layerId = m003;
shapes = (
{
closed = 1;
nodes = (
(180,0,l),
(390,0,l),
(390,1293,ls),
(390,1472,o),
(505,1587,o),
(741,1587,cs),
(1205,1588,ls),
(1337,1588,o),
(1439,1683,o),
(1473,1704,c),
(1536,1626,l),
(723,973,l),
(723,824,l),
(1363,824,ls),
(1624,824,o),
(1719,678,o),
(1719,515,cs),
(1719,351,o),
(1624,205,o),
(1363,205,cs),
(723,205,l),
(723,0,l),
(1363,0,ls),
(1706,0,o),
(1929,209,o),
(1929,515,cs),
(1929,828,o),
(1696,1029,o),
(1403,1029,cs),
(1395,1029,ls),
(1263,1028,o),
(1161,934,o),
(1127,913,c),
(1064,991,l),
(1877,1644,l),
(1877,1792,l),
(741,1792,ls),
(400,1792,o),
(180,1595,o),
(180,1293,cs)
);
}
);
width = 2049;
},
{
layerId = m005;
shapes = (
{
closed = 1;
nodes = (
(180,0,l),
(390,0,l),
(390,1293,ls),
(390,1472,o),
(505,1587,o),
(741,1587,cs),
(1847,1587,ls),
(1979,1588,o),
(2098,1689,o),
(2136,1704,c),
(2184,1616,l),
(999,973,l),
(999,824,l),
(2151,824,ls),
(2413,824,o),
(2507,678,o),
(2507,515,cs),
(2507,351,o),
(2413,205,o),
(2151,205,cs),
(795,205,l),
(795,0,l),
(2151,0,ls),
(2494,0,o),
(2717,205,o),
(2717,515,cs),
(2717,824,o),
(2494,1030,o),
(2151,1029,cs),
(1813,1028,ls),
(1681,1027,o),
(1562,925,o),
(1524,910,c),
(1476,998,l),
(2666,1644,l),
(2666,1792,l),
(741,1792,ls),
(400,1792,o),
(180,1595,o),
(180,1293,cs)
);
}
);
width = 2837;
},
{
associatedMasterId = m01;
hints = (
{
name = _corner.diagonal;
origin = (0,5);
type = Corner;
},
{
name = _corner.diagonal;
origin = (0,8,1,7);
stem = 1000;
type = Corner;
}
);
layerId = "A823EDB2-A355-4E5D-8F45-2498D2A34594";
name = "11. 11. 24 at 8:57 PM";
shapes = (
{
closed = 1;
nodes = (
(384,0,l),
(384,1293,ls),
(384,1472,o),
(492,1592,o),
(740,1592,cs),
(1472,1592,l),
(717,1024,l),
(1009,998,l),
(1795,1592,l),
(1795,1792,l),
(740,1792,ls),
(399,1792,o),
(179,1595,o),
(179,1293,cs),
(179,0,l)
);
},
{
closed = 1;
nodes = (
(1280,0,ls),
(1623,0,o),
(1846,202,o),
(1846,512,cs),
(1846,822,o),
(1623,1024,o),
(1280,1024,cs),
(717,1024,l),
(717,824,l),
(1280,824,ls),
(1541,824,o),
(1641,676,o),
(1641,512,cs),
(1641,348,o),
(1541,200,o),
(1280,200,cs),
(717,200,l),
(717,0,l)
);
}
);
width = 1948;
}
);
metricLeft = H;
metricRight = O;
unicode = 7838;
},
{
glyphname = T;
kernLeft = T;
kernRight = T;
lastChange = "2025-01-25 17:31:50 +0000";
layers = (
{
anchors = (
{
name = bottom;
pos = (969,0);
},
{
name = center;
pos = (969,929);
},
{
name = top;
pos = (969,1859);
}
);
layerId = m01;
shapes = (
{
closed = 1;
nodes = (
(864,0,l),
(1074,0,l),
(1074,1587,l),
(1875,1587,l),
(1875,1792,l),
(60,1792,l),
(60,1587,l),
(957,1587,l),
(957,1567,l),
(928,1567,o),
(864,1517,o),
(864,1436,cs)
);
}
);
width = 1935;
},
{
anchors = (
{
name = bottom;
pos = (1532,0);
},
{
name = center;
pos = (1532,929);
},
{
name = top;
pos = (1532,1859);
}
);
layerId = m004;
shapes = (
{
closed = 1;
nodes = (
(1427,0,l),
(1637,0,l),
(1637,1587,l),
(3002,1587,l),
(3002,1792,l),
(60,1792,l),
(60,1587,l),
(1520,1587,l),
(1520,1567,l),
(1491,1567,o),
(1427,1517,o),
(1427,1436,cs)
);
}
);
width = 3062;
},
{
anchors = (
{
name = bottom;
pos = (969,0);
},
{
name = center;
pos = (969,929);
},
{
name = top;
pos = (969,1859);
}
);
layerId = m003;
shapes = (
{
closed = 1;
nodes = (
(864,0,l),
(1074,0,l),
(1074,1587,l),
(1875,1587,l),
(1875,1792,l),
(60,1792,l),
(60,1587,l),
(957,1587,l),
(957,1461,l),
(928,1461,o),
(864,1387,o),
(864,1280,cs)
);
}
);
width = 1935;
},
{
anchors = (
{
name = bottom;
pos = (1532,0);
},
{
name = center;
pos = (1532,929);
},
{
name = top;
pos = (1532,1859);
}
);
layerId = m005;
shapes = (
{
closed = 1;
nodes = (
(1427,0,l),
(1637,0,l),
(1637,1587,l),
(3002,1587,l),
(3002,1792,l),
(60,1792,l),
(60,1587,l),
(1520,1587,l),
(1520,1461,l),
(1491,1461,o),
(1427,1387,o),
(1427,1280,cs)
);
}
);
width = 3062;
}
);
metricLeft = V;
metricRight = V;
unicode = 84;
},
{
glyphname = U;
kernLeft = H;
kernRight = H;
lastChange = "2025-01-25 17:31:50 +0000";
layers = (
{
anchors = (
{
name = bottom;
pos = (1119,0);
},
{
name = ogonek;
pos = (1362,26);
},
{
name = top;
pos = (1119,1859);
},
{
name = topright;
pos = (2161,1859);
}
);
layerId = m01;
shapes = (
{
closed = 1;
nodes = (
(1362,0,ls),
(1798,0,o),
(2059,212,o),
(2059,640,cs),
(2059,1792,l),
(1849,1792,l),
(1849,640,ls),
(1849,346,o),
(1695,205,o),
(1362,205,cs),
(876,205,ls),
(543,205,o),
(390,346,o),
(390,640,cs),
(390,1792,l),
(180,1792,l),
(180,640,ls),
(180,212,o),
(441,0,o),
(876,0,cs)
);
}
);
width = 2239;
},
{
anchors = (
{
name = bottom;
pos = (1682,0);
},
{
name = ogonek;
pos = (2489,26);
},
{
name = top;
pos = (1682,1859);
},
{
name = topright;
pos = (3287,1859);
}
);
layerId = m004;
shapes = (
{
closed = 1;
nodes = (
(2489,0,ls),
(2924,0,o),
(3185,212,o),
(3185,640,cs),
(3185,1792,l),
(2975,1792,l),
(2975,640,ls),
(2975,346,o),
(2822,205,o),
(2489,205,cs),
(876,205,ls),
(543,205,o),
(390,346,o),
(390,640,cs),
(390,1792,l),
(180,1792,l),
(180,640,ls),
(180,212,o),
(441,0,o),
(876,0,cs)
);
}
);
width = 3365;
},
{
anchors = (
{
name = bottom;
pos = (1119,0);
},
{
name = ogonek;
pos = (1362,26);
},
{
name = top;
pos = (1119,1859);
},
{
name = topright;
pos = (2161,1859);
}
);
layerId = m003;
shapes = (
{
closed = 1;
nodes = (
(1362,0,ls),
(1798,0,o),
(2059,212,o),
(2059,640,cs),
(2059,1792,l),
(1849,1792,l),
(1849,640,ls),
(1849,346,o),
(1695,205,o),
(1362,205,cs),
(876,205,ls),
(543,205,o),
(390,346,o),
(390,640,cs),
(390,1792,l),
(180,1792,l),
(180,640,ls),
(180,212,o),
(441,0,o),
(876,0,cs)
);
}
);
width = 2239;
},
{
anchors = (
{
name = bottom;
pos = (1682,0);
},
{
name = ogonek;
pos = (2489,26);
},
{
name = top;
pos = (1682,1859);
},
{
name = topright;
pos = (3287,1859);
}
);
layerId = m005;
shapes = (
{
closed = 1;
nodes = (
(2489,0,ls),
(2924,0,o),
(3185,212,o),
(3185,640,cs),
(3185,1792,l),
(2975,1792,l),
(2975,640,ls),
(2975,346,o),
(2822,205,o),
(2489,205,cs),
(876,205,ls),
(543,205,o),
(390,346,o),
(390,640,cs),
(390,1792,l),
(180,1792,l),
(180,640,ls),
(180,212,o),
(441,0,o),
(876,0,cs)
);
}
);
width = 3365;
}
);
metricLeft = H;
metricRight = H;
unicode = 85;
},
{
glyphname = V;
kernLeft = V;
kernRight = V;
lastChange = "2025-01-25 17:31:50 +0000";
layers = (
{
anchors = (
{
name = bottom;
pos = (1192,0);
},
{
name = top;
pos = (1192,1859);
}
);
guides = (
{
angle = 240.2551;
pos = (712,350);
}
);
layerId = m01;
shapes = (
{
closed = 1;
nodes = (
(1292,0,l),
(2321,1792,l),
(2077,1792,l),
(1264,355,ls),
(1227,288,o),
(1197,216,o),
(1197,198,c),
(1177,198,l),
(1177,216,o),
(1147,288,o),
(1110,355,cs),
(301,1792,l),
(60,1792,l),
(1082,0,l)
);
}
);
width = 2381;
},
{
anchors = (
{
name = bottom;
pos = (1499,0);
},
{
name = top;
pos = (1499,1859);
}
);
guides = (
{
angle = 227.5638;
pos = (952,350);
}
);
layerId = m004;
shapes = (
{
closed = 1;
nodes = (
(1601,0,l),
(2935,1792,l),
(2674,1792,l),
(1589,319,ls),
(1544,257,o),
(1506,190,o),
(1506,172,c),
(1486,172,l),
(1486,190,o),
(1448,257,o),
(1403,319,cs),
(321,1792,l),
(60,1792,l),
(1391,0,l)
);
}
);
width = 2995;
},
{
anchors = (
{
name = bottom;
pos = (1192,0);
},
{
name = top;
pos = (1192,1859);
}
);
guides = (
{
angle = 240.2551;
pos = (712,350);
}
);
layerId = m003;
shapes = (
{
closed = 1;
nodes = (
(1292,0,l),
(2321,1792,l),
(2077,1792,l),
(1279,380,ls),
(1243,317,o),
(1237,226,o),
(1237,198,c),
(1137,198,l),
(1137,226,o),
(1131,317,o),
(1096,380,cs),
(301,1792,l),
(60,1792,l),
(1082,0,l)
);
}
);
width = 2381;
},
{
anchors = (
{
name = bottom;
pos = (1499,0);
},
{
name = top;
pos = (1499,1859);
}
);
guides = (
{
angle = 227.5638;
pos = (1072,350);
}
);
layerId = m005;
shapes = (
{
closed = 1;
nodes = (
(1601,0,l),
(2935,1792,l),
(2674,1792,l),
(1607,342,ls),
(1564,284,o),
(1546,200,o),
(1546,172,c),
(1446,172,l),
(1446,200,o),
(1429,284,o),
(1386,342,cs),
(321,1792,l),
(60,1792,l),
(1391,0,l)
);
}
);
width = 2995;
}
);
unicode = 86;
},
{
glyphname = W;
kernLeft = V;
kernRight = V;
lastChange = "2025-01-25 17:31:50 +0000";
layers = (
{
anchors = (
{
name = bottom;
pos = (1714,0);
},
{
name = top;
pos = (1714,1859);
}
);
layerId = m01;
shapes = (
{
closed = 1;
nodes = (
(1136,0,l),
(1655,1356,ls),
(1682,1428,o),
(1701,1505,o),
(1701,1523,c),
(1721,1523,l),
(1721,1505,o),
(1740,1428,o),
(1768,1356,cs),
(2298,0,l),
(2508,0,l),
(3368,1792,l),
(3136,1792,l),
(2483,403,ls),
(2450,334,o),
(2426,259,o),
(2425,241,c),
(2405,241,l),
(2406,259,o),
(2387,336,o),
(2359,408,cs),
(1817,1792,l),
(1607,1792,l),
(1079,404,ls),
(1052,333,o),
(1033,255,o),
(1034,237,c),
(1014,237,l),
(1013,255,o),
(988,330,o),
(955,399,cs),
(293,1792,l),
(60,1792,l),
(926,0,l)
);
}
);
width = 3428;
},
{
anchors = (
{
name = bottom;
pos = (1969,0);
},
{
name = top;
pos = (1969,1859);
}
);
layerId = m004;
shapes = (
{
closed = 1;
nodes = (
(1288,0,l),
(1910,1395,ls),
(1941,1465,o),
(1964,1541,o),
(1964,1559,c),
(1984,1559,l),
(1984,1541,o),
(2006,1465,o),
(2037,1395,cs),
(2649,0,l),
(2859,0,l),
(3877,1792,l),
(3644,1792,l),
(2840,371,ls),
(2803,304,o),
(2773,231,o),
(2772,214,c),
(2752,215,l),
(2753,233,o),
(2731,308,o),
(2700,378,cs),
(2079,1792,l),
(1869,1792,l),
(1239,378,ls),
(1208,308,o),
(1185,232,o),
(1186,215,c),
(1166,214,l),
(1165,232,o),
(1135,304,o),
(1097,371,cs),
(293,1792,l),
(60,1792,l),
(1078,0,l)
);
}
);
width = 3937;
},
{
anchors = (
{
name = bottom;
pos = (1714,0);
},
{
name = top;
pos = (1714,1859);
}
);
layerId = m003;
shapes = (
{
closed = 1;
nodes = (
(1136,0,l),
(1606,1228,ls),
(1647,1335,o),
(1661,1488,o),
(1661,1539,c),
(1761,1539,l),
(1761,1489,o),
(1776,1335,o),
(1818,1229,cs),
(2298,0,l),
(2508,0,l),
(3368,1792,l),
(3136,1792,l),
(2541,527,ls),
(2493,424,o),
(2466,274,o),
(2465,223,c),
(2365,227,l),
(2367,277,o),
(2351,429,o),
(2309,535,cs),
(1817,1792,l),
(1607,1792,l),
(1128,532,ls),
(1087,425,o),
(1072,273,o),
(1074,223,c),
(974,219,l),
(972,269,o),
(946,420,o),
(897,523,cs),
(293,1792,l),
(60,1792,l),
(926,0,l)
);
}
);
width = 3428;
},
{
anchors = (
{
name = bottom;
pos = (1969,0);
},
{
name = top;
pos = (1969,1859);
}
);
layerId = m005;
shapes = (
{
closed = 1;
nodes = (
(1288,0,l),
(1854,1270,ls),
(1901,1375,o),
(1924,1525,o),
(1924,1575,c),
(2024,1575,l),
(2024,1524,o),
(2046,1374,o),
(2092,1270,cs),
(2649,0,l),
(2859,0,l),
(3877,1792,l),
(3644,1792,l),
(2908,490,ls),
(2852,391,o),
(2814,246,o),
(2811,196,c),
(2711,201,l),
(2714,251,o),
(2691,399,o),
(2645,503,cs),
(2079,1792,l),
(1869,1792,l),
(1295,503,ls),
(1248,398,o),
(1224,251,o),
(1227,200,c),
(1127,196,l),
(1124,246,o),
(1086,391,o),
(1030,490,cs),
(293,1792,l),
(60,1792,l),
(1078,0,l)
);
}
);
width = 3937;
},
{
anchors = (
{
name = bottom;
pos = (1909,0);
},
{
name = top;
pos = (1909,1859);
}
);
associatedMasterId = m005;
hints = (
{
name = _corner.narmid;
options = 2;
origin = (0,1,0,3);
stem = 1000;
type = Corner;
},
{
name = _corner.narmid;
options = 2;
origin = (0,7,0,9);
stem = 1000;
type = Corner;
},
{
name = _corner.narmid;
options = 2;
origin = (0,11,0,13);
stem = 1000;
type = Corner;
}
);
layerId = "797AEE04-979E-4F19-A179-251C63461446";
name = "20. 1. 25 at 12:28 PM";
shapes = (
{
closed = 1;
nodes = (
(1128,0,l),
(1973,1672,l),
(1855,1672,l),
(2689,0,l),
(2899,0,l),
(3757,1792,l),
(3524,1792,l),
(2738,120,l),
(2853,120,l),
(2019,1792,l),
(1809,1792,l),
(964,120,l),
(1079,120,l),
(293,1792,l),
(60,1792,l),
(918,0,l)
);
}
);
width = 3817;
}
);
metricLeft = V;
metricRight = V;
unicode = 87;
},
{
glyphname = X;
kernLeft = V;
kernRight = V;
lastChange = "2025-01-25 17:31:50 +0000";
layers = (
{
anchors = (
{
name = bottom;
pos = (1051,0);
},
{
name = top;
pos = (1051,1859);
}
);
layerId = m01;
shapes = (
{
closed = 1;
nodes = (
(352,0,l),
(941,630,ls),
(994,686,o),
(1039,747,o),
(1039,765,c),
(1059,765,l),
(1059,747,o),
(1104,686,o),
(1157,631,cs),
(1753,0,l),
(2042,0,l),
(1193,899,l),
(2042,1792,l),
(1750,1792,l),
(1161,1163,ls),
(1108,1107,o),
(1063,1046,o),
(1063,1028,c),
(1043,1028,l),
(1043,1046,o),
(998,1107,o),
(945,1162,cs),
(350,1792,l),
(60,1792,l),
(908,894,l),
(60,0,l)
);
}
);
width = 2102;
},
{
anchors = (
{
name = bottom;
pos = (1614,0);
},
{
name = top;
pos = (1614,1859);
}
);
guides = (
{
angle = 270;
pos = (1212,167);
},
{
angle = 270;
pos = (-2,167);
}
);
layerId = m004;
shapes = (
{
closed = 1;
nodes = (
(442,0,l),
(1477,687,ls),
(1541,729,o),
(1598,776,o),
(1598,794,c),
(1618,794,l),
(1618,776,o),
(1675,730,o),
(1740,687,cs),
(2784,0,l),
(3168,0,l),
(1807,895,l),
(3168,1792,l),
(2789,1792,l),
(1752,1105,ls),
(1688,1063,o),
(1631,1016,o),
(1631,998,c),
(1611,998,l),
(1611,1016,o),
(1554,1062,o),
(1489,1105,cs),
(444,1792,l),
(60,1792,l),
(1421,897,l),
(60,0,l)
);
}
);
width = 3228;
},
{
anchors = (
{
name = bottom;
pos = (1051,0);
},
{
name = top;
pos = (1051,1859);
}
);
layerId = m003;
shapes = (
{
closed = 1;
nodes = (
(352,0,l),
(922,609,ls),
(971,662,o),
(999,737,o),
(999,765,c),
(1099,765,l),
(1099,737,o),
(1127,662,o),
(1177,609,cs),
(1753,0,l),
(2042,0,l),
(1193,899,l),
(2042,1792,l),
(1750,1792,l),
(1180,1184,ls),
(1131,1131,o),
(1103,1056,o),
(1103,1028,c),
(1003,1028,l),
(1003,1056,o),
(975,1131,o),
(925,1184,cs),
(350,1792,l),
(60,1792,l),
(908,894,l),
(60,0,l)
);
}
);
width = 2102;
},
{
anchors = (
{
name = bottom;
pos = (1614,0);
},
{
name = top;
pos = (1614,1859);
}
);
guides = (
{
angle = 270;
pos = (1212,167);
},
{
angle = 270;
pos = (-2,167);
}
);
layerId = m005;
shapes = (
{
closed = 1;
nodes = (
(442,0,l),
(1453,671,ls),
(1513,711,o),
(1558,766,o),
(1558,794,c),
(1658,794,l),
(1658,766,o),
(1703,711,o),
(1764,671,cs),
(2784,0,l),
(3168,0,l),
(1807,895,l),
(3168,1792,l),
(2789,1792,l),
(1776,1121,ls),
(1716,1081,o),
(1671,1026,o),
(1671,998,c),
(1571,998,l),
(1571,1026,o),
(1526,1081,o),
(1465,1120,cs),
(444,1792,l),
(60,1792,l),
(1421,897,l),
(60,0,l)
);
}
);
width = 3228;
}
);
metricLeft = V;
metricRight = V;
unicode = 88;
},
{
glyphname = Y;
kernLeft = V;
kernRight = V;
lastChange = "2025-01-25 17:31:50 +0000";
layers = (
{
anchors = (
{
name = bottom;
pos = (1013,0);
},
{
name = top;
pos = (1013,1859);
},
{
name = topleft;
pos = (60,1859);
}
);
layerId = m01;
shapes = (
{
closed = 1;
nodes = (
(1117,0,l),
(1117,824,l),
(1962,1792,l),
(1683,1792,l),
(1114,1128,ls),
(1064,1069,o),
(1022,1006,o),
(1022,988,c),
(1002,988,l),
(1002,1006,o),
(959,1069,o),
(909,1127,cs),
(339,1792,l),
(60,1792,l),
(908,824,l),
(908,0,l)
);
}
);
width = 2022;
},
{
anchors = (
{
name = bottom;
pos = (1371,0);
},
{
name = top;
pos = (1371,1859);
},
{
name = topleft;
pos = (60,1859);
}
);
layerId = m004;
shapes = (
{
closed = 1;
nodes = (
(1476,0,l),
(1476,791,l),
(2679,1792,l),
(2349,1792,l),
(1491,1065,ls),
(1433,1015,o),
(1381,961,o),
(1381,943,c),
(1361,943,l),
(1361,961,o),
(1309,1015,o),
(1251,1065,cs),
(390,1792,l),
(60,1792,l),
(1266,791,l),
(1266,0,l)
);
}
);
width = 2739;
},
{
anchors = (
{
name = bottom;
pos = (1013,0);
},
{
name = top;
pos = (1013,1859);
},
{
name = topleft;
pos = (60,1859);
}
);
layerId = m003;
shapes = (
{
closed = 1;
nodes = (
(1117,0,l),
(1117,824,l),
(1962,1792,l),
(1683,1792,l),
(1133,1150,ls),
(1086,1095,o),
(1062,1016,o),
(1062,988,c),
(962,988,l),
(962,1016,o),
(938,1095,o),
(891,1149,cs),
(339,1792,l),
(60,1792,l),
(908,824,l),
(908,0,l)
);
}
);
width = 2022;
},
{
anchors = (
{
name = bottom;
pos = (1371,0);
},
{
name = top;
pos = (1371,1859);
},
{
name = topleft;
pos = (60,1859);
}
);
layerId = m005;
shapes = (
{
closed = 1;
nodes = (
(1476,0,l),
(1476,791,l),
(2679,1792,l),
(2349,1792,l),
(1513,1084,ls),
(1458,1037,o),
(1421,971,o),
(1421,943,c),
(1321,943,l),
(1321,971,o),
(1284,1037,o),
(1229,1083,cs),
(390,1792,l),
(60,1792,l),
(1266,791,l),
(1266,0,l)
);
}
);
width = 2739;
}
);
metricLeft = V;
metricRight = V;
unicode = 89;
},
{
glyphname = Z;
kernLeft = O;
kernRight = O;
lastChange = "2025-01-25 17:31:50 +0000";
layers = (
{
anchors = (
{
name = bottom;
pos = (917,0);
},
{
name = center;
pos = (917,929);
},
{
name = top;
pos = (917,1859);
}
);
layerId = m01;
shapes = (
{
closed = 1;
nodes = (
(1700,0,l),
(1700,205,l),
(587,205,ls),
(507,205,o),
(411,173,o),
(368,144,c),
(349,162,l),
(1752,1608,l),
(1752,1792,l),
(131,1792,l),
(131,1587,l),
(1245,1587,ls),
(1325,1587,o),
(1421,1619,o),
(1464,1648,c),
(1483,1630,l),
(80,184,l),
(80,0,l)
);
}
);
width = 1832;
},
{
anchors = (
{
name = bottom;
pos = (1480,0);
},
{
name = center;
pos = (1480,929);
},
{
name = top;
pos = (1480,1859);
}
);
layerId = m004;
shapes = (
{
closed = 1;
nodes = (
(2827,0,l),
(2827,205,l),
(718,205,ls),
(638,205,o),
(533,169,o),
(484,152,c),
(470,174,l),
(2878,1608,l),
(2878,1792,l),
(131,1792,l),
(131,1587,l),
(2240,1587,ls),
(2320,1587,o),
(2425,1623,o),
(2474,1640,c),
(2488,1618,l),
(80,184,l),
(80,0,l)
);
}
);
width = 2958;
},
{
anchors = (
{
name = bottom;
pos = (917,0);
},
{
name = center;
pos = (917,929);
},
{
name = top;
pos = (917,1859);
}
);
layerId = m003;
shapes = (
{
closed = 1;
nodes = (
(1700,0,l),
(1700,205,l),
(671,205,ls),
(539,204,o),
(449,117,o),
(417,92,c),
(345,161,l),
(1752,1608,l),
(1752,1792,l),
(131,1792,l),
(131,1587,l),
(1158,1587,ls),
(1290,1588,o),
(1380,1675,o),
(1412,1700,c),
(1483,1631,l),
(80,184,l),
(80,0,l)
);
}
);
width = 1832;
},
{
anchors = (
{
name = bottom;
pos = (1480,0);
},
{
name = center;
pos = (1480,929);
},
{
name = top;
pos = (1480,1859);
}
);
layerId = m005;
shapes = (
{
closed = 1;
nodes = (
(2827,0,l),
(2827,205,l),
(805,205,ls),
(673,204,o),
(558,104,o),
(521,88,c),
(470,174,l),
(2878,1608,l),
(2878,1792,l),
(131,1792,l),
(131,1587,l),
(2153,1587,ls),
(2285,1588,o),
(2400,1688,o),
(2437,1704,c),
(2488,1618,l),
(80,184,l),
(80,0,l)
);
}
);
width = 2958;
}
);
metricLeft = "=O-40";
metricRight = "=O-40";
unicode = 90;
},
{
glyphname = a;
kernLeft = o;
kernRight = n;
lastChange = "2025-01-25 17:31:50 +0000";
layers = (
{
anchors = (
{
name = bottom;
pos = (1419,0);
},
{
name = ogonek;
pos = (2683,26);
},
{
name = top;
pos = (1419,1280);
}
);
guides = (
{
angle = 90;
pos = (38,153);
}
);
layerId = m004;
shapes = (
{
closed = 1;
nodes = (
(2123,0,ls),
(2252,0,o),
(2366,28,o),
(2459,124,c),
(2479,124,l),
(2479,0,l),
(2683,0,l),
(2683,806,ls),
(2683,1083,o),
(2463,1280,o),
(2123,1280,cs),
(203,1280,l),
(203,1080,l),
(2123,1080,ls),
(2371,1080,o),
(2479,960,o),
(2479,806,cs),
(2479,781,l),
(566,781,ls),
(308,781,o),
(100,653,o),
(100,392,cs),
(100,131,o),
(308,0,o),
(559,0,cs)
);
},
{
closed = 1;
nodes = (
(546,200,ls),
(400,200,o),
(305,271,o),
(305,392,cs),
(305,512,o),
(400,581,o),
(556,581,cs),
(2479,581,l),
(2479,499,ls),
(2479,320,o),
(2371,200,o),
(2123,200,cs)
);
}
);
width = 2843;
},
{
anchors = (
{
name = bottom;
pos = (848,0);
},
{
name = ogonek;
pos = (1542,26);
},
{
name = top;
pos = (848,1280);
}
);
guides = (
{
angle = 270;
pos = (38,389);
}
);
layerId = m01;
name = "Regular Semi Expaned";
shapes = (
{
closed = 1;
nodes = (
(981,0,ls),
(1110,0,o),
(1224,28,o),
(1317,124,c),
(1337,124,l),
(1337,0,l),
(1542,0,l),
(1542,806,ls),
(1542,1083,o),
(1322,1280,o),
(981,1280,cs),
(177,1280,l),
(177,1080,l),
(981,1080,ls),
(1229,1080,o),
(1337,960,o),
(1337,806,cs),
(1337,781,l),
(566,781,ls),
(308,781,o),
(100,653,o),
(100,392,cs),
(100,131,o),
(308,0,o),
(559,0,cs)
);
},
{
closed = 1;
nodes = (
(546,200,ls),
(400,200,o),
(305,271,o),
(305,392,cs),
(305,512,o),
(400,581,o),
(556,581,cs),
(1337,581,l),
(1337,499,ls),
(1337,320,o),
(1229,200,o),
(981,200,cs)
);
}
);
width = 1702;
},
{
anchors = (
{
name = bottom;
pos = (848,0);
},
{
name = ogonek;
pos = (1542,26);
},
{
name = top;
pos = (848,1280);
}
);
guides = (
{
angle = 270;
pos = (38,389);
}
);
layerId = m003;
name = "Regular Semi Expaned";
shapes = (
{
closed = 1;
nodes = (
(981,0,ls),
(1075,0,o),
(1160,15,o),
(1237,174,c),
(1337,174,l),
(1337,0,l),
(1542,0,l),
(1542,806,ls),
(1542,1083,o),
(1322,1280,o),
(981,1280,cs),
(177,1280,l),
(177,1080,l),
(981,1080,ls),
(1229,1080,o),
(1337,960,o),
(1337,806,cs),
(1337,781,l),
(566,781,ls),
(308,781,o),
(100,653,o),
(100,392,cs),
(100,131,o),
(308,0,o),
(559,0,cs)
);
},
{
closed = 1;
nodes = (
(546,200,ls),
(400,200,o),
(305,271,o),
(305,392,cs),
(305,512,o),
(400,581,o),
(556,581,cs),
(1337,581,l),
(1337,499,ls),
(1337,320,o),
(1229,200,o),
(981,200,cs)
);
}
);
width = 1702;
},
{
anchors = (
{
name = bottom;
pos = (1419,0);
},
{
name = ogonek;
pos = (2683,26);
},
{
name = top;
pos = (1419,1280);
}
);
guides = (
{
angle = 90;
pos = (38,153);
}
);
layerId = m005;
shapes = (
{
closed = 1;
nodes = (
(2123,0,ls),
(2217,0,o),
(2302,15,o),
(2379,175,c),
(2479,175,l),
(2479,0,l),
(2683,0,l),
(2683,806,ls),
(2683,1083,o),
(2463,1280,o),
(2123,1280,cs),
(203,1280,l),
(203,1080,l),
(2123,1080,ls),
(2371,1080,o),
(2479,960,o),
(2479,806,cs),
(2479,781,l),
(566,781,ls),
(308,781,o),
(100,653,o),
(100,392,cs),
(100,131,o),
(308,0,o),
(559,0,cs)
);
},
{
closed = 1;
nodes = (
(546,200,ls),
(400,200,o),
(305,271,o),
(305,392,cs),
(305,512,o),
(400,581,o),
(556,581,cs),
(2479,581,l),
(2479,499,ls),
(2479,320,o),
(2371,200,o),
(2123,200,cs)
);
}
);
width = 2843;
},
{
anchors = (
{
name = bottom;
pos = (850,0);
},
{
name = ogonek;
pos = (1544,26);
},
{
name = top;
pos = (850,1280);
}
);
associatedMasterId = m003;
guides = (
{
angle = 270;
pos = (40,389);
}
);
hints = (
{
name = _corner.inter;
origin = (0,11,1,3);
stem = 1000;
type = Corner;
}
);
layerId = "E52E70C3-1851-4DC1-9FA0-FAFC13FE7083";
name = "29. 12. 24 at 12:27 PM";
shapes = (
{
closed = 1;
nodes = (
(1544,0,l),
(1544,806,l),
(1544,1083,o),
(1324,1280,o),
(983,1280,c),
(179,1280,l),
(179,1080,l),
(983,1080,l),
(1231,1080,o),
(1339,960,o),
(1339,806,c),
(1339,0,l)
);
},
{
closed = 1;
nodes = (
(983,0,ls),
(1324,0,o),
(1544,197,o),
(1544,499,c),
(1339,499,l),
(1339,320,o),
(1231,200,o),
(983,200,cs),
(548,200,ls),
(402,200,o),
(307,271,o),
(307,392,cs),
(307,512,o),
(402,581,o),
(558,581,cs),
(1416,581,l),
(1416,781,l),
(568,781,ls),
(310,781,o),
(102,653,o),
(102,392,cs),
(102,131,o),
(310,0,o),
(561,0,cs)
);
}
);
width = 1697;
},
{
anchors = (
{
name = bottom;
pos = (1421,0);
},
{
name = ogonek;
pos = (2685,26);
},
{
name = top;
pos = (1421,1280);
}
);
associatedMasterId = m005;
guides = (
{
angle = 90;
pos = (40,153);
}
);
hints = (
{
name = _corner.inter;
origin = (0,11,1,3);
stem = 1000;
type = Corner;
}
);
layerId = "3D3FF2D1-61CE-47CB-B68A-5D8DDC994495";
name = "29. 12. 24 at 12:27 PM";
shapes = (
{
closed = 1;
nodes = (
(2685,0,l),
(2685,806,l),
(2685,1083,o),
(2465,1280,o),
(2125,1280,c),
(205,1280,l),
(205,1080,l),
(2125,1080,l),
(2373,1080,o),
(2481,960,o),
(2481,806,c),
(2481,0,l)
);
},
{
closed = 1;
nodes = (
(2125,0,ls),
(2465,0,o),
(2685,197,o),
(2685,499,c),
(2481,499,l),
(2481,320,o),
(2373,200,o),
(2125,200,cs),
(548,200,ls),
(402,200,o),
(307,271,o),
(307,392,cs),
(307,512,o),
(402,581,o),
(558,581,cs),
(2557,581,l),
(2557,781,l),
(568,781,ls),
(310,781,o),
(102,653,o),
(102,392,cs),
(102,131,o),
(310,0,o),
(561,0,cs)
);
}
);
width = 2839;
},
{
anchors = (
{
name = bottom;
pos = (1421,0);
},
{
name = ogonek;
pos = (2685,26);
},
{
name = top;
pos = (1421,1280);
}
);
associatedMasterId = m004;
guides = (
{
angle = 90;
pos = (40,153);
}
);
hints = (
{
name = _corner.inter;
origin = (0,11,1,3);
stem = 1000;
type = Corner;
}
);
layerId = "CDD576E9-A5DC-4F96-9475-19F54F9C1892";
name = "29. 12. 24 at 12:28 PM";
shapes = (
{
closed = 1;
nodes = (
(2685,0,l),
(2685,806,l),
(2685,1083,o),
(2465,1280,o),
(2125,1280,c),
(205,1280,l),
(205,1080,l),
(2125,1080,l),
(2373,1080,o),
(2481,960,o),
(2481,806,c),
(2481,0,l)
);
},
{
closed = 1;
nodes = (
(2125,0,ls),
(2465,0,o),
(2685,197,o),
(2685,499,c),
(2481,499,l),
(2481,320,o),
(2373,200,o),
(2125,200,cs),
(548,200,ls),
(402,200,o),
(307,271,o),
(307,392,cs),
(307,512,o),
(402,581,o),
(558,581,cs),
(2557,581,l),
(2557,781,l),
(568,781,ls),
(310,781,o),
(102,653,o),
(102,392,cs),
(102,131,o),
(310,0,o),
(561,0,cs)
);
}
);
width = 2839;
},
{
anchors = (
{
name = bottom;
pos = (850,0);
},
{
name = ogonek;
pos = (1544,26);
},
{
name = top;
pos = (850,1280);
}
);
associatedMasterId = m01;
guides = (
{
angle = 270;
pos = (40,389);
}
);
hints = (
{
name = _corner.inter;
origin = (0,11,1,3);
stem = 1000;
type = Corner;
}
);
layerId = "B92603B4-74E8-42A9-AAA9-DB69FC787678";
name = "29. 12. 24 at 12:28 PM";
shapes = (
{
closed = 1;
nodes = (
(1544,0,l),
(1544,806,l),
(1544,1083,o),
(1324,1280,o),
(983,1280,c),
(179,1280,l),
(179,1080,l),
(983,1080,l),
(1231,1080,o),
(1339,960,o),
(1339,806,c),
(1339,0,l)
);
},
{
closed = 1;
nodes = (
(983,0,l),
(1324,0,o),
(1544,197,o),
(1544,499,c),
(1339,499,l),
(1339,320,o),
(1231,200,o),
(983,200,c),
(548,200,l),
(402,200,o),
(307,271,o),
(307,392,cs),
(307,512,o),
(402,581,o),
(558,581,c),
(1416,581,l),
(1416,781,l),
(568,781,l),
(310,781,o),
(102,653,o),
(102,392,cs),
(102,131,o),
(310,0,o),
(561,0,c)
);
}
);
width = 1697;
}
);
metricLeft = o;
metricRight = n;
unicode = 97;
},
{
glyphname = ae;
kernLeft = o;
kernRight = o;
lastChange = "2025-01-25 17:31:50 +0000";
layers = (
{
layerId = m01;
shapes = (
{
closed = 1;
nodes = (
(981,0,ls),
(1179,0,o),
(1335,66,o),
(1429,187,c),
(1449,187,l),
(1544,66,o),
(1699,0,o),
(1898,0,cs),
(2883,0,l),
(2883,200,l),
(1898,200,ls),
(1649,200,o),
(1542,320,o),
(1542,499,cs),
(1542,581,l),
(2965,581,l),
(2965,640,ls),
(2965,1068,o),
(2704,1280,o),
(2294,1280,cs),
(1898,1280,ls),
(1700,1280,o),
(1544,1214,o),
(1449,1098,c),
(1429,1098,l),
(1335,1214,o),
(1178,1280,o),
(981,1280,cs),
(177,1280,l),
(177,1080,l),
(981,1080,ls),
(1229,1080,o),
(1337,960,o),
(1337,806,cs),
(1337,781,l),
(566,781,ls),
(308,781,o),
(100,653,o),
(100,392,cs),
(100,131,o),
(308,0,o),
(559,0,cs)
);
},
{
closed = 1;
nodes = (
(546,200,ls),
(400,200,o),
(305,271,o),
(305,392,cs),
(305,512,o),
(400,581,o),
(556,581,cs),
(1337,581,l),
(1337,499,ls),
(1337,320,o),
(1229,200,o),
(981,200,cs)
);
},
{
closed = 1;
nodes = (
(1542,781,l),
(1542,806,ls),
(1542,960,o),
(1649,1080,o),
(1898,1080,cs),
(2294,1080,ls),
(2548,1080,o),
(2701,980,o),
(2745,781,c)
);
}
);
width = 3065;
},
{
layerId = m004;
shapes = (
{
closed = 1;
nodes = (
(1816,0,ls),
(2014,0,o),
(2170,66,o),
(2264,188,c),
(2284,188,l),
(2378,66,o),
(2534,0,o),
(2732,0,cs),
(4534,0,l),
(4534,200,l),
(2732,200,ls),
(2484,200,o),
(2376,320,o),
(2376,499,cs),
(2376,581,l),
(4586,581,l),
(4586,640,ls),
(4586,1068,o),
(4324,1280,o),
(3915,1280,cs),
(2732,1280,ls),
(2535,1280,o),
(2378,1214,o),
(2284,1098,c),
(2264,1098,l),
(2170,1214,o),
(2013,1280,o),
(1816,1280,cs),
(203,1280,l),
(203,1080,l),
(1816,1080,ls),
(2064,1080,o),
(2171,960,o),
(2171,806,cs),
(2171,781,l),
(566,781,ls),
(308,781,o),
(100,653,o),
(100,392,cs),
(100,131,o),
(308,0,o),
(559,0,cs)
);
},
{
closed = 1;
nodes = (
(546,200,ls),
(400,200,o),
(305,271,o),
(305,392,cs),
(305,512,o),
(400,581,o),
(556,581,cs),
(2171,581,l),
(2171,499,ls),
(2171,320,o),
(2064,200,o),
(1816,200,cs)
);
},
{
closed = 1;
nodes = (
(2376,781,l),
(2376,806,ls),
(2376,960,o),
(2484,1080,o),
(2732,1080,cs),
(3915,1080,ls),
(4168,1080,o),
(4322,980,o),
(4365,781,c)
);
}
);
width = 4686;
},
{
layerId = m003;
shapes = (
{
closed = 1;
nodes = (
(981,0,ls),
(1161,0,o),
(1307,55,o),
(1389,183,c),
(1489,182,l),
(1572,55,o),
(1717,0,o),
(1898,0,cs),
(2883,0,l),
(2883,200,l),
(1898,200,ls),
(1649,200,o),
(1542,320,o),
(1542,499,cs),
(1542,581,l),
(2965,581,l),
(2965,640,ls),
(2965,1068,o),
(2704,1280,o),
(2294,1280,cs),
(1898,1280,ls),
(1717,1280,o),
(1572,1225,o),
(1489,1102,c),
(1389,1103,l),
(1306,1225,o),
(1161,1280,o),
(981,1280,cs),
(177,1280,l),
(177,1080,l),
(981,1080,ls),
(1229,1080,o),
(1337,960,o),
(1337,806,cs),
(1337,781,l),
(566,781,ls),
(308,781,o),
(100,653,o),
(100,392,cs),
(100,131,o),
(308,0,o),
(559,0,cs)
);
},
{
closed = 1;
nodes = (
(546,200,ls),
(400,200,o),
(305,271,o),
(305,392,cs),
(305,512,o),
(400,581,o),
(556,581,cs),
(1337,581,l),
(1337,499,ls),
(1337,320,o),
(1229,200,o),
(981,200,cs)
);
},
{
closed = 1;
nodes = (
(1542,781,l),
(1542,806,ls),
(1542,960,o),
(1649,1080,o),
(1898,1080,cs),
(2294,1080,ls),
(2548,1080,o),
(2701,980,o),
(2745,781,c)
);
}
);
width = 3065;
},
{
associatedMasterId = m005;
hints = (
{
name = _corner.vermid;
options = 2;
origin = (1,21);
type = Corner;
},
{
name = _corner.vermid;
options = 2;
origin = (1,3);
type = Corner;
}
);
layerId = "71466043-4BF4-46D9-8951-ADCC09D9BE26";
name = "17. 10. 24 at 7:19 PM";
shapes = (
{
closed = 1;
nodes = (
(2481,320,o),
(2373,200,o),
(2125,200,cs),
(548,200,ls),
(402,200,o),
(307,271,o),
(307,392,cs),
(307,512,o),
(402,581,o),
(558,581,cs),
(2481,581,l),
(2481,499,ls)
);
},
{
closed = 1;
nodes = (
(2125,0,ls),
(2342,0,o),
(2511,82,o),
(2606,218,c),
(2721,72,o),
(2908,0,o),
(3149,0,cs),
(5151,0,l),
(5151,200,l),
(3149,200,ls),
(2862,200,o),
(2706,325,o),
(2685,581,c),
(5202,581,l),
(5202,640,ls),
(5202,1068,o),
(4941,1280,o),
(4531,1280,cs),
(3149,1280,ls),
(2911,1280,o),
(2724,1208,o),
(2609,1065,c),
(2514,1198,o),
(2345,1280,o),
(2125,1280,cs),
(205,1280,l),
(205,1080,l),
(2125,1080,ls),
(2373,1080,o),
(2481,960,o),
(2481,806,cs),
(2481,781,l),
(568,781,ls),
(310,781,o),
(102,653,o),
(102,392,cs),
(102,131,o),
(310,0,o),
(561,0,cs)
);
},
{
closed = 1;
nodes = (
(2742,983,o),
(2895,1080,o),
(3149,1080,cs),
(4531,1080,ls),
(4785,1080,o),
(4938,980,o),
(4982,781,c),
(2698,781,l)
);
}
);
width = 5307;
},
{
layerId = m005;
name = "Regular Ultra Expanded Ink Trap";
shapes = (
{
closed = 1;
nodes = (
(1816,0,ls),
(1996,0,o),
(2142,55,o),
(2224,183,c),
(2324,183,l),
(2406,55,o),
(2552,0,o),
(2732,0,cs),
(4534,0,l),
(4534,200,l),
(2732,200,ls),
(2484,200,o),
(2376,320,o),
(2376,499,cs),
(2376,581,l),
(4586,581,l),
(4586,640,ls),
(4586,1068,o),
(4324,1280,o),
(3915,1280,cs),
(2732,1280,ls),
(2552,1280,o),
(2407,1225,o),
(2324,1102,c),
(2224,1102,l),
(2141,1225,o),
(1996,1280,o),
(1816,1280,cs),
(203,1280,l),
(203,1080,l),
(1816,1080,ls),
(2064,1080,o),
(2171,960,o),
(2171,806,cs),
(2171,781,l),
(566,781,ls),
(308,781,o),
(100,653,o),
(100,392,cs),
(100,131,o),
(308,0,o),
(559,0,cs)
);
},
{
closed = 1;
nodes = (
(546,200,ls),
(400,200,o),
(305,271,o),
(305,392,cs),
(305,512,o),
(400,581,o),
(556,581,cs),
(2171,581,l),
(2171,499,ls),
(2171,320,o),
(2064,200,o),
(1816,200,cs)
);
},
{
closed = 1;
nodes = (
(2376,781,l),
(2376,806,ls),
(2376,960,o),
(2484,1080,o),
(2732,1080,cs),
(3915,1080,ls),
(4168,1080,o),
(4322,980,o),
(4365,781,c)
);
}
);
width = 4686;
}
);
metricLeft = "=a";
metricRight = "=e";
unicode = 230;
},
{
glyphname = b;
kernLeft = n;
kernRight = o;
lastChange = "2025-01-25 17:31:50 +0000";
layers = (
{
anchors = (
{
name = bottom;
pos = (907,0);
},
{
name = center;
pos = (466,1434);
},
{
name = top;
pos = (907,1280);
}
);
layerId = m01;
shapes = (
{
closed = 1;
nodes = (
(384,0,l),
(384,123,l),
(404,123,l),
(497,29,o),
(610,0,o),
(740,0,cs),
(1012,0,ls),
(1421,0,o),
(1682,212,o),
(1682,640,cs),
(1682,1068,o),
(1421,1280,o),
(1012,1280,cs),
(740,1280,ls),
(610,1280,o),
(497,1251,o),
(404,1157,c),
(384,1157,l),
(384,1792,l),
(180,1792,l),
(180,0,l)
);
},
{
closed = 1;
nodes = (
(740,200,ls),
(492,200,o),
(384,320,o),
(384,499,cs),
(384,781,ls),
(384,960,o),
(492,1080,o),
(740,1080,cs),
(1012,1080,ls),
(1319,1080,o),
(1478,937,o),
(1478,640,cs),
(1478,346,o),
(1319,200,o),
(1012,200,cs)
);
}
);
width = 1782;
},
{
anchors = (
{
name = bottom;
pos = (1470,0);
},
{
name = center;
pos = (748,1434);
},
{
name = top;
pos = (1470,1280);
}
);
layerId = m004;
shapes = (
{
closed = 1;
nodes = (
(384,0,l),
(384,123,l),
(404,123,l),
(497,29,o),
(610,0,o),
(740,0,cs),
(2138,0,ls),
(2548,0,o),
(2809,212,o),
(2809,640,cs),
(2809,1068,o),
(2548,1280,o),
(2138,1280,cs),
(740,1280,ls),
(610,1280,o),
(497,1251,o),
(404,1157,c),
(384,1157,l),
(384,1792,l),
(180,1792,l),
(180,0,l)
);
},
{
closed = 1;
nodes = (
(740,200,ls),
(492,200,o),
(384,320,o),
(384,499,cs),
(384,781,ls),
(384,960,o),
(492,1080,o),
(740,1080,cs),
(2138,1080,ls),
(2445,1080,o),
(2604,937,o),
(2604,643,cs),
(2604,346,o),
(2445,200,o),
(2138,200,cs)
);
}
);
width = 2909;
},
{
anchors = (
{
name = bottom;
pos = (907,0);
},
{
name = center;
pos = (466,1434);
},
{
name = top;
pos = (907,1280);
}
);
layerId = m003;
shapes = (
{
closed = 1;
nodes = (
(384,0,l),
(384,175,l),
(484,175,l),
(561,15,o),
(646,0,o),
(740,0,cs),
(1012,0,ls),
(1421,0,o),
(1682,212,o),
(1682,640,cs),
(1682,1068,o),
(1421,1280,o),
(1012,1280,cs),
(740,1280,ls),
(646,1280,o),
(561,1265,o),
(484,1105,c),
(384,1105,l),
(384,1792,l),
(180,1792,l),
(180,0,l)
);
},
{
closed = 1;
nodes = (
(740,200,ls),
(492,200,o),
(384,320,o),
(384,499,cs),
(384,781,ls),
(384,960,o),
(492,1080,o),
(740,1080,cs),
(1012,1080,ls),
(1319,1080,o),
(1478,937,o),
(1478,640,cs),
(1478,346,o),
(1319,200,o),
(1012,200,cs)
);
}
);
width = 1782;
},
{
anchors = (
{
name = bottom;
pos = (1470,0);
},
{
name = center;
pos = (748,1434);
},
{
name = top;
pos = (1470,1280);
}
);
layerId = m005;
shapes = (
{
closed = 1;
nodes = (
(384,0,l),
(384,175,l),
(484,175,l),
(561,15,o),
(646,0,o),
(740,0,cs),
(2138,0,ls),
(2548,0,o),
(2809,212,o),
(2809,640,cs),
(2809,1068,o),
(2548,1280,o),
(2138,1280,cs),
(740,1280,ls),
(646,1280,o),
(561,1265,o),
(484,1105,c),
(384,1105,l),
(384,1792,l),
(180,1792,l),
(180,0,l)
);
},
{
closed = 1;
nodes = (
(740,200,ls),
(492,200,o),
(384,320,o),
(384,499,cs),
(384,781,ls),
(384,960,o),
(492,1080,o),
(740,1080,cs),
(2138,1080,ls),
(2445,1080,o),
(2604,937,o),
(2604,643,cs),
(2604,346,o),
(2445,200,o),
(2138,200,cs)
);
}
);
width = 2909;
},
{
associatedMasterId = m004;
hints = (
{
name = _corner.ink;
options = 1;
origin = (0,2,1,22);
scale = (-1,1);
stem = 1000;
type = Corner;
}
);
layerId = "27FFB28E-4D90-40BA-86E8-774995EBD944";
name = "31. 3. 24 at 4:42 PM";
shapes = (
{
closed = 1;
nodes = (
(179,0,l),
(384,0,l),
(384,1792,l),
(179,1792,l)
);
},
{
closed = 1;
nodes = (
(2547,0,o),
(2808,212,o),
(2808,640,cs),
(2808,1068,o),
(2547,1280,o),
(2138,1280,cs),
(740,1280,l),
(740,1080,l),
(2138,1080,ls),
(2445,1080,o),
(2604,937,o),
(2604,643,cs),
(2604,346,o),
(2445,200,o),
(2138,200,cs),
(740,200,ls),
(492,200,o),
(384,320,o),
(384,499,c),
(179,499,l),
(179,197,o),
(399,0,o),
(740,0,cs),
(2138,0,ls)
);
},
{
closed = 1;
nodes = (
(492,1080,o),
(384,960,o),
(384,781,c),
(179,781,l),
(179,1083,o),
(399,1280,o),
(740,1280,c),
(740,1080,l)
);
}
);
width = 2911;
}
);
metricLeft = l;
metricRight = o;
unicode = 98;
},
{
glyphname = c;
kernLeft = o;
kernRight = o;
lastChange = "2025-01-25 17:31:50 +0000";
layers = (
{
anchors = (
{
name = bottom;
pos = (902,0);
},
{
name = top;
pos = (902,1280);
}
);
layerId = m01;
shapes = (
{
closed = 1;
nodes = (
(1575,0,l),
(1575,200,l),
(797,200,ls),
(464,200,o),
(305,346,o),
(305,640,cs),
(305,937,o),
(464,1080,o),
(797,1080,cs),
(1575,1080,l),
(1575,1280,l),
(797,1280,ls),
(362,1280,o),
(100,1068,o),
(100,640,cs),
(100,212,o),
(362,0,o),
(797,0,cs)
);
}
);
width = 1635;
},
{
associatedMasterId = m01;
guides = (
{
angle = 270;
pos = (544,297);
}
);
layerId = "9C61589B-17AA-4C7E-9E01-23C87AC2902D";
name = "6. 7. 23 6:06 PM";
shapes = (
{
closed = 1;
nodes = (
(1393,1162,l),
(1262,1260,o),
(1098,1321,o),
(881,1321,cs),
(440,1321,o),
(102,1068,o),
(102,640,cs),
(102,212,o),
(440,-41,o),
(881,-41,cs),
(1098,-41,o),
(1262,20,o),
(1393,118,c),
(1393,364,l),
(1293,243,o),
(1134,159,o),
(891,159,cs),
(504,159,o),
(307,371,o),
(307,643,cs),
(307,911,o),
(504,1121,o),
(891,1121,cs),
(1134,1121,o),
(1293,1037,o),
(1393,916,c)
);
}
);
width = 1833;
},
{
anchors = (
{
name = bottom;
pos = (1485,0);
},
{
name = top;
pos = (1485,1280);
}
);
guides = (
{
angle = 270;
pos = (844,297);
},
{
angle = 270;
pos = (894,297);
}
);
layerId = m004;
shapes = (
{
closed = 1;
nodes = (
(2691,0,l),
(2691,200,l),
(771,200,ls),
(464,200,o),
(305,346,o),
(305,643,cs),
(305,937,o),
(464,1080,o),
(771,1080,cs),
(2691,1080,l),
(2691,1280,l),
(771,1280,ls),
(362,1280,o),
(100,1068,o),
(100,640,cs),
(100,212,o),
(362,0,o),
(771,0,cs)
);
}
);
width = 2751;
},
{
associatedMasterId = m004;
guides = (
{
angle = 270;
pos = (544,297);
}
);
layerId = "0553423E-8ABF-4767-9AE6-A4AA402A5CDE";
name = "6. 7. 23 6:06 PM";
shapes = (
{
closed = 1;
nodes = (
(1393,1162,l),
(1262,1260,o),
(1098,1321,o),
(881,1321,cs),
(440,1321,o),
(102,1068,o),
(102,640,cs),
(102,212,o),
(440,-41,o),
(881,-41,cs),
(1098,-41,o),
(1262,20,o),
(1393,118,c),
(1393,364,l),
(1293,243,o),
(1134,159,o),
(891,159,cs),
(504,159,o),
(307,371,o),
(307,643,cs),
(307,911,o),
(504,1121,o),
(891,1121,cs),
(1134,1121,o),
(1293,1037,o),
(1393,916,c)
);
}
);
width = 1833;
},
{
anchors = (
{
name = bottom;
pos = (902,0);
},
{
name = top;
pos = (902,1280);
}
);
layerId = m003;
shapes = (
{
closed = 1;
nodes = (
(1575,0,l),
(1575,200,l),
(797,200,ls),
(464,200,o),
(305,346,o),
(305,640,cs),
(305,937,o),
(464,1080,o),
(797,1080,cs),
(1575,1080,l),
(1575,1280,l),
(797,1280,ls),
(362,1280,o),
(100,1068,o),
(100,640,cs),
(100,212,o),
(362,0,o),
(797,0,cs)
);
}
);
width = 1635;
},
{
associatedMasterId = m003;
guides = (
{
angle = 270;
pos = (544,297);
}
);
layerId = "94C550A4-40A9-4F50-B6E8-7F95E0B28A4B";
name = "6. 7. 23 6:06 PM";
shapes = (
{
closed = 1;
nodes = (
(1393,1162,l),
(1262,1260,o),
(1098,1321,o),
(881,1321,cs),
(440,1321,o),
(102,1068,o),
(102,640,cs),
(102,212,o),
(440,-41,o),
(881,-41,cs),
(1098,-41,o),
(1262,20,o),
(1393,118,c),
(1393,364,l),
(1293,243,o),
(1134,159,o),
(891,159,cs),
(504,159,o),
(307,371,o),
(307,643,cs),
(307,911,o),
(504,1121,o),
(891,1121,cs),
(1134,1121,o),
(1293,1037,o),
(1393,916,c)
);
}
);
width = 1833;
},
{
anchors = (
{
name = bottom;
pos = (1485,0);
},
{
name = top;
pos = (1485,1280);
}
);
guides = (
{
angle = 270;
pos = (844,297);
},
{
angle = 270;
pos = (894,297);
}
);
layerId = m005;
shapes = (
{
closed = 1;
nodes = (
(2691,0,l),
(2691,200,l),
(771,200,ls),
(464,200,o),
(305,346,o),
(305,643,cs),
(305,937,o),
(464,1080,o),
(771,1080,cs),
(2691,1080,l),
(2691,1280,l),
(771,1280,ls),
(362,1280,o),
(100,1068,o),
(100,640,cs),
(100,212,o),
(362,0,o),
(771,0,cs)
);
}
);
width = 2751;
},
{
associatedMasterId = m005;
guides = (
{
angle = 270;
pos = (544,297);
}
);
layerId = "EA4B8D9D-6E0A-43DC-B1D0-5B5F8ECDE510";
name = "6. 7. 23 6:06 PM";
shapes = (
{
closed = 1;
nodes = (
(1393,1162,l),
(1262,1260,o),
(1098,1321,o),
(881,1321,cs),
(440,1321,o),
(102,1068,o),
(102,640,cs),
(102,212,o),
(440,-41,o),
(881,-41,cs),
(1098,-41,o),
(1262,20,o),
(1393,118,c),
(1393,364,l),
(1293,243,o),
(1134,159,o),
(891,159,cs),
(504,159,o),
(307,371,o),
(307,643,cs),
(307,911,o),
(504,1121,o),
(891,1121,cs),
(1134,1121,o),
(1293,1037,o),
(1393,916,c)
);
}
);
width = 1833;
}
);
metricLeft = o;
metricRight = "=o-40";
unicode = 99;
},
{
glyphname = d;
kernLeft = o;
kernRight = n;
lastChange = "2025-01-25 17:31:50 +0000";
layers = (
{
anchors = (
{
name = bottom;
pos = (879,0);
},
{
name = center;
pos = (1117,1567);
},
{
name = top;
pos = (879,1280);
},
{
name = topright;
pos = (1706,1792);
}
);
layerId = m01;
shapes = (
{
closed = 1;
nodes = (
(1042,0,ls),
(1172,0,o),
(1285,29,o),
(1378,124,c),
(1398,124,l),
(1398,0,l),
(1603,0,l),
(1603,1792,l),
(1398,1792,l),
(1398,1156,l),
(1378,1156,l),
(1285,1251,o),
(1172,1280,o),
(1042,1280,cs),
(771,1280,ls),
(362,1280,o),
(100,1068,o),
(100,640,cs),
(100,212,o),
(362,0,o),
(771,0,cs)
);
},
{
closed = 1;
nodes = (
(771,200,ls),
(464,200,o),
(305,346,o),
(305,640,cs),
(305,937,o),
(464,1080,o),
(771,1080,cs),
(1042,1080,ls),
(1291,1080,o),
(1398,960,o),
(1398,781,cs),
(1398,499,ls),
(1398,320,o),
(1291,200,o),
(1042,200,cs)
);
}
);
width = 1783;
},
{
anchors = (
{
name = bottom;
pos = (1442,0);
},
{
name = center;
pos = (1731,1567);
},
{
name = top;
pos = (1442,1280);
},
{
name = topright;
pos = (2832,1792);
}
);
layerId = m004;
shapes = (
{
closed = 1;
nodes = (
(2169,0,ls),
(2299,0,o),
(2412,29,o),
(2505,123,c),
(2525,123,l),
(2525,0,l),
(2730,0,l),
(2730,1792,l),
(2525,1792,l),
(2525,1157,l),
(2505,1157,l),
(2412,1251,o),
(2299,1280,o),
(2169,1280,cs),
(771,1280,ls),
(362,1280,o),
(100,1068,o),
(100,640,cs),
(100,212,o),
(362,0,o),
(771,0,cs)
);
},
{
closed = 1;
nodes = (
(771,200,ls),
(464,200,o),
(305,346,o),
(305,643,cs),
(305,937,o),
(464,1080,o),
(771,1080,cs),
(2169,1080,ls),
(2417,1080,o),
(2525,960,o),
(2525,781,cs),
(2525,499,ls),
(2525,320,o),
(2417,200,o),
(2169,200,cs)
);
}
);
width = 2910;
},
{
anchors = (
{
name = bottom;
pos = (879,0);
},
{
name = center;
pos = (1117,1567);
},
{
name = top;
pos = (879,1280);
},
{
name = topright;
pos = (1706,1792);
}
);
layerId = m003;
shapes = (
{
closed = 1;
nodes = (
(1042,0,ls),
(1136,0,o),
(1221,15,o),
(1298,175,c),
(1398,175,l),
(1398,0,l),
(1603,0,l),
(1603,1792,l),
(1398,1792,l),
(1398,1105,l),
(1298,1105,l),
(1221,1265,o),
(1136,1280,o),
(1042,1280,cs),
(771,1280,ls),
(362,1280,o),
(100,1068,o),
(100,640,cs),
(100,212,o),
(362,0,o),
(771,0,cs)
);
},
{
closed = 1;
nodes = (
(771,200,ls),
(464,200,o),
(305,346,o),
(305,640,cs),
(305,937,o),
(464,1080,o),
(771,1080,cs),
(1042,1080,ls),
(1291,1080,o),
(1398,960,o),
(1398,781,cs),
(1398,499,ls),
(1398,320,o),
(1291,200,o),
(1042,200,cs)
);
}
);
width = 1783;
},
{
anchors = (
{
name = bottom;
pos = (1442,0);
},
{
name = center;
pos = (1731,1567);
},
{
name = top;
pos = (1442,1280);
},
{
name = topright;
pos = (2832,1792);
}
);
layerId = m005;
shapes = (
{
closed = 1;
nodes = (
(2169,0,ls),
(2263,0,o),
(2348,15,o),
(2425,175,c),
(2525,175,l),
(2525,0,l),
(2730,0,l),
(2730,1792,l),
(2525,1792,l),
(2525,1105,l),
(2425,1105,l),
(2348,1265,o),
(2263,1280,o),
(2169,1280,cs),
(771,1280,ls),
(362,1280,o),
(100,1068,o),
(100,640,cs),
(100,212,o),
(362,0,o),
(771,0,cs)
);
},
{
closed = 1;
nodes = (
(771,200,ls),
(464,200,o),
(305,346,o),
(305,643,cs),
(305,937,o),
(464,1080,o),
(771,1080,cs),
(2169,1080,ls),
(2417,1080,o),
(2525,960,o),
(2525,781,cs),
(2525,499,ls),
(2525,320,o),
(2417,200,o),
(2169,200,cs)
);
}
);
width = 2910;
}
);
metricLeft = o;
metricRight = l;
unicode = 100;
},
{
glyphname = dcroat;
kernLeft = o;
kernRight = n;
lastChange = "2025-01-25 17:31:50 +0000";
layers = (
{
layerId = m01;
shapes = (
{
closed = 1;
nodes = (
(1042,0,ls),
(1172,0,o),
(1285,29,o),
(1378,124,c),
(1398,124,l),
(1398,0,l),
(1603,0,l),
(1603,1467,l),
(1936,1467,l),
(1936,1667,l),
(1754,1667,ls),
(1673,1667,o),
(1623,1603,o),
(1623,1574,c),
(1603,1574,l),
(1603,1792,l),
(1398,1792,l),
(1398,1667,l),
(733,1667,l),
(733,1467,l),
(1247,1467,ls),
(1328,1467,o),
(1378,1531,o),
(1378,1560,c),
(1398,1560,l),
(1398,1156,l),
(1378,1156,l),
(1285,1251,o),
(1172,1280,o),
(1042,1280,cs),
(771,1280,ls),
(362,1280,o),
(100,1068,o),
(100,640,cs),
(100,212,o),
(362,0,o),
(771,0,cs)
);
},
{
closed = 1;
nodes = (
(771,200,ls),
(464,200,o),
(305,346,o),
(305,640,cs),
(305,937,o),
(464,1080,o),
(771,1080,cs),
(1042,1080,ls),
(1291,1080,o),
(1398,960,o),
(1398,781,cs),
(1398,499,ls),
(1398,320,o),
(1291,200,o),
(1042,200,cs)
);
}
);
width = 2016;
},
{
layerId = m004;
shapes = (
{
closed = 1;
nodes = (
(2169,0,ls),
(2299,0,o),
(2412,29,o),
(2505,123,c),
(2525,123,l),
(2525,0,l),
(2730,0,l),
(2730,1467,l),
(3139,1467,l),
(3139,1667,l),
(2881,1667,ls),
(2800,1667,o),
(2750,1603,o),
(2750,1574,c),
(2730,1574,l),
(2730,1792,l),
(2525,1792,l),
(2525,1667,l),
(1347,1667,l),
(1347,1467,l),
(2374,1467,ls),
(2455,1467,o),
(2505,1531,o),
(2505,1560,c),
(2525,1560,l),
(2525,1157,l),
(2505,1157,l),
(2412,1251,o),
(2299,1280,o),
(2169,1280,cs),
(771,1280,ls),
(362,1280,o),
(100,1068,o),
(100,640,cs),
(100,212,o),
(362,0,o),
(771,0,cs)
);
},
{
closed = 1;
nodes = (
(771,200,ls),
(464,200,o),
(305,346,o),
(305,643,cs),
(305,937,o),
(464,1080,o),
(771,1080,cs),
(2169,1080,ls),
(2417,1080,o),
(2525,960,o),
(2525,781,cs),
(2525,499,ls),
(2525,320,o),
(2417,200,o),
(2169,200,cs)
);
}
);
width = 3219;
},
{
layerId = m003;
shapes = (
{
closed = 1;
nodes = (
(1042,0,ls),
(1136,0,o),
(1221,15,o),
(1298,175,c),
(1398,175,l),
(1398,0,l),
(1603,0,l),
(1603,1467,l),
(1936,1467,l),
(1936,1667,l),
(1910,1667,ls),
(1803,1667,o),
(1729,1603,o),
(1729,1574,c),
(1603,1574,l),
(1603,1792,l),
(1398,1792,l),
(1398,1667,l),
(733,1667,l),
(733,1467,l),
(1091,1467,ls),
(1198,1467,o),
(1272,1531,o),
(1272,1560,c),
(1398,1560,l),
(1398,1105,l),
(1298,1105,l),
(1221,1265,o),
(1136,1280,o),
(1042,1280,cs),
(771,1280,ls),
(362,1280,o),
(100,1068,o),
(100,640,cs),
(100,212,o),
(362,0,o),
(771,0,cs)
);
},
{
closed = 1;
nodes = (
(771,200,ls),
(464,200,o),
(305,346,o),
(305,640,cs),
(305,937,o),
(464,1080,o),
(771,1080,cs),
(1042,1080,ls),
(1291,1080,o),
(1398,960,o),
(1398,781,cs),
(1398,499,ls),
(1398,320,o),
(1291,200,o),
(1042,200,cs)
);
}
);
width = 2016;
},
{
layerId = m005;
shapes = (
{
closed = 1;
nodes = (
(2169,0,ls),
(2263,0,o),
(2348,15,o),
(2425,175,c),
(2525,175,l),
(2525,0,l),
(2730,0,l),
(2730,1467,l),
(3139,1467,l),
(3139,1667,l),
(3037,1667,ls),
(2930,1667,o),
(2856,1603,o),
(2856,1574,c),
(2730,1574,l),
(2730,1792,l),
(2525,1792,l),
(2525,1667,l),
(1347,1667,l),
(1347,1467,l),
(2218,1467,ls),
(2325,1467,o),
(2399,1531,o),
(2399,1560,c),
(2525,1560,l),
(2525,1105,l),
(2425,1105,l),
(2348,1265,o),
(2263,1280,o),
(2169,1280,cs),
(771,1280,ls),
(362,1280,o),
(100,1068,o),
(100,640,cs),
(100,212,o),
(362,0,o),
(771,0,cs)
);
},
{
closed = 1;
nodes = (
(771,200,ls),
(464,200,o),
(305,346,o),
(305,643,cs),
(305,937,o),
(464,1080,o),
(771,1080,cs),
(2169,1080,ls),
(2417,1080,o),
(2525,960,o),
(2525,781,cs),
(2525,499,ls),
(2525,320,o),
(2417,200,o),
(2169,200,cs)
);
}
);
width = 3219;
}
);
metricLeft = o;
metricRight = "=l-100";
unicode = 273;
},
{
glyphname = eth;
kernRight = n;
lastChange = "2025-01-25 17:31:50 +0000";
layers = (
{
guides = (
{
angle = 180;
pos = (171,806);
},
{
pos = (171,562);
},
{
angle = 270;
pos = (111,661);
}
);
layerId = m01;
shapes = (
{
closed = 1;
nodes = (
(1118,0,ls),
(1527,0,o),
(1788,212,o),
(1788,614,cs),
(1788,1318,ls),
(1788,1595,o),
(1568,1792,o),
(1228,1792,cs),
(1101,1792,ls),
(1021,1792,o),
(929,1764,o),
(892,1728,c),
(871,1743,l),
(955,1864,l),
(1014,1948,l),
(845,2066,l),
(653,1792,l),
(211,1792,l),
(211,1592,l),
(316,1592,ls),
(396,1592,o),
(488,1620,o),
(525,1656,c),
(546,1641,l),
(462,1520,l),
(405,1439,l),
(574,1321,l),
(764,1592,l),
(1228,1592,ls),
(1476,1592,o),
(1584,1472,o),
(1584,1318,cs),
(1584,1066,l),
(1564,1066,l),
(1448,1189,o),
(1298,1229,o),
(1118,1229,cs),
(831,1229,ls),
(421,1229,o),
(160,1016,o),
(160,614,cs),
(160,212,o),
(421,0,o),
(831,0,cs)
);
},
{
closed = 1;
nodes = (
(831,200,ls),
(524,200,o),
(365,343,o),
(365,614,cs),
(365,883,o),
(524,1029,o),
(831,1029,cs),
(1118,1029,ls),
(1425,1029,o),
(1584,883,o),
(1584,614,cs),
(1584,343,o),
(1425,200,o),
(1118,200,cs)
);
}
);
width = 1948;
},
{
layerId = m004;
shapes = (
{
closed = 1;
nodes = (
(2244,0,ls),
(2654,0,o),
(2915,212,o),
(2915,614,cs),
(2915,1318,ls),
(2915,1595,o),
(2695,1792,o),
(2354,1792,cs),
(1101,1792,ls),
(1021,1792,o),
(929,1764,o),
(892,1728,c),
(871,1743,l),
(955,1864,l),
(1014,1948,l),
(845,2066,l),
(653,1792,l),
(211,1792,l),
(211,1592,l),
(316,1592,ls),
(396,1592,o),
(488,1620,o),
(525,1656,c),
(546,1641,l),
(462,1520,l),
(405,1439,l),
(574,1321,l),
(764,1592,l),
(2354,1592,ls),
(2602,1592,o),
(2710,1472,o),
(2710,1318,cs),
(2710,1066,l),
(2690,1066,l),
(2575,1189,o),
(2424,1229,o),
(2244,1229,cs),
(831,1229,ls),
(421,1229,o),
(160,1016,o),
(160,614,cs),
(160,212,o),
(421,0,o),
(831,0,cs)
);
},
{
closed = 1;
nodes = (
(831,200,ls),
(524,200,o),
(365,343,o),
(365,614,cs),
(365,883,o),
(524,1029,o),
(831,1029,cs),
(2244,1029,ls),
(2551,1029,o),
(2710,883,o),
(2710,614,cs),
(2710,343,o),
(2551,200,o),
(2244,200,cs)
);
}
);
width = 3075;
},
{
layerId = m003;
shapes = (
{
closed = 1;
nodes = (
(1118,0,ls),
(1527,0,o),
(1788,212,o),
(1788,614,cs),
(1788,1318,ls),
(1788,1595,o),
(1568,1792,o),
(1228,1792,cs),
(1188,1792,ls),
(1056,1791,o),
(979,1715,o),
(952,1685,c),
(870,1742,l),
(955,1863,l),
(1014,1948,l),
(845,2066,l),
(653,1792,l),
(211,1792,l),
(211,1592,l),
(229,1592,ls),
(361,1593,o),
(438,1669,o),
(465,1699,c),
(547,1642,l),
(462,1521,l),
(405,1439,l),
(574,1321,l),
(764,1592,l),
(1228,1592,ls),
(1476,1592,o),
(1584,1472,o),
(1584,1318,cs),
(1584,1024,l),
(1484,1024,l),
(1384,1204,o),
(1261,1229,o),
(1118,1229,cs),
(831,1229,ls),
(421,1229,o),
(160,1016,o),
(160,614,cs),
(160,212,o),
(421,0,o),
(831,0,cs)
);
},
{
closed = 1;
nodes = (
(831,200,ls),
(524,200,o),
(365,343,o),
(365,614,cs),
(365,883,o),
(524,1029,o),
(831,1029,cs),
(1118,1029,ls),
(1425,1029,o),
(1584,883,o),
(1584,614,cs),
(1584,343,o),
(1425,200,o),
(1118,200,cs)
);
}
);
width = 1948;
},
{
layerId = m005;
shapes = (
{
closed = 1;
nodes = (
(2244,0,ls),
(2654,0,o),
(2915,212,o),
(2915,614,cs),
(2915,1318,ls),
(2915,1595,o),
(2695,1792,o),
(2354,1792,cs),
(1188,1792,ls),
(1056,1791,o),
(979,1715,o),
(952,1685,c),
(870,1742,l),
(955,1863,l),
(1014,1948,l),
(845,2066,l),
(653,1792,l),
(211,1792,l),
(211,1592,l),
(229,1592,ls),
(361,1593,o),
(438,1669,o),
(465,1699,c),
(547,1642,l),
(462,1521,l),
(405,1439,l),
(574,1321,l),
(764,1592,l),
(2354,1592,ls),
(2602,1592,o),
(2710,1472,o),
(2710,1318,cs),
(2710,1025,l),
(2610,1025,l),
(2511,1204,o),
(2386,1229,o),
(2244,1229,cs),
(831,1229,ls),
(421,1229,o),
(160,1016,o),
(160,614,cs),
(160,212,o),
(421,0,o),
(831,0,cs)
);
},
{
closed = 1;
nodes = (
(831,200,ls),
(524,200,o),
(365,343,o),
(365,614,cs),
(365,883,o),
(524,1029,o),
(831,1029,cs),
(2244,1029,ls),
(2551,1029,o),
(2710,883,o),
(2710,614,cs),
(2710,343,o),
(2551,200,o),
(2244,200,cs)
);
}
);
width = 3075;
},
{
associatedMasterId = m003;
hints = (
{
name = _corner.inter;
options = 1;
origin = (0,5,2,10);
scale = (-1,1);
stem = 1000;
type = Corner;
},
{
name = _corner.diagonal;
origin = (2,4,3,2);
stem = 1000;
type = Corner;
},
{
name = _corner.diagonal;
origin = (2,6,3,0);
stem = 1000;
type = Corner;
}
);
layerId = "83EFD6EC-CB7D-4155-B1E8-76E7ED9890E6";
name = "10. 11. 24 at 9:57 PM";
shapes = (
{
closed = 1;
nodes = (
(1546,0,o),
(1807,212,o),
(1807,640,cs),
(1807,1068,o),
(1546,1280,o),
(1137,1280,cs),
(850,1280,ls),
(440,1280,o),
(179,1068,o),
(179,640,cs),
(179,212,o),
(440,0,o),
(850,0,cs),
(1137,0,ls)
);
},
{
closed = 1;
nodes = (
(850,200,ls),
(543,200,o),
(384,343,o),
(384,640,cs),
(384,934,o),
(543,1080,o),
(850,1080,cs),
(1137,1080,ls),
(1444,1080,o),
(1603,934,o),
(1603,640,cs),
(1603,343,o),
(1444,200,o),
(1137,200,cs)
);
},
{
closed = 1;
nodes = (
(1807,1318,l),
(1807,1595,o),
(1587,1792,o),
(1247,1792,c),
(230,1792,l),
(230,1592,l),
(1247,1592,l),
(1495,1592,o),
(1603,1472,o),
(1603,1318,c),
(1603,640,l),
(1807,640,l)
);
},
{
closed = 1;
nodes = (
(333,1439,l),
(502,1321,l),
(942,1948,l),
(773,2066,l)
);
}
);
width = 1987;
},
{
associatedMasterId = m004;
hints = (
{
name = _corner.diagonal;
origin = (2,4,3,2);
stem = 1000;
type = Corner;
},
{
name = _corner.diagonal;
origin = (2,6,3,0);
stem = 1000;
type = Corner;
},
{
name = _corner.inter;
options = 1;
origin = (0,5,2,10);
scale = (-1,1);
stem = 1000;
type = Corner;
}
);
layerId = "DF9C6D77-485F-446A-9559-0F2602DB84FD";
name = "10. 11. 24 at 9:57 PM";
shapes = (
{
closed = 1;
nodes = (
(2673,0,o),
(2934,212,o),
(2934,640,cs),
(2934,1068,o),
(2673,1280,o),
(2263,1280,cs),
(850,1280,ls),
(440,1280,o),
(179,1068,o),
(179,640,cs),
(179,212,o),
(440,0,o),
(850,0,cs),
(2263,0,ls)
);
},
{
closed = 1;
nodes = (
(850,200,ls),
(543,200,o),
(384,343,o),
(384,640,cs),
(384,934,o),
(543,1080,o),
(850,1080,cs),
(2263,1080,ls),
(2570,1080,o),
(2729,934,o),
(2729,640,cs),
(2729,343,o),
(2570,200,o),
(2263,200,cs)
);
},
{
closed = 1;
nodes = (
(2934,1318,l),
(2934,1595,o),
(2714,1792,o),
(2373,1792,c),
(230,1792,l),
(230,1592,l),
(2373,1592,l),
(2621,1592,o),
(2729,1472,o),
(2729,1318,c),
(2729,640,l),
(2934,640,l)
);
},
{
closed = 1;
nodes = (
(333,1439,l),
(502,1321,l),
(942,1948,l),
(773,2066,l)
);
}
);
width = 3113;
}
);
metricLeft = n;
metricRight = n;
unicode = 240;
},
{
glyphname = e;
kernLeft = o;
kernRight = o;
lastChange = "2025-01-25 17:31:50 +0000";
layers = (
{
anchors = (
{
name = bottom;
pos = (914,0);
},
{
name = ogonek;
pos = (1647,26);
},
{
name = top;
pos = (914,1280);
}
);
guides = (
{
angle = 90;
pos = (674,231);
}
);
layerId = m01;
shapes = (
{
closed = 1;
nodes = (
(1647,0,l),
(1647,200,l),
(771,200,ls),
(485,200,o),
(328,326,o),
(307,581,c),
(1729,581,l),
(1729,640,ls),
(1729,1068,o),
(1467,1280,o),
(1058,1280,cs),
(771,1280,ls),
(362,1280,o),
(100,1068,o),
(100,640,cs),
(100,212,o),
(362,0,o),
(771,0,cs)
);
},
{
closed = 1;
nodes = (
(319,781,l),
(365,983,o),
(517,1080,o),
(771,1080,cs),
(1058,1080,ls),
(1311,1080,o),
(1464,980,o),
(1509,781,c)
);
}
);
width = 1829;
},
{
anchors = (
{
name = bottom;
pos = (1478,0);
},
{
name = ogonek;
pos = (2773,26);
},
{
name = top;
pos = (1478,1280);
}
);
layerId = m004;
shapes = (
{
closed = 1;
nodes = (
(2773,0,l),
(2773,200,l),
(771,200,ls),
(485,200,o),
(328,326,o),
(307,581,c),
(2824,581,l),
(2824,640,ls),
(2824,1068,o),
(2563,1280,o),
(2154,1280,cs),
(771,1280,ls),
(362,1280,o),
(100,1068,o),
(100,640,cs),
(100,212,o),
(362,0,o),
(771,0,cs)
);
},
{
closed = 1;
nodes = (
(319,781,l),
(365,983,o),
(517,1080,o),
(771,1080,cs),
(2154,1080,ls),
(2407,1080,o),
(2559,980,o),
(2604,781,c)
);
}
);
width = 2924;
},
{
anchors = (
{
name = bottom;
pos = (1480,0);
},
{
name = ogonek;
pos = (2662,26);
},
{
name = top;
pos = (1480,1280);
}
);
associatedMasterId = m004;
layerId = "43718643-1AC8-4541-AE12-80295D8F98E8";
name = "29. 3. 24 at 7:06 PM";
shapes = (
{
closed = 1;
nodes = (
(2775,0,l),
(2775,200,l),
(901,200,ls),
(466,200,o),
(307,333,o),
(307,591,cs),
(307,937,o),
(589,1121,o),
(1449,1121,cs),
(2309,1121,o),
(2621,937,o),
(2621,640,c),
(2826,640,l),
(2826,1068,o),
(2412,1321,o),
(1449,1321,cs),
(486,1321,o),
(102,1068,o),
(102,591,cs),
(102,200,o),
(364,0,o),
(901,0,cs)
);
},
{
closed = 1;
nodes = (
(282,581,l),
(2826,581,l),
(2826,640,l),
(2719,781,l),
(282,781,l)
);
}
);
width = 2929;
},
{
anchors = (
{
name = bottom;
pos = (916,0);
},
{
name = ogonek;
pos = (1649,26);
},
{
name = top;
pos = (886,1280);
}
);
associatedMasterId = m01;
guides = (
{
angle = 90;
pos = (676,231);
}
);
layerId = "554C025F-86E4-4D1A-82D5-78A8571E7BC9";
name = "29. 3. 24 at 7:09 PM";
shapes = (
{
closed = 1;
nodes = (
(1649,0,l),
(1649,200,l),
(901,200,ls),
(466,200,o),
(307,346,o),
(307,653,cs),
(307,963,o),
(466,1121,o),
(886,1121,cs),
(1336,1121,o),
(1495,937,o),
(1495,640,c),
(1700,640,l),
(1700,1068,o),
(1439,1321,o),
(886,1321,cs),
(364,1321,o),
(102,1093,o),
(102,653,cs),
(102,212,o),
(364,0,o),
(901,0,cs)
);
},
{
closed = 1;
nodes = (
(282,581,l),
(1700,581,l),
(1700,640,l),
(1592,781,l),
(282,781,l)
);
}
);
width = 1802;
},
{
anchors = (
{
name = bottom;
pos = (914,0);
},
{
name = ogonek;
pos = (1647,26);
},
{
name = top;
pos = (914,1280);
}
);
guides = (
{
angle = 90;
pos = (674,231);
}
);
layerId = m003;
shapes = (
{
closed = 1;
nodes = (
(1647,0,l),
(1647,200,l),
(771,200,ls),
(485,200,o),
(328,326,o),
(307,581,c),
(1729,581,l),
(1729,640,ls),
(1729,1068,o),
(1467,1280,o),
(1058,1280,cs),
(771,1280,ls),
(362,1280,o),
(100,1068,o),
(100,640,cs),
(100,212,o),
(362,0,o),
(771,0,cs)
);
},
{
closed = 1;
nodes = (
(319,781,l),
(365,983,o),
(517,1080,o),
(771,1080,cs),
(1058,1080,ls),
(1311,1080,o),
(1464,980,o),
(1509,781,c)
);
}
);
width = 1829;
},
{
anchors = (
{
name = bottom;
pos = (916,0);
},
{
name = ogonek;
pos = (1649,26);
},
{
name = top;
pos = (886,1280);
}
);
associatedMasterId = m003;
guides = (
{
angle = 90;
pos = (676,231);
}
);
layerId = "BF665CFB-1995-4413-AF3C-7B0D3C66476A";
name = "29. 3. 24 at 7:09 PM";
shapes = (
{
closed = 1;
nodes = (
(1649,0,l),
(1649,200,l),
(901,200,ls),
(466,200,o),
(307,346,o),
(307,653,cs),
(307,963,o),
(466,1121,o),
(886,1121,cs),
(1336,1121,o),
(1495,937,o),
(1495,640,c),
(1700,640,l),
(1700,1068,o),
(1439,1321,o),
(886,1321,cs),
(364,1321,o),
(102,1093,o),
(102,653,cs),
(102,212,o),
(364,0,o),
(901,0,cs)
);
},
{
closed = 1;
nodes = (
(282,581,l),
(1700,581,l),
(1700,640,l),
(1592,781,l),
(282,781,l)
);
}
);
width = 1802;
},
{
anchors = (
{
name = bottom;
pos = (1478,0);
},
{
name = ogonek;
pos = (2773,26);
},
{
name = top;
pos = (1478,1280);
}
);
layerId = m005;
shapes = (
{
closed = 1;
nodes = (
(2773,0,l),
(2773,200,l),
(771,200,ls),
(485,200,o),
(328,326,o),
(307,581,c),
(2824,581,l),
(2824,640,ls),
(2824,1068,o),
(2563,1280,o),
(2154,1280,cs),
(771,1280,ls),
(362,1280,o),
(100,1068,o),
(100,640,cs),
(100,212,o),
(362,0,o),
(771,0,cs)
);
},
{
closed = 1;
nodes = (
(319,781,l),
(365,983,o),
(517,1080,o),
(771,1080,cs),
(2154,1080,ls),
(2407,1080,o),
(2559,980,o),
(2604,781,c)
);
}
);
width = 2924;
},
{
anchors = (
{
name = bottom;
pos = (1480,0);
},
{
name = ogonek;
pos = (2662,26);
},
{
name = top;
pos = (1480,1280);
}
);
associatedMasterId = m005;
layerId = "6EB0CFD9-9137-4DCE-8DB1-C3A35B7EC465";
name = "29. 3. 24 at 7:06 PM";
shapes = (
{
closed = 1;
nodes = (
(2775,0,l),
(2775,200,l),
(901,200,ls),
(466,200,o),
(307,333,o),
(307,591,cs),
(307,937,o),
(589,1121,o),
(1449,1121,cs),
(2309,1121,o),
(2621,937,o),
(2621,640,c),
(2826,640,l),
(2826,1068,o),
(2412,1321,o),
(1449,1321,cs),
(486,1321,o),
(102,1068,o),
(102,591,cs),
(102,200,o),
(364,0,o),
(901,0,cs)
);
},
{
closed = 1;
nodes = (
(282,581,l),
(2826,581,l),
(2826,640,l),
(2719,781,l),
(282,781,l)
);
}
);
width = 2929;
}
);
metricLeft = o;
metricRight = o;
unicode = 101;
},
{
glyphname = f;
kernLeft = f;
kernRight = f;
lastChange = "2025-01-25 17:31:50 +0000";
layers = (
{
anchors = (
{
name = bottom;
pos = (773,0);
},
{
name = top;
pos = (773,1792);
}
);
layerId = m01;
shapes = (
{
closed = 1;
nodes = (
(558,0,l),
(558,1080,l),
(1513,1080,l),
(1513,1280,l),
(709,1280,ls),
(628,1280,o),
(578,1216,o),
(578,1187,c),
(558,1187,l),
(558,1293,ls),
(558,1472,o),
(665,1592,o),
(914,1592,cs),
(1564,1592,l),
(1564,1792,l),
(914,1792,ls),
(573,1792,o),
(353,1595,o),
(353,1293,cs),
(353,1280,l),
(20,1280,l),
(20,1080,l),
(202,1080,ls),
(283,1080,o),
(333,1144,o),
(333,1173,c),
(353,1173,l),
(353,0,l)
);
}
);
width = 1574;
},
{
anchors = (
{
name = bottom;
pos = (1218,0);
},
{
name = top;
pos = (1218,1792);
}
);
guides = (
{
pos = (729,574);
},
{
pos = (729,666);
}
);
layerId = m004;
shapes = (
{
closed = 1;
nodes = (
(635,0,l),
(635,1080,l),
(2401,1080,l),
(2401,1280,l),
(786,1280,ls),
(705,1280,o),
(655,1216,o),
(655,1187,c),
(635,1187,l),
(635,1293,ls),
(635,1472,o),
(742,1592,o),
(990,1592,cs),
(2452,1592,l),
(2452,1792,l),
(990,1792,ls),
(650,1792,o),
(430,1595,o),
(430,1293,cs),
(430,1280,l),
(20,1280,l),
(20,1080,l),
(279,1080,ls),
(360,1080,o),
(410,1144,o),
(410,1173,c),
(430,1173,l),
(430,0,l)
);
}
);
width = 2462;
},
{
associatedMasterId = m004;
guides = (
{
pos = (760,574);
},
{
pos = (760,666);
}
);
layerId = "6A8E4B37-4DD3-470E-8FFA-3401853F5D92";
name = "11. 7. 23 2:11 PM";
shapes = (
{
closed = 1;
nodes = (
(614,1280,l),
(614,1564,o),
(1006,1633,o),
(1480,1633,cs),
(2020,1633,o),
(2360,1544,o),
(2560,1434,c),
(2560,1669,l),
(2358,1754,o),
(1953,1833,o),
(1480,1833,cs),
(778,1833,o),
(410,1656,o),
(410,1280,c),
(410,0,l),
(614,0,l)
);
},
{
closed = 1;
nodes = (
(51,1091,l),
(2406,1091,l),
(2406,1280,l),
(51,1280,l)
);
}
);
width = 2573;
},
{
anchors = (
{
name = bottom;
pos = (773,0);
},
{
name = top;
pos = (773,1792);
}
);
layerId = m003;
shapes = (
{
closed = 1;
nodes = (
(558,0,l),
(558,1080,l),
(1513,1080,l),
(1513,1280,l),
(865,1280,ls),
(758,1280,o),
(684,1216,o),
(684,1187,c),
(558,1187,l),
(558,1293,ls),
(558,1472,o),
(665,1592,o),
(914,1592,cs),
(1564,1592,l),
(1564,1792,l),
(914,1792,ls),
(573,1792,o),
(353,1595,o),
(353,1293,cs),
(353,1280,l),
(20,1280,l),
(20,1080,l),
(46,1080,ls),
(153,1080,o),
(227,1144,o),
(227,1173,c),
(353,1173,l),
(353,0,l)
);
}
);
width = 1574;
},
{
anchors = (
{
name = bottom;
pos = (1218,0);
},
{
name = top;
pos = (1218,1792);
}
);
guides = (
{
pos = (729,574);
},
{
pos = (729,666);
}
);
layerId = m005;
shapes = (
{
closed = 1;
nodes = (
(635,0,l),
(635,1080,l),
(2401,1080,l),
(2401,1280,l),
(942,1280,ls),
(835,1280,o),
(761,1216,o),
(761,1187,c),
(635,1187,l),
(635,1293,ls),
(635,1472,o),
(742,1592,o),
(990,1592,cs),
(2452,1592,l),
(2452,1792,l),
(990,1792,ls),
(650,1792,o),
(430,1595,o),
(430,1293,cs),
(430,1280,l),
(20,1280,l),
(20,1080,l),
(123,1080,ls),
(230,1080,o),
(304,1144,o),
(304,1173,c),
(430,1173,l),
(430,0,l)
);
}
);
width = 2462;
},
{
associatedMasterId = m005;
guides = (
{
pos = (760,574);
},
{
pos = (760,666);
}
);
layerId = "23F79AE5-7C52-4BA7-A2EA-8E0215CFF998";
name = "11. 7. 23 2:11 PM";
shapes = (
{
closed = 1;
nodes = (
(614,1280,l),
(614,1564,o),
(1006,1633,o),
(1480,1633,cs),
(2020,1633,o),
(2360,1544,o),
(2560,1434,c),
(2560,1669,l),
(2358,1754,o),
(1953,1833,o),
(1480,1833,cs),
(778,1833,o),
(410,1656,o),
(410,1280,c),
(410,0,l),
(614,0,l)
);
},
{
closed = 1;
nodes = (
(51,1091,l),
(2406,1091,l),
(2406,1280,l),
(51,1280,l)
);
}
);
width = 2573;
}
);
metricLeft = "=v-40";
unicode = 102;
},
{
glyphname = g;
kernLeft = o;
kernRight = n;
lastChange = "2025-01-25 17:31:50 +0000";
layers = (
{
anchors = (
{
name = bottom;
pos = (865,-512);
},
{
name = top;
pos = (865,1280);
}
);
layerId = m01;
shapes = (
{
closed = 1;
nodes = (
(1042,-512,ls),
(1383,-512,o),
(1603,-315,o),
(1603,-13,cs),
(1603,1280,l),
(1398,1280,l),
(1398,1156,l),
(1378,1156,l),
(1285,1251,o),
(1172,1280,o),
(1042,1280,cs),
(771,1280,ls),
(361,1280,o),
(100,1068,o),
(100,640,cs),
(100,212,o),
(361,0,o),
(771,0,cs),
(1042,0,ls),
(1172,0,o),
(1285,29,o),
(1378,124,c),
(1398,124,l),
(1398,-13,ls),
(1398,-192,o),
(1290,-312,o),
(1042,-312,cs),
(202,-312,l),
(202,-512,l)
);
},
{
closed = 1;
nodes = (
(771,200,ls),
(464,200,o),
(305,346,o),
(305,640,cs),
(305,937,o),
(464,1080,o),
(771,1080,cs),
(1042,1080,ls),
(1290,1080,o),
(1398,960,o),
(1398,781,cs),
(1398,499,ls),
(1398,320,o),
(1290,200,o),
(1042,200,cs)
);
}
);
width = 1763;
},
{
anchors = (
{
name = bottom;
pos = (1429,-512);
},
{
name = top;
pos = (1429,1280);
}
);
layerId = m004;
shapes = (
{
closed = 1;
nodes = (
(2168,-512,ls),
(2509,-512,o),
(2729,-315,o),
(2729,-13,cs),
(2729,1280,l),
(2524,1280,l),
(2524,1156,l),
(2504,1156,l),
(2411,1251,o),
(2298,1280,o),
(2168,1280,cs),
(771,1280,ls),
(361,1280,o),
(100,1068,o),
(100,640,cs),
(100,212,o),
(361,0,o),
(771,0,cs),
(2168,0,ls),
(2298,0,o),
(2411,29,o),
(2504,124,c),
(2524,124,l),
(2524,-13,ls),
(2524,-192,o),
(2417,-312,o),
(2168,-312,cs),
(151,-312,l),
(151,-512,l)
);
},
{
closed = 1;
nodes = (
(771,200,ls),
(464,200,o),
(305,346,o),
(305,640,cs),
(305,937,o),
(464,1080,o),
(771,1080,cs),
(2168,1080,ls),
(2417,1080,o),
(2524,960,o),
(2524,781,cs),
(2524,499,ls),
(2524,320,o),
(2417,200,o),
(2168,200,cs)
);
}
);
width = 2889;
},
{
anchors = (
{
name = bottom;
pos = (865,-512);
},
{
name = top;
pos = (865,1280);
}
);
layerId = m003;
shapes = (
{
closed = 1;
nodes = (
(1042,-512,ls),
(1383,-512,o),
(1603,-315,o),
(1603,-13,cs),
(1603,1280,l),
(1398,1280,l),
(1398,1105,l),
(1298,1105,l),
(1221,1265,o),
(1136,1280,o),
(1042,1280,cs),
(771,1280,ls),
(361,1280,o),
(100,1068,o),
(100,640,cs),
(100,212,o),
(361,0,o),
(771,0,cs),
(1042,0,ls),
(1136,0,o),
(1221,15,o),
(1298,175,c),
(1398,175,l),
(1398,-13,ls),
(1398,-192,o),
(1290,-312,o),
(1042,-312,cs),
(202,-312,l),
(202,-512,l)
);
},
{
closed = 1;
nodes = (
(771,200,ls),
(464,200,o),
(305,346,o),
(305,640,cs),
(305,937,o),
(464,1080,o),
(771,1080,cs),
(1042,1080,ls),
(1290,1080,o),
(1398,960,o),
(1398,781,cs),
(1398,499,ls),
(1398,320,o),
(1290,200,o),
(1042,200,cs)
);
}
);
width = 1763;
},
{
anchors = (
{
name = bottom;
pos = (1429,-512);
},
{
name = top;
pos = (1429,1280);
}
);
layerId = m005;
shapes = (
{
closed = 1;
nodes = (
(2168,-512,ls),
(2509,-512,o),
(2729,-315,o),
(2729,-13,cs),
(2729,1280,l),
(2524,1280,l),
(2524,1105,l),
(2424,1105,l),
(2347,1265,o),
(2262,1280,o),
(2168,1280,cs),
(771,1280,ls),
(361,1280,o),
(100,1068,o),
(100,640,cs),
(100,212,o),
(361,0,o),
(771,0,cs),
(2168,0,ls),
(2262,0,o),
(2347,15,o),
(2424,175,c),
(2524,175,l),
(2524,-13,ls),
(2524,-192,o),
(2417,-312,o),
(2168,-312,cs),
(151,-312,l),
(151,-512,l)
);
},
{
closed = 1;
nodes = (
(771,200,ls),
(464,200,o),
(305,346,o),
(305,640,cs),
(305,937,o),
(464,1080,o),
(771,1080,cs),
(2168,1080,ls),
(2417,1080,o),
(2524,960,o),
(2524,781,cs),
(2524,499,ls),
(2524,320,o),
(2417,200,o),
(2168,200,cs)
);
}
);
width = 2889;
}
);
metricLeft = o;
metricRight = n;
unicode = 103;
},
{
glyphname = h;
kernLeft = n;
kernRight = n;
lastChange = "2025-01-25 17:31:50 +0000";
layers = (
{
anchors = (
{
name = bottom;
pos = (914,0);
},
{
name = center;
pos = (410,1567);
},
{
name = top;
pos = (914,1792);
}
);
layerId = m01;
shapes = (
{
closed = 1;
nodes = (
(384,0,l),
(384,781,ls),
(384,960,o),
(492,1080,o),
(740,1080,cs),
(1086,1080,ls),
(1334,1080,o),
(1442,960,o),
(1442,781,cs),
(1442,0,l),
(1646,0,l),
(1646,781,ls),
(1646,1083,o),
(1426,1280,o),
(1086,1280,cs),
(740,1280,ls),
(610,1280,o),
(497,1251,o),
(404,1157,c),
(384,1157,l),
(384,1792,l),
(180,1792,l),
(180,0,l)
);
}
);
width = 1806;
},
{
anchors = (
{
name = bottom;
pos = (1485,0);
},
{
name = center;
pos = (410,1567);
},
{
name = top;
pos = (1485,1792);
}
);
layerId = m004;
shapes = (
{
closed = 1;
nodes = (
(384,0,l),
(384,781,ls),
(384,960,o),
(492,1080,o),
(740,1080,cs),
(2228,1080,ls),
(2476,1080,o),
(2583,960,o),
(2583,781,cs),
(2583,0,l),
(2788,0,l),
(2788,781,ls),
(2788,1083,o),
(2568,1280,o),
(2228,1280,cs),
(740,1280,ls),
(610,1280,o),
(497,1251,o),
(404,1157,c),
(384,1157,l),
(384,1792,l),
(180,1792,l),
(180,0,l)
);
}
);
width = 2948;
},
{
anchors = (
{
name = bottom;
pos = (914,0);
},
{
name = center;
pos = (410,1567);
},
{
name = top;
pos = (914,1792);
}
);
layerId = m003;
shapes = (
{
closed = 1;
nodes = (
(384,0,l),
(384,781,ls),
(384,960,o),
(492,1080,o),
(740,1080,cs),
(1086,1080,ls),
(1334,1080,o),
(1442,960,o),
(1442,781,cs),
(1442,0,l),
(1646,0,l),
(1646,781,ls),
(1646,1083,o),
(1426,1280,o),
(1086,1280,cs),
(740,1280,ls),
(646,1280,o),
(561,1265,o),
(484,1105,c),
(384,1105,l),
(384,1792,l),
(180,1792,l),
(180,0,l)
);
}
);
width = 1806;
},
{
anchors = (
{
name = bottom;
pos = (1485,0);
},
{
name = center;
pos = (410,1567);
},
{
name = top;
pos = (1485,1792);
}
);
layerId = m005;
shapes = (
{
closed = 1;
nodes = (
(384,0,l),
(384,781,ls),
(384,960,o),
(492,1080,o),
(740,1080,cs),
(2228,1080,ls),
(2476,1080,o),
(2583,960,o),
(2583,781,cs),
(2583,0,l),
(2788,0,l),
(2788,781,ls),
(2788,1083,o),
(2568,1280,o),
(2228,1280,cs),
(740,1280,ls),
(646,1280,o),
(561,1265,o),
(484,1105,c),
(384,1105,l),
(384,1792,l),
(180,1792,l),
(180,0,l)
);
}
);
width = 2948;
}
);
metricLeft = l;
metricRight = n;
unicode = 104;
},
{
glyphname = hbar;
kernLeft = n;
kernRight = n;
lastChange = "2025-01-25 17:31:50 +0000";
layers = (
{
layerId = m01;
shapes = (
{
closed = 1;
nodes = (
(597,0,l),
(597,781,ls),
(597,960,o),
(705,1080,o),
(953,1080,cs),
(1299,1080,ls),
(1547,1080,o),
(1654,960,o),
(1654,781,cs),
(1654,0,l),
(1859,0,l),
(1859,781,ls),
(1859,1083,o),
(1639,1280,o),
(1299,1280,cs),
(953,1280,ls),
(823,1280,o),
(710,1251,o),
(617,1157,c),
(597,1157,l),
(597,1467,l),
(1263,1467,l),
(1263,1667,l),
(748,1667,ls),
(667,1667,o),
(617,1603,o),
(617,1574,c),
(597,1574,l),
(597,1792,l),
(392,1792,l),
(392,1667,l),
(60,1667,l),
(60,1467,l),
(241,1467,ls),
(322,1467,o),
(372,1531,o),
(372,1560,c),
(392,1560,l),
(392,0,l)
);
}
);
width = 2019;
},
{
layerId = m004;
shapes = (
{
closed = 1;
nodes = (
(674,0,l),
(674,781,ls),
(674,960,o),
(782,1080,o),
(1030,1080,cs),
(2517,1080,ls),
(2766,1080,o),
(2873,960,o),
(2873,781,cs),
(2873,0,l),
(3078,0,l),
(3078,781,ls),
(3078,1083,o),
(2858,1280,o),
(2517,1280,cs),
(1030,1280,ls),
(900,1280,o),
(787,1251,o),
(694,1156,c),
(674,1156,l),
(674,1467,l),
(1852,1467,l),
(1852,1667,l),
(825,1667,ls),
(744,1667,o),
(694,1603,o),
(694,1574,c),
(674,1574,l),
(674,1792,l),
(469,1792,l),
(469,1667,l),
(60,1667,l),
(60,1467,l),
(318,1467,ls),
(399,1467,o),
(449,1531,o),
(449,1560,c),
(469,1560,l),
(469,0,l)
);
}
);
width = 3238;
},
{
layerId = m003;
shapes = (
{
closed = 1;
nodes = (
(597,0,l),
(597,781,ls),
(597,960,o),
(705,1080,o),
(953,1080,cs),
(1299,1080,ls),
(1547,1080,o),
(1654,960,o),
(1654,781,cs),
(1654,0,l),
(1859,0,l),
(1859,781,ls),
(1859,1083,o),
(1639,1280,o),
(1299,1280,cs),
(953,1280,ls),
(859,1280,o),
(774,1265,o),
(697,1105,c),
(597,1105,l),
(597,1467,l),
(1263,1467,l),
(1263,1667,l),
(904,1667,ls),
(797,1667,o),
(723,1603,o),
(723,1574,c),
(597,1574,l),
(597,1792,l),
(392,1792,l),
(392,1667,l),
(60,1667,l),
(60,1467,l),
(85,1467,ls),
(192,1467,o),
(266,1531,o),
(266,1560,c),
(392,1560,l),
(392,0,l)
);
}
);
width = 2019;
},
{
layerId = m005;
shapes = (
{
closed = 1;
nodes = (
(674,0,l),
(674,781,ls),
(674,960,o),
(782,1080,o),
(1030,1080,cs),
(2517,1080,ls),
(2766,1080,o),
(2873,960,o),
(2873,781,cs),
(2873,0,l),
(3078,0,l),
(3078,781,ls),
(3078,1083,o),
(2858,1280,o),
(2517,1280,cs),
(1030,1280,ls),
(936,1280,o),
(851,1265,o),
(774,1105,c),
(674,1105,l),
(674,1467,l),
(1852,1467,l),
(1852,1667,l),
(981,1667,ls),
(874,1667,o),
(800,1603,o),
(800,1574,c),
(674,1574,l),
(674,1792,l),
(469,1792,l),
(469,1667,l),
(60,1667,l),
(60,1467,l),
(162,1467,ls),
(269,1467,o),
(343,1531,o),
(343,1560,c),
(469,1560,l),
(469,0,l)
);
}
);
width = 3238;
}
);
metricLeft = "=h-120";
metricRight = n;
unicode = 295;
},
{
color = 8;
glyphname = idotless;
kernLeft = i;
kernRight = i;
lastChange = "2025-01-25 17:31:50 +0000";
layers = (
{
anchors = (
{
name = bottom;
pos = (263,0);
},
{
name = ogonek;
pos = (365,26);
},
{
name = top;
pos = (263,1280);
}
);
layerId = m01;
shapes = (
{
closed = 1;
nodes = (
(365,0,l),
(365,1280,l),
(160,1280,l),
(160,0,l)
);
}
);
width = 525;
},
{
anchors = (
{
name = bottom;
pos = (263,0);
},
{
name = ogonek;
pos = (365,26);
},
{
name = top;
pos = (263,1280);
}
);
layerId = m004;
shapes = (
{
closed = 1;
nodes = (
(365,0,l),
(365,1280,l),
(160,1280,l),
(160,0,l)
);
}
);
width = 525;
},
{
anchors = (
{
name = bottom;
pos = (263,0);
},
{
name = ogonek;
pos = (365,26);
},
{
name = top;
pos = (263,1280);
}
);
layerId = m003;
shapes = (
{
closed = 1;
nodes = (
(365,0,l),
(365,1280,l),
(160,1280,l),
(160,0,l)
);
}
);
width = 525;
},
{
anchors = (
{
name = bottom;
pos = (263,0);
},
{
name = ogonek;
pos = (365,26);
},
{
name = top;
pos = (263,1280);
}
);
layerId = m005;
shapes = (
{
closed = 1;
nodes = (
(365,0,l),
(365,1280,l),
(160,1280,l),
(160,0,l)
);
}
);
width = 525;
}
);
metricLeft = n;
metricRight = n;
unicode = 305;
},
{
color = 8;
glyphname = jdotless;
kernLeft = i;
kernRight = i;
lastChange = "2025-01-25 17:31:50 +0000";
layers = (
{
anchors = (
{
name = bottom;
pos = (0,-512);
},
{
name = top;
pos = (256,1280);
}
);
layerId = m01;
shapes = (
{
closed = 1;
nodes = (
(-200,-512,ls),
(141,-512,o),
(361,-315,o),
(361,-13,cs),
(361,1280,l),
(156,1280,l),
(156,-13,ls),
(156,-192,o),
(49,-312,o),
(-200,-312,cs),
(-220,-312,l),
(-220,-512,l)
);
}
);
width = 521;
},
{
anchors = (
{
name = bottom;
pos = (0,-512);
},
{
name = top;
pos = (270,1280);
}
);
layerId = m004;
shapes = (
{
closed = 1;
nodes = (
(-188,-512,ls),
(152,-512,o),
(372,-315,o),
(372,-13,cs),
(372,1280,l),
(168,1280,l),
(168,-13,ls),
(168,-192,o),
(60,-312,o),
(-188,-312,cs),
(-348,-312,l),
(-348,-512,l)
);
}
);
width = 532;
},
{
anchors = (
{
name = bottom;
pos = (0,-512);
},
{
name = top;
pos = (256,1280);
}
);
layerId = m003;
shapes = (
{
closed = 1;
nodes = (
(-200,-512,ls),
(141,-512,o),
(361,-315,o),
(361,-13,cs),
(361,1280,l),
(156,1280,l),
(156,-13,ls),
(156,-192,o),
(49,-312,o),
(-200,-312,cs),
(-220,-312,l),
(-220,-512,l)
);
}
);
width = 521;
},
{
anchors = (
{
name = bottom;
pos = (0,-512);
},
{
name = top;
pos = (270,1280);
}
);
layerId = m005;
shapes = (
{
closed = 1;
nodes = (
(-188,-512,ls),
(152,-512,o),
(372,-315,o),
(372,-13,cs),
(372,1280,l),
(168,1280,l),
(168,-13,ls),
(168,-192,o),
(60,-312,o),
(-188,-312,cs),
(-348,-312,l),
(-348,-512,l)
);
}
);
width = 532;
},
{
anchors = (
{
name = bottom;
pos = (0,-512);
},
{
name = top;
pos = (270,1280);
}
);
associatedMasterId = m005;
layerId = "7F8F19F3-6929-4B77-B9BC-8F7920661EDD";
name = CurvedTail;
shapes = (
{
closed = 1;
nodes = (
(-188,-512,l),
(152,-512,o),
(372,-315,o),
(372,-13,c),
(372,1280,l),
(168,1280,l),
(168,-13,l),
(168,-192,o),
(60,-312,o),
(-188,-312,c),
(-348,-312,l),
(-348,-512,l)
);
}
);
width = 532;
},
{
anchors = (
{
name = bottom;
pos = (0,-512);
},
{
name = top;
pos = (270,1280);
}
);
associatedMasterId = m005;
layerId = "15419D4A-1E0D-4B46-ACEB-CBB5EE57F089";
name = StraightTail;
shapes = (
{
closed = 1;
nodes = (
(372,-512,l),
(372,1280,l),
(168,1280,l),
(168,-512,l)
);
}
);
width = 532;
},
{
anchors = (
{
name = bottom;
pos = (0,-512);
},
{
name = top;
pos = (270,1280);
}
);
associatedMasterId = m004;
layerId = "22976B60-BF92-48D7-9598-49F5A475CDBD";
name = CurvedTail;
shapes = (
{
closed = 1;
nodes = (
(-188,-512,l),
(152,-512,o),
(372,-315,o),
(372,-13,c),
(372,1280,l),
(168,1280,l),
(168,-13,l),
(168,-192,o),
(60,-312,o),
(-188,-312,c),
(-348,-312,l),
(-348,-512,l)
);
}
);
width = 532;
},
{
anchors = (
{
name = bottom;
pos = (0,-512);
},
{
name = top;
pos = (270,1280);
}
);
associatedMasterId = m004;
layerId = "C164ED12-96A8-4DF7-8EB1-77C7F887F97C";
name = StraightTail;
shapes = (
{
closed = 1;
nodes = (
(372,-512,l),
(372,1280,l),
(168,1280,l),
(168,-512,l)
);
}
);
width = 532;
},
{
anchors = (
{
name = bottom;
pos = (0,-512);
},
{
name = top;
pos = (256,1280);
}
);
associatedMasterId = m003;
layerId = "4C7F80A1-7BE2-4114-9986-AF258163563E";
name = CurvedTail;
shapes = (
{
closed = 1;
nodes = (
(-200,-512,l),
(141,-512,o),
(361,-315,o),
(361,-13,c),
(361,1280,l),
(156,1280,l),
(156,-13,l),
(156,-192,o),
(49,-312,o),
(-200,-312,c),
(-220,-312,l),
(-220,-512,l)
);
}
);
width = 521;
},
{
anchors = (
{
name = bottom;
pos = (0,-512);
},
{
name = top;
pos = (256,1280);
}
);
associatedMasterId = m003;
layerId = "2779AEF5-1D25-4890-86CF-5659EEBDE1F0";
name = StraightTail;
shapes = (
{
closed = 1;
nodes = (
(361,-512,l),
(361,1280,l),
(156,1280,l),
(156,-512,l)
);
}
);
width = 521;
},
{
anchors = (
{
name = bottom;
pos = (0,-512);
},
{
name = top;
pos = (256,1280);
}
);
associatedMasterId = m01;
layerId = "C174D913-E332-4795-B0D3-E97371C349A3";
name = CurvedTail;
shapes = (
{
closed = 1;
nodes = (
(-200,-512,l),
(141,-512,o),
(361,-315,o),
(361,-13,c),
(361,1280,l),
(156,1280,l),
(156,-13,l),
(156,-192,o),
(49,-312,o),
(-200,-312,c),
(-220,-312,l),
(-220,-512,l)
);
}
);
width = 521;
},
{
anchors = (
{
name = bottom;
pos = (0,-512);
},
{
name = top;
pos = (256,1280);
}
);
associatedMasterId = m01;
layerId = "28F11B31-E6E8-4887-A0FB-D49F076E40BE";
name = StraightTail;
shapes = (
{
closed = 1;
nodes = (
(361,-512,l),
(361,1280,l),
(156,1280,l),
(156,-512,l)
);
}
);
width = 521;
}
);
metricRight = n;
unicode = 567;
},
{
glyphname = k;
kernLeft = n;
kernRight = v;
lastChange = "2025-01-25 17:31:50 +0000";
layers = (
{
anchors = (
{
name = bottom;
pos = (1314,0);
},
{
name = top;
pos = (1314,1792);
}
);
guides = (
{
angle = 270;
pos = (692,80);
},
{
pos = (366,351);
},
{
pos = (366,269);
}
);
layerId = m004;
shapes = (
{
closed = 1;
nodes = (
(384,0,l),
(384,589,l),
(945,766,l),
(2145,0,l),
(2525,0,l),
(1182,840,l),
(2576,1280,l),
(1928,1280,l),
(571,853,ls),
(495,829,o),
(420,785,o),
(410,734,c),
(384,734,l),
(384,1792,l),
(180,1792,l),
(180,0,l)
);
}
);
width = 2636;
},
{
associatedMasterId = m004;
guides = (
{
angle = 270;
pos = (676,80);
}
);
layerId = "84274A99-115E-4EAD-8661-ECB468576A39";
name = "11. 7. 23 1:41 PM";
shapes = (
{
closed = 1;
nodes = (
(179,1792,l),
(179,0,l),
(384,0,l),
(384,1792,l)
);
},
{
closed = 1;
nodes = (
(384,440,l),
(2575,1280,l),
(2030,1280,l),
(384,643,l)
);
},
{
closed = 1;
nodes = (
(2214,0,l),
(2499,0,l),
(1613,1021,l),
(1423,929,l)
);
}
);
width = 2627;
},
{
associatedMasterId = m01;
guides = (
{
angle = 270;
pos = (606,80);
}
);
layerId = "259A73BA-79FC-42BA-AD89-0C2F93CD23A8";
name = "29. 3. 24 at 7:49 PM";
shapes = (
{
closed = 1;
nodes = (
(179,1792,l),
(179,0,l),
(384,0,l),
(384,1792,l)
);
},
{
closed = 1;
nodes = (
(384,581,l),
(1464,1280,l),
(1096,1280,l),
(384,806,l)
);
},
{
closed = 1;
nodes = (
(1270,0,l),
(1526,0,l),
(794,850,l),
(640,763,l)
);
}
);
width = 1577;
},
{
anchors = (
{
name = bottom;
pos = (850,0);
},
{
name = top;
pos = (850,1792);
}
);
guides = (
{
angle = 270;
pos = (622,80);
}
);
layerId = m003;
shapes = (
{
closed = 1;
nodes = (
(384,0,l),
(384,595,l),
(671,751,l),
(1332,0,l),
(1595,0,l),
(844,845,l),
(1646,1280,l),
(1239,1280,l),
(632,950,ls),
(517,887,o),
(489,794,o),
(484,754,c),
(384,754,l),
(384,1792,l),
(180,1792,l),
(180,0,l)
);
}
);
width = 1706;
},
{
associatedMasterId = m003;
guides = (
{
angle = 270;
pos = (606,80);
}
);
layerId = "9357EF6B-6E18-47D1-A609-4B8FBBD3B816";
name = "29. 3. 24 at 7:49 PM";
shapes = (
{
closed = 1;
nodes = (
(179,1792,l),
(179,0,l),
(384,0,l),
(384,1792,l)
);
},
{
closed = 1;
nodes = (
(384,581,l),
(1464,1280,l),
(1096,1280,l),
(384,806,l)
);
},
{
closed = 1;
nodes = (
(1270,0,l),
(1526,0,l),
(794,850,l),
(640,763,l)
);
}
);
width = 1577;
},
{
anchors = (
{
name = bottom;
pos = (1314,0);
},
{
name = top;
pos = (1314,1792);
}
);
guides = (
{
angle = 270;
pos = (692,80);
},
{
pos = (366,351);
},
{
pos = (366,269);
}
);
layerId = m005;
shapes = (
{
closed = 1;
nodes = (
(384,0,l),
(384,589,l),
(945,766,l),
(2145,0,l),
(2525,0,l),
(1182,840,l),
(2576,1280,l),
(1928,1280,l),
(654,879,ls),
(528,839,o),
(489,773,o),
(484,733,c),
(384,733,l),
(384,1792,l),
(180,1792,l),
(180,0,l)
);
}
);
width = 2636;
},
{
associatedMasterId = m005;
guides = (
{
angle = 270;
pos = (676,80);
}
);
layerId = "998438BB-CA8D-4CC6-9B40-6FB639BB2B9B";
name = "11. 7. 23 1:41 PM";
shapes = (
{
closed = 1;
nodes = (
(179,1792,l),
(179,0,l),
(384,0,l),
(384,1792,l)
);
},
{
closed = 1;
nodes = (
(384,440,l),
(2575,1280,l),
(2030,1280,l),
(384,643,l)
);
},
{
closed = 1;
nodes = (
(2214,0,l),
(2499,0,l),
(1613,1021,l),
(1423,929,l)
);
}
);
width = 2627;
},
{
associatedMasterId = m01;
guides = (
{
angle = 270;
pos = (606,80);
}
);
hints = (
{
name = _corner.ink2;
options = 2;
origin = (1,5);
type = Corner;
}
);
layerId = "CD813974-90C4-45A0-99BB-1BC45ECF5825";
name = "3. 4. 24 at 9:19 PM";
shapes = (
{
closed = 1;
nodes = (
(179,1295,l),
(179,0,l),
(384,0,l),
(384,1295,l)
);
},
{
closed = 1;
nodes = (
(1441,0,l),
(1646,0,l),
(1646,282,ls),
(1646,468,o),
(1562,614,o),
(1393,699,c),
(1531,786,o),
(1595,919,o),
(1595,1080,cs),
(1595,1280,l),
(1390,1280,l),
(1390,1080,ls),
(1390,901,o),
(1283,781,o),
(1034,781,cs),
(307,781,l),
(307,581,l),
(1085,581,ls),
(1334,581,o),
(1441,461,o),
(1441,282,cs)
);
}
);
width = 1774;
},
{
associatedMasterId = m004;
guides = (
{
angle = 270;
pos = (676,80);
},
{
pos = (350,351);
},
{
pos = (350,269);
}
);
hints = (
{
name = _corner.ink2;
options = 2;
origin = (1,5);
type = Corner;
}
);
layerId = "14663F9A-8A6E-4104-A4B9-C2386A5FAF02";
name = "3. 4. 24 at 9:37 PM";
shapes = (
{
closed = 1;
nodes = (
(179,1280,l),
(179,0,l),
(384,0,l),
(384,1280,l)
);
},
{
closed = 1;
nodes = (
(2371,0,l),
(2575,0,l),
(2575,282,ls),
(2575,468,o),
(2491,614,o),
(2322,699,c),
(2460,786,o),
(2524,919,o),
(2524,1080,cs),
(2524,1280,l),
(2319,1280,l),
(2319,1080,ls),
(2319,901,o),
(2212,781,o),
(1964,781,cs),
(307,781,l),
(307,581,l),
(2015,581,ls),
(2263,581,o),
(2371,461,o),
(2371,282,cs)
);
}
);
width = 2703;
},
{
associatedMasterId = m003;
guides = (
{
angle = 270;
pos = (606,80);
}
);
hints = (
{
name = _corner.ink2;
options = 2;
origin = (1,5);
scale = (0.8,0.8);
type = Corner;
}
);
layerId = "3F79E08B-7FB2-434A-9DAA-BD2A6CB77ACD";
name = "3. 4. 24 at 9:40 PM";
shapes = (
{
closed = 1;
nodes = (
(179,1295,l),
(179,0,l),
(384,0,l),
(384,1295,l)
);
},
{
closed = 1;
nodes = (
(1441,0,l),
(1646,0,l),
(1646,282,ls),
(1646,468,o),
(1562,614,o),
(1393,699,c),
(1531,786,o),
(1595,919,o),
(1595,1080,cs),
(1595,1280,l),
(1390,1280,l),
(1390,1080,ls),
(1390,901,o),
(1283,781,o),
(1034,781,cs),
(307,781,l),
(307,581,l),
(1085,581,ls),
(1334,581,o),
(1441,461,o),
(1441,282,cs)
);
}
);
width = 1774;
},
{
associatedMasterId = m01;
guides = (
{
angle = 270;
pos = (643,250);
},
{
angle = 101.441;
pos = (332,292);
}
);
hints = (
{
name = _corner.ink2;
origin = (0,2);
scale = (1.5,0);
type = Corner;
}
);
layerId = "5742C3EB-CF5D-4D12-807D-7C75859E45BF";
name = "5. 4. 24 at 8:53 PM";
shapes = (
{
closed = 1;
nodes = (
(179,1792,l),
(179,0,l),
(384,0,l),
(384,1792,l)
);
},
{
closed = 1;
nodes = (
(1221,1280,l),
(358,812,l),
(358,581,l),
(1646,1280,l)
);
},
{
closed = 1;
nodes = (
(643,758,l),
(668,635,l),
(753,212,o),
(934,0,o),
(1339,0,c),
(1646,0,l),
(1646,200,l),
(1339,200,l),
(1032,200,o),
(929,361,o),
(873,640,c),
(829,855,l)
);
}
);
width = 1774;
},
{
anchors = (
{
name = bottom;
pos = (850,0);
},
{
name = top;
pos = (850,1792);
}
);
guides = (
{
angle = 270;
pos = (659,250);
}
);
layerId = m01;
name = "Regular Semi Expaned";
shapes = (
{
closed = 1;
nodes = (
(384,0,l),
(384,595,l),
(671,751,l),
(1332,0,l),
(1595,0,l),
(844,845,l),
(1646,1280,l),
(1239,1280,l),
(556,909,ls),
(486,870,o),
(420,806,o),
(410,755,c),
(384,755,l),
(384,1792,l),
(180,1792,l),
(180,0,l)
);
}
);
width = 1706;
},
{
anchors = (
{
name = bottom;
pos = (824,0);
},
{
name = top;
pos = (824,1792);
}
);
associatedMasterId = m01;
guides = (
{
angle = 270;
pos = (633,250);
}
);
hints = (
{
name = _corner.diagonal;
origin = (0,2,1,1);
stem = 1000;
type = Corner;
}
);
layerId = "01249C27-50E8-460D-8FCF-619D184813A6";
name = "12. 11. 24 at 7:29 AM";
shapes = (
{
closed = 1;
nodes = (
(1620,1280,l),
(1213,1280,l),
(333,801,l),
(333,581,l)
);
},
{
closed = 1;
nodes = (
(358,0,l),
(358,1792,l),
(154,1792,l),
(154,0,l)
);
},
{
closed = 1;
nodes = (
(1569,0,l),
(653,781,l),
(476,676,l),
(1270,0,l)
);
}
);
width = 1646;
}
);
metricLeft = l;
metricRight = v;
unicode = 107;
},
{
glyphname = l;
kernLeft = f;
kernRight = f;
lastChange = "2025-01-25 17:31:50 +0000";
layers = (
{
anchors = (
{
name = bottom;
pos = (282,0);
},
{
name = center;
pos = (282,845);
},
{
name = top;
pos = (282,1859);
},
{
name = topright;
pos = (487,1859);
}
);
layerId = m01;
shapes = (
{
closed = 1;
nodes = (
(384,0,l),
(384,1859,l),
(180,1859,l),
(180,0,l)
);
}
);
width = 564;
},
{
anchors = (
{
name = bottom;
pos = (282,0);
},
{
name = center;
pos = (282,845);
},
{
name = top;
pos = (282,1859);
},
{
name = topright;
pos = (487,1859);
}
);
layerId = m004;
shapes = (
{
closed = 1;
nodes = (
(384,0,l),
(384,1859,l),
(180,1859,l),
(180,0,l)
);
}
);
width = 564;
},
{
anchors = (
{
name = bottom;
pos = (282,0);
},
{
name = center;
pos = (282,845);
},
{
name = top;
pos = (282,1859);
},
{
name = topright;
pos = (487,1859);
}
);
layerId = m003;
shapes = (
{
closed = 1;
nodes = (
(384,0,l),
(384,1859,l),
(180,1859,l),
(180,0,l)
);
}
);
width = 564;
},
{
anchors = (
{
name = bottom;
pos = (282,0);
},
{
name = center;
pos = (282,845);
},
{
name = top;
pos = (282,1859);
},
{
name = topright;
pos = (487,1859);
}
);
layerId = m005;
shapes = (
{
closed = 1;
nodes = (
(384,0,l),
(384,1859,l),
(180,1859,l),
(180,0,l)
);
}
);
width = 564;
}
);
metricLeft = H;
metricRight = H;
unicode = 108;
},
{
glyphname = lslash;
kernLeft = f;
kernRight = f;
lastChange = "2025-01-25 17:31:50 +0000";
layers = (
{
layerId = m01;
shapes = (
{
closed = 1;
nodes = (
(594,0,l),
(594,793,l),
(942,950,l),
(861,1121,l),
(773,1082,ls),
(700,1049,o),
(630,993,o),
(620,942,c),
(594,942,l),
(594,1859,l),
(389,1859,l),
(389,911,l),
(40,756,l),
(122,581,l),
(210,621,ls),
(283,654,o),
(353,710,o),
(363,761,c),
(389,761,l),
(389,0,l)
);
}
);
width = 982;
},
{
layerId = m004;
shapes = (
{
closed = 1;
nodes = (
(666,0,l),
(666,784,l),
(1086,929,l),
(1022,1106,l),
(845,1045,ls),
(772,1019,o),
(698,972,o),
(689,911,c),
(666,911,l),
(666,1859,l),
(461,1859,l),
(461,913,l),
(40,768,l),
(106,591,l),
(282,651,ls),
(355,677,o),
(429,724,o),
(438,785,c),
(461,785,l),
(461,0,l)
);
}
);
width = 1126;
},
{
guides = (
{
angle = 25.0284;
pos = (230,297);
},
{
angle = 204.8552;
pos = (198,364);
}
);
layerId = m003;
shapes = (
{
closed = 1;
nodes = (
(594,0,l),
(594,793,l),
(942,950,l),
(861,1121,l),
(832,1108,ls),
(721,1058,o),
(689,979,o),
(684,935,c),
(594,935,l),
(594,1859,l),
(389,1859,l),
(389,911,l),
(40,756,l),
(122,581,l),
(149,593,ls),
(260,644,o),
(295,726,o),
(299,774,c),
(389,774,l),
(389,0,l)
);
}
);
width = 982;
},
{
layerId = m005;
shapes = (
{
closed = 1;
nodes = (
(666,0,l),
(666,784,l),
(1086,929,l),
(1022,1106,l),
(915,1069,ls),
(799,1028,o),
(761,958,o),
(756,910,c),
(666,910,l),
(666,1859,l),
(461,1859,l),
(461,913,l),
(40,768,l),
(106,591,l),
(212,627,ls),
(328,668,o),
(367,738,o),
(371,786,c),
(461,786,l),
(461,0,l)
);
}
);
width = 1126;
}
);
metricLeft = "=l-140";
metricRight = "=l-140";
unicode = 322;
},
{
glyphname = m;
kernLeft = n;
kernRight = n;
lastChange = "2025-01-25 17:31:50 +0000";
layers = (
{
anchors = (
{
name = bottom;
pos = (1447,0);
},
{
name = top;
pos = (1447,1280);
}
);
layerId = m01;
shapes = (
{
closed = 1;
nodes = (
(364,0,l),
(364,781,ls),
(364,960,o),
(472,1080,o),
(720,1080,cs),
(989,1080,ls),
(1237,1080,o),
(1345,960,o),
(1345,781,cs),
(1345,0,l),
(1550,0,l),
(1550,781,ls),
(1550,960,o),
(1657,1080,o),
(1906,1080,cs),
(2174,1080,ls),
(2423,1080,o),
(2530,960,o),
(2530,781,cs),
(2530,0,l),
(2735,0,l),
(2735,781,ls),
(2735,1083,o),
(2515,1280,o),
(2174,1280,cs),
(1906,1280,ls),
(1707,1280,o),
(1552,1214,o),
(1457,1092,c),
(1437,1092,l),
(1343,1214,o),
(1187,1280,o),
(989,1280,cs),
(720,1280,ls),
(590,1280,o),
(477,1251,o),
(384,1157,c),
(364,1157,l),
(364,1280,l),
(160,1280,l),
(160,0,l)
);
}
);
width = 2895;
},
{
anchors = (
{
name = bottom;
pos = (2103,0);
},
{
name = top;
pos = (2103,1280);
}
);
layerId = m004;
shapes = (
{
closed = 1;
nodes = (
(364,0,l),
(364,781,ls),
(364,960,o),
(472,1080,o),
(720,1080,cs),
(1644,1080,ls),
(1893,1080,o),
(2000,960,o),
(2000,781,cs),
(2000,0,l),
(2205,0,l),
(2205,781,ls),
(2205,960,o),
(2313,1080,o),
(2561,1080,cs),
(3485,1080,ls),
(3733,1080,o),
(3841,960,o),
(3841,781,cs),
(3841,0,l),
(4046,0,l),
(4046,781,ls),
(4046,1083,o),
(3826,1280,o),
(3485,1280,cs),
(2561,1280,ls),
(2363,1280,o),
(2207,1214,o),
(2113,1092,c),
(2093,1092,l),
(1998,1214,o),
(1843,1280,o),
(1644,1280,cs),
(720,1280,ls),
(590,1280,o),
(477,1251,o),
(384,1157,c),
(364,1157,l),
(364,1280,l),
(160,1280,l),
(160,0,l)
);
}
);
width = 4206;
},
{
anchors = (
{
name = bottom;
pos = (2103,0);
},
{
name = top;
pos = (2103,1280);
}
);
layerId = m005;
shapes = (
{
closed = 1;
nodes = (
(364,0,l),
(364,781,ls),
(364,960,o),
(472,1080,o),
(720,1080,cs),
(1644,1080,ls),
(1893,1080,o),
(2000,960,o),
(2000,781,cs),
(2000,0,l),
(2205,0,l),
(2205,781,ls),
(2205,960,o),
(2313,1080,o),
(2561,1080,cs),
(3485,1080,ls),
(3733,1080,o),
(3841,960,o),
(3841,781,cs),
(3841,0,l),
(4046,0,l),
(4046,781,ls),
(4046,1083,o),
(3826,1280,o),
(3485,1280,cs),
(2561,1280,ls),
(2379,1280,o),
(2232,1224,o),
(2148,1099,c),
(2058,1099,l),
(1974,1224,o),
(1827,1280,o),
(1644,1280,cs),
(720,1280,ls),
(626,1280,o),
(541,1265,o),
(464,1105,c),
(364,1105,l),
(364,1280,l),
(160,1280,l),
(160,0,l)
);
}
);
width = 4206;
},
{
associatedMasterId = m003;
hints = (
{
name = _corner.ink;
origin = (0,2,1,4);
stem = 1000;
type = Corner;
}
);
layerId = "BFFF3B81-E17D-4AB2-83AF-B937AA96576B";
name = "5. 4. 24 at 9:42 PM";
shapes = (
{
closed = 1;
nodes = (
(154,0,l),
(358,0,l),
(358,1280,l),
(154,1280,l)
);
},
{
closed = 1;
nodes = (
(1544,1280,l),
(714,1280,ls),
(374,1280,o),
(154,1083,o),
(154,781,c),
(358,781,l),
(358,960,o),
(466,1080,o),
(714,1080,cs),
(1544,1080,l)
);
},
{
closed = 1;
nodes = (
(2524,0,l),
(2729,0,l),
(2729,781,ls),
(2729,1083,o),
(2509,1280,o),
(2168,1280,cs),
(1900,1280,ls),
(1559,1280,o),
(1339,1083,o),
(1339,781,c),
(1544,781,l),
(1544,960,o),
(1651,1080,o),
(1900,1080,cs),
(2168,1080,ls),
(2417,1080,o),
(2524,960,o),
(2524,781,cs)
);
},
{
closed = 1;
nodes = (
(1339,1157,l),
(1339,0,l),
(1544,0,l),
(1544,1157,l)
);
}
);
width = 2883;
},
{
anchors = (
{
name = bottom;
pos = (1447,0);
},
{
name = top;
pos = (1447,1280);
}
);
layerId = m003;
name = "Regular Semi Expaned Ink Trap";
shapes = (
{
closed = 1;
nodes = (
(364,0,l),
(364,781,ls),
(364,960,o),
(472,1080,o),
(720,1080,cs),
(989,1080,ls),
(1237,1080,o),
(1345,960,o),
(1345,781,cs),
(1345,0,l),
(1550,0,l),
(1550,781,ls),
(1550,960,o),
(1657,1080,o),
(1906,1080,cs),
(2174,1080,ls),
(2423,1080,o),
(2530,960,o),
(2530,781,cs),
(2530,0,l),
(2735,0,l),
(2735,781,ls),
(2735,1083,o),
(2515,1280,o),
(2174,1280,cs),
(1906,1280,ls),
(1725,1280,o),
(1580,1225,o),
(1497,1097,c),
(1397,1097,l),
(1315,1225,o),
(1169,1280,o),
(989,1280,cs),
(720,1280,ls),
(626,1280,o),
(541,1265,o),
(464,1105,c),
(364,1105,l),
(364,1280,l),
(160,1280,l),
(160,0,l)
);
}
);
width = 2895;
}
);
metricLeft = n;
metricRight = n;
unicode = 109;
},
{
glyphname = n;
kernLeft = n;
kernRight = n;
lastChange = "2025-01-25 17:31:50 +0000";
layers = (
{
anchors = (
{
name = bottom;
pos = (907,0);
},
{
name = top;
pos = (907,1280);
}
);
layerId = m01;
shapes = (
{
closed = 1;
nodes = (
(364,0,l),
(364,781,ls),
(364,960,o),
(472,1080,o),
(720,1080,cs),
(1091,1080,ls),
(1340,1080,o),
(1447,960,o),
(1447,781,cs),
(1447,0,l),
(1652,0,l),
(1652,781,ls),
(1652,1083,o),
(1432,1280,o),
(1091,1280,cs),
(720,1280,ls),
(590,1280,o),
(477,1251,o),
(384,1157,c),
(364,1157,l),
(364,1280,l),
(160,1280,l),
(160,0,l)
);
}
);
width = 1812;
},
{
anchors = (
{
name = bottom;
pos = (1478,0);
},
{
name = top;
pos = (1478,1280);
}
);
layerId = m004;
shapes = (
{
closed = 1;
nodes = (
(364,0,l),
(364,781,ls),
(364,960,o),
(472,1080,o),
(720,1080,cs),
(2233,1080,ls),
(2482,1080,o),
(2589,960,o),
(2589,781,cs),
(2589,0,l),
(2794,0,l),
(2794,781,ls),
(2794,1083,o),
(2574,1280,o),
(2233,1280,cs),
(720,1280,ls),
(590,1280,o),
(477,1251,o),
(384,1157,c),
(364,1157,l),
(364,1280,l),
(160,1280,l),
(160,0,l)
);
}
);
width = 2954;
},
{
anchors = (
{
name = bottom;
pos = (907,0);
},
{
name = top;
pos = (907,1280);
}
);
layerId = m003;
shapes = (
{
closed = 1;
nodes = (
(364,0,l),
(364,781,ls),
(364,960,o),
(472,1080,o),
(720,1080,cs),
(1091,1080,ls),
(1340,1080,o),
(1447,960,o),
(1447,781,cs),
(1447,0,l),
(1652,0,l),
(1652,781,ls),
(1652,1083,o),
(1432,1280,o),
(1091,1280,cs),
(720,1280,ls),
(626,1280,o),
(541,1265,o),
(464,1105,c),
(364,1105,l),
(364,1280,l),
(160,1280,l),
(160,0,l)
);
}
);
width = 1812;
},
{
anchors = (
{
name = bottom;
pos = (1478,0);
},
{
name = top;
pos = (1478,1280);
}
);
layerId = m005;
shapes = (
{
closed = 1;
nodes = (
(364,0,l),
(364,781,ls),
(364,960,o),
(472,1080,o),
(720,1080,cs),
(2233,1080,ls),
(2482,1080,o),
(2589,960,o),
(2589,781,cs),
(2589,0,l),
(2794,0,l),
(2794,781,ls),
(2794,1083,o),
(2574,1280,o),
(2233,1280,cs),
(720,1280,ls),
(626,1280,o),
(541,1265,o),
(464,1105,c),
(364,1105,l),
(364,1280,l),
(160,1280,l),
(160,0,l)
);
}
);
width = 2954;
}
);
unicode = 110;
},
{
glyphname = o;
kernLeft = o;
kernRight = o;
lastChange = "2025-01-25 17:31:50 +0000";
layers = (
{
anchors = (
{
name = bottom;
pos = (914,0);
},
{
name = center;
pos = (914,640);
},
{
name = ogonek;
pos = (1647,26);
},
{
name = top;
pos = (914,1280);
},
{
name = topright;
pos = (1780,1280);
}
);
layerId = m01;
shapes = (
{
closed = 1;
nodes = (
(1058,0,ls),
(1467,0,o),
(1729,212,o),
(1729,640,cs),
(1729,1068,o),
(1467,1280,o),
(1058,1280,cs),
(771,1280,ls),
(362,1280,o),
(100,1068,o),
(100,640,cs),
(100,212,o),
(362,0,o),
(771,0,cs)
);
},
{
closed = 1;
nodes = (
(771,200,ls),
(464,200,o),
(305,343,o),
(305,640,cs),
(305,934,o),
(464,1080,o),
(771,1080,cs),
(1058,1080,ls),
(1365,1080,o),
(1524,934,o),
(1524,640,cs),
(1524,343,o),
(1365,200,o),
(1058,200,cs)
);
}
);
width = 1829;
},
{
anchors = (
{
name = bottom;
pos = (1478,0);
},
{
name = center;
pos = (1478,640);
},
{
name = ogonek;
pos = (2660,26);
},
{
name = top;
pos = (1478,1280);
},
{
name = topright;
pos = (2906,1280);
}
);
layerId = m004;
shapes = (
{
closed = 1;
nodes = (
(2184,0,ls),
(2594,0,o),
(2855,212,o),
(2855,640,cs),
(2855,1068,o),
(2594,1280,o),
(2184,1280,cs),
(771,1280,ls),
(362,1280,o),
(100,1068,o),
(100,640,cs),
(100,212,o),
(362,0,o),
(771,0,cs)
);
},
{
closed = 1;
nodes = (
(771,200,ls),
(464,200,o),
(305,343,o),
(305,640,cs),
(305,934,o),
(464,1080,o),
(771,1080,cs),
(2184,1080,ls),
(2491,1080,o),
(2650,934,o),
(2650,640,cs),
(2650,343,o),
(2491,200,o),
(2184,200,cs)
);
}
);
width = 2955;
},
{
associatedMasterId = m004;
layerId = "65173110-CC73-4742-B905-87A0C13FB7C6";
name = "29. 3. 24 at 7:08 PM";
shapes = (
{
closed = 1;
nodes = (
(517,1318,o),
(102,1065,o),
(102,637,cs),
(102,210,o),
(517,-44,o),
(1480,-44,cs),
(2442,-44,o),
(2857,210,o),
(2857,637,cs),
(2857,1065,o),
(2442,1318,o),
(1480,1318,cs)
);
},
{
closed = 1;
nodes = (
(307,934,o),
(620,1119,o),
(1480,1119,cs),
(2340,1119,o),
(2652,934,o),
(2652,637,cs),
(2652,340,o),
(2340,156,o),
(1480,156,cs),
(620,156,o),
(307,340,o),
(307,637,cs)
);
}
);
width = 2959;
},
{
associatedMasterId = m01;
layerId = "2D15BC27-20D8-4E2E-B87C-6BA9BE7AB891";
name = "29. 3. 24 at 7:09 PM";
shapes = (
{
closed = 1;
nodes = (
(364,1321,o),
(102,1068,o),
(102,640,cs),
(102,212,o),
(364,-41,o),
(916,-41,cs),
(1469,-41,o),
(1731,212,o),
(1731,640,cs),
(1731,1068,o),
(1469,1321,o),
(916,1321,cs)
);
},
{
closed = 1;
nodes = (
(307,937,o),
(466,1121,o),
(916,1121,cs),
(1367,1121,o),
(1526,937,o),
(1526,640,cs),
(1526,343,o),
(1367,159,o),
(916,159,cs),
(466,159,o),
(307,343,o),
(307,640,cs)
);
}
);
width = 1833;
},
{
anchors = (
{
name = bottom;
pos = (914,0);
},
{
name = center;
pos = (914,640);
},
{
name = ogonek;
pos = (1647,26);
},
{
name = top;
pos = (914,1280);
},
{
name = topright;
pos = (1780,1280);
}
);
layerId = m003;
shapes = (
{
closed = 1;
nodes = (
(1058,0,ls),
(1467,0,o),
(1729,212,o),
(1729,640,cs),
(1729,1068,o),
(1467,1280,o),
(1058,1280,cs),
(771,1280,ls),
(362,1280,o),
(100,1068,o),
(100,640,cs),
(100,212,o),
(362,0,o),
(771,0,cs)
);
},
{
closed = 1;
nodes = (
(771,200,ls),
(464,200,o),
(305,343,o),
(305,640,cs),
(305,934,o),
(464,1080,o),
(771,1080,cs),
(1058,1080,ls),
(1365,1080,o),
(1524,934,o),
(1524,640,cs),
(1524,343,o),
(1365,200,o),
(1058,200,cs)
);
}
);
width = 1829;
},
{
associatedMasterId = m003;
layerId = "0F806A47-B1F4-4887-A377-02A0C29F1A34";
name = "29. 3. 24 at 7:09 PM";
shapes = (
{
closed = 1;
nodes = (
(364,1321,o),
(102,1068,o),
(102,640,cs),
(102,212,o),
(364,-41,o),
(916,-41,cs),
(1469,-41,o),
(1731,212,o),
(1731,640,cs),
(1731,1068,o),
(1469,1321,o),
(916,1321,cs)
);
},
{
closed = 1;
nodes = (
(307,937,o),
(466,1121,o),
(916,1121,cs),
(1367,1121,o),
(1526,937,o),
(1526,640,cs),
(1526,343,o),
(1367,159,o),
(916,159,cs),
(466,159,o),
(307,343,o),
(307,640,cs)
);
}
);
width = 1833;
},
{
anchors = (
{
name = bottom;
pos = (1478,0);
},
{
name = center;
pos = (1478,640);
},
{
name = ogonek;
pos = (2660,26);
},
{
name = top;
pos = (1478,1280);
},
{
name = topright;
pos = (2906,1280);
}
);
layerId = m005;
shapes = (
{
closed = 1;
nodes = (
(2184,0,ls),
(2594,0,o),
(2855,212,o),
(2855,640,cs),
(2855,1068,o),
(2594,1280,o),
(2184,1280,cs),
(771,1280,ls),
(362,1280,o),
(100,1068,o),
(100,640,cs),
(100,212,o),
(362,0,o),
(771,0,cs)
);
},
{
closed = 1;
nodes = (
(771,200,ls),
(464,200,o),
(305,343,o),
(305,640,cs),
(305,934,o),
(464,1080,o),
(771,1080,cs),
(2184,1080,ls),
(2491,1080,o),
(2650,934,o),
(2650,640,cs),
(2650,343,o),
(2491,200,o),
(2184,200,cs)
);
}
);
width = 2955;
},
{
associatedMasterId = m005;
layerId = "E660F91D-5439-452F-A902-39E6A541FCD8";
name = "29. 3. 24 at 7:08 PM";
shapes = (
{
closed = 1;
nodes = (
(517,1318,o),
(102,1065,o),
(102,637,cs),
(102,210,o),
(517,-44,o),
(1480,-44,cs),
(2442,-44,o),
(2857,210,o),
(2857,637,cs),
(2857,1065,o),
(2442,1318,o),
(1480,1318,cs)
);
},
{
closed = 1;
nodes = (
(307,934,o),
(620,1119,o),
(1480,1119,cs),
(2340,1119,o),
(2652,934,o),
(2652,637,cs),
(2652,340,o),
(2340,156,o),
(1480,156,cs),
(620,156,o),
(307,340,o),
(307,637,cs)
);
}
);
width = 2959;
}
);
unicode = 111;
},
{
glyphname = oslash;
kernLeft = o;
kernRight = o;
lastChange = "2025-01-25 17:31:50 +0000";
layers = (
{
guides = (
{
pos = (540,386);
},
{
pos = (174,112);
}
);
layerId = m01;
shapes = (
{
closed = 1;
nodes = (
(358,102,l),
(467,34,o),
(607,0,o),
(771,0,cs),
(1058,0,ls),
(1467,0,o),
(1729,212,o),
(1729,640,cs),
(1729,812,o),
(1686,950,o),
(1610,1051,c),
(1729,1142,l),
(1605,1280,l),
(1471,1178,l),
(1362,1246,o),
(1222,1280,o),
(1058,1280,cs),
(771,1280,ls),
(362,1280,o),
(100,1068,o),
(100,640,cs),
(100,468,o),
(143,330,o),
(219,229,c),
(100,138,l),
(224,0,l)
);
},
{
closed = 1;
nodes = (
(383,353,l),
(331,424,o),
(305,519,o),
(305,640,cs),
(305,934,o),
(464,1080,o),
(771,1080,cs),
(1058,1080,ls),
(1149,1080,o),
(1227,1067,o),
(1291,1042,c)
);
},
{
closed = 1;
nodes = (
(771,200,ls),
(680,200,o),
(602,213,o),
(538,238,c),
(1445,927,l),
(1498,855,o),
(1524,760,o),
(1524,640,cs),
(1524,343,o),
(1365,200,o),
(1058,200,cs)
);
}
);
width = 1829;
},
{
layerId = m004;
shapes = (
{
closed = 1;
nodes = (
(392,83,l),
(495,28,o),
(624,0,o),
(771,0,cs),
(2184,0,ls),
(2594,0,o),
(2855,212,o),
(2855,640,cs),
(2855,815,o),
(2812,953,o),
(2732,1057,c),
(2855,1108,l),
(2763,1280,l),
(2564,1197,l),
(2459,1253,o),
(2332,1280,o),
(2184,1280,cs),
(771,1280,ls),
(362,1280,o),
(100,1068,o),
(100,640,cs),
(100,465,o),
(143,327,o),
(223,223,c),
(100,172,l),
(193,0,l)
);
},
{
closed = 1;
nodes = (
(425,307,l),
(345,380,o),
(305,490,o),
(305,640,cs),
(305,934,o),
(464,1080,o),
(771,1080,cs),
(2184,1080,ls),
(2215,1080,o),
(2244,1079,o),
(2272,1076,c)
);
},
{
closed = 1;
nodes = (
(771,200,ls),
(740,200,o),
(712,201,o),
(684,204,c),
(2530,973,l),
(2609,900,o),
(2650,789,o),
(2650,640,cs),
(2650,343,o),
(2491,200,o),
(2184,200,cs)
);
}
);
width = 2955;
},
{
layerId = m003;
shapes = (
{
closed = 1;
nodes = (
(358,102,l),
(467,34,o),
(607,0,o),
(771,0,cs),
(1058,0,ls),
(1467,0,o),
(1729,212,o),
(1729,640,cs),
(1729,812,o),
(1686,950,o),
(1610,1051,c),
(1729,1142,l),
(1605,1280,l),
(1471,1178,l),
(1362,1246,o),
(1222,1280,o),
(1058,1280,cs),
(771,1280,ls),
(362,1280,o),
(100,1068,o),
(100,640,cs),
(100,468,o),
(143,330,o),
(219,229,c),
(100,138,l),
(224,0,l)
);
},
{
closed = 1;
nodes = (
(383,353,l),
(331,424,o),
(305,519,o),
(305,640,cs),
(305,934,o),
(464,1080,o),
(771,1080,cs),
(1058,1080,ls),
(1149,1080,o),
(1227,1067,o),
(1291,1042,c)
);
},
{
closed = 1;
nodes = (
(771,200,ls),
(680,200,o),
(602,213,o),
(538,238,c),
(1445,927,l),
(1498,855,o),
(1524,760,o),
(1524,640,cs),
(1524,343,o),
(1365,200,o),
(1058,200,cs)
);
}
);
width = 1829;
},
{
layerId = m005;
shapes = (
{
closed = 1;
nodes = (
(392,83,l),
(495,28,o),
(624,0,o),
(771,0,cs),
(2184,0,ls),
(2594,0,o),
(2855,212,o),
(2855,640,cs),
(2855,815,o),
(2812,953,o),
(2732,1057,c),
(2855,1108,l),
(2763,1280,l),
(2564,1197,l),
(2459,1253,o),
(2332,1280,o),
(2184,1280,cs),
(771,1280,ls),
(362,1280,o),
(100,1068,o),
(100,640,cs),
(100,465,o),
(143,327,o),
(223,223,c),
(100,172,l),
(193,0,l)
);
},
{
closed = 1;
nodes = (
(425,307,l),
(345,380,o),
(305,490,o),
(305,640,cs),
(305,934,o),
(464,1080,o),
(771,1080,cs),
(2184,1080,ls),
(2215,1080,o),
(2244,1079,o),
(2272,1076,c)
);
},
{
closed = 1;
nodes = (
(771,200,ls),
(740,200,o),
(712,201,o),
(684,204,c),
(2530,973,l),
(2609,900,o),
(2650,789,o),
(2650,640,cs),
(2650,343,o),
(2491,200,o),
(2184,200,cs)
);
}
);
width = 2955;
}
);
metricLeft = o;
metricRight = o;
unicode = 248;
},
{
glyphname = oe;
kernLeft = o;
kernRight = o;
lastChange = "2025-01-25 17:31:50 +0000";
layers = (
{
layerId = m01;
shapes = (
{
closed = 1;
nodes = (
(1058,0,ls),
(1311,0,o),
(1507,81,o),
(1616,254,c),
(1636,254,l),
(1745,81,o),
(1941,0,o),
(2194,0,cs),
(3070,0,l),
(3070,200,l),
(2194,200,ls),
(1908,200,o),
(1752,326,o),
(1731,581,c),
(3152,581,l),
(3152,640,ls),
(3152,1068,o),
(2891,1280,o),
(2481,1280,cs),
(2194,1280,ls),
(1941,1280,o),
(1745,1199,o),
(1636,1026,c),
(1616,1026,l),
(1507,1199,o),
(1311,1280,o),
(1058,1280,cs),
(771,1280,ls),
(362,1280,o),
(100,1068,o),
(100,640,cs),
(100,212,o),
(362,0,o),
(771,0,cs)
);
},
{
closed = 1;
nodes = (
(771,200,ls),
(464,200,o),
(305,343,o),
(305,640,cs),
(305,934,o),
(464,1080,o),
(771,1080,cs),
(1058,1080,ls),
(1365,1080,o),
(1524,934,o),
(1524,640,cs),
(1524,343,o),
(1365,200,o),
(1058,200,cs)
);
},
{
closed = 1;
nodes = (
(1743,781,l),
(1788,982,o),
(1940,1080,o),
(2194,1080,cs),
(2481,1080,ls),
(2734,1080,o),
(2887,980,o),
(2932,781,c)
);
}
);
width = 3252;
},
{
layerId = m004;
shapes = (
{
closed = 1;
nodes = (
(1877,0,ls),
(2131,0,o),
(2327,81,o),
(2436,254,c),
(2456,254,l),
(2565,81,o),
(2760,0,o),
(3014,0,cs),
(4708,0,l),
(4708,200,l),
(3014,200,ls),
(2727,200,o),
(2571,326,o),
(2550,581,c),
(4760,581,l),
(4760,640,ls),
(4760,1068,o),
(4498,1280,o),
(4089,1280,cs),
(3014,1280,ls),
(2760,1280,o),
(2565,1199,o),
(2456,1026,c),
(2436,1026,l),
(2327,1199,o),
(2131,1280,o),
(1877,1280,cs),
(771,1280,ls),
(362,1280,o),
(100,1068,o),
(100,640,cs),
(100,212,o),
(362,0,o),
(771,0,cs)
);
},
{
closed = 1;
nodes = (
(771,200,ls),
(464,200,o),
(305,343,o),
(305,640,cs),
(305,934,o),
(464,1080,o),
(771,1080,cs),
(1877,1080,ls),
(2184,1080,o),
(2343,934,o),
(2343,640,cs),
(2343,343,o),
(2184,200,o),
(1877,200,cs)
);
},
{
closed = 1;
nodes = (
(2562,781,l),
(2607,982,o),
(2760,1080,o),
(3014,1080,cs),
(4089,1080,ls),
(4342,1080,o),
(4495,980,o),
(4540,781,c)
);
}
);
width = 4860;
},
{
layerId = m003;
shapes = (
{
closed = 1;
nodes = (
(1058,0,ls),
(1294,0,o),
(1481,71,o),
(1576,250,c),
(1676,250,l),
(1771,71,o),
(1958,0,o),
(2194,0,cs),
(3070,0,l),
(3070,200,l),
(2194,200,ls),
(1908,200,o),
(1752,326,o),
(1731,581,c),
(3152,581,l),
(3152,640,ls),
(3152,1068,o),
(2891,1280,o),
(2481,1280,cs),
(2194,1280,ls),
(1958,1280,o),
(1771,1209,o),
(1676,1030,c),
(1576,1030,l),
(1481,1209,o),
(1294,1280,o),
(1058,1280,cs),
(771,1280,ls),
(362,1280,o),
(100,1068,o),
(100,640,cs),
(100,212,o),
(362,0,o),
(771,0,cs)
);
},
{
closed = 1;
nodes = (
(771,200,ls),
(464,200,o),
(305,343,o),
(305,640,cs),
(305,934,o),
(464,1080,o),
(771,1080,cs),
(1058,1080,ls),
(1365,1080,o),
(1524,934,o),
(1524,640,cs),
(1524,343,o),
(1365,200,o),
(1058,200,cs)
);
},
{
closed = 1;
nodes = (
(1743,781,l),
(1788,982,o),
(1940,1080,o),
(2194,1080,cs),
(2481,1080,ls),
(2734,1080,o),
(2887,980,o),
(2932,781,c)
);
}
);
width = 3252;
},
{
layerId = m005;
shapes = (
{
closed = 1;
nodes = (
(1877,0,ls),
(2114,0,o),
(2301,71,o),
(2396,250,c),
(2496,250,l),
(2591,71,o),
(2777,0,o),
(3014,0,cs),
(4708,0,l),
(4708,200,l),
(3014,200,ls),
(2727,200,o),
(2571,326,o),
(2550,581,c),
(4760,581,l),
(4760,640,ls),
(4760,1068,o),
(4498,1280,o),
(4089,1280,cs),
(3014,1280,ls),
(2777,1280,o),
(2591,1209,o),
(2496,1030,c),
(2396,1030,l),
(2301,1209,o),
(2114,1280,o),
(1877,1280,cs),
(771,1280,ls),
(362,1280,o),
(100,1068,o),
(100,640,cs),
(100,212,o),
(362,0,o),
(771,0,cs)
);
},
{
closed = 1;
nodes = (
(771,200,ls),
(464,200,o),
(305,343,o),
(305,640,cs),
(305,934,o),
(464,1080,o),
(771,1080,cs),
(1877,1080,ls),
(2184,1080,o),
(2343,934,o),
(2343,640,cs),
(2343,343,o),
(2184,200,o),
(1877,200,cs)
);
},
{
closed = 1;
nodes = (
(2562,781,l),
(2607,982,o),
(2760,1080,o),
(3014,1080,cs),
(4089,1080,ls),
(4342,1080,o),
(4495,980,o),
(4540,781,c)
);
}
);
width = 4860;
}
);
metricLeft = o;
metricRight = e;
unicode = 339;
},
{
glyphname = p;
kernLeft = n;
kernRight = o;
lastChange = "2025-01-25 17:31:50 +0000";
layers = (
{
anchors = (
{
name = bottom;
pos = (887,0);
},
{
name = top;
pos = (887,1280);
}
);
layerId = m01;
shapes = (
{
closed = 1;
nodes = (
(364,-512,l),
(364,123,l),
(384,123,l),
(477,29,o),
(590,0,o),
(720,0,cs),
(992,0,ls),
(1401,0,o),
(1662,212,o),
(1662,640,cs),
(1662,1068,o),
(1401,1280,o),
(992,1280,cs),
(720,1280,ls),
(590,1280,o),
(477,1251,o),
(384,1157,c),
(364,1157,l),
(364,1280,l),
(160,1280,l),
(160,-512,l)
);
},
{
closed = 1;
nodes = (
(720,200,ls),
(472,200,o),
(364,320,o),
(364,499,cs),
(364,781,ls),
(364,960,o),
(472,1080,o),
(720,1080,cs),
(992,1080,ls),
(1299,1080,o),
(1458,937,o),
(1458,643,cs),
(1458,346,o),
(1299,200,o),
(992,200,cs)
);
}
);
width = 1762;
},
{
anchors = (
{
name = bottom;
pos = (1450,0);
},
{
name = top;
pos = (1450,1280);
}
);
layerId = m004;
shapes = (
{
closed = 1;
nodes = (
(364,-512,l),
(364,123,l),
(384,123,l),
(477,29,o),
(590,0,o),
(720,0,cs),
(2118,0,ls),
(2528,0,o),
(2789,212,o),
(2789,640,cs),
(2789,1068,o),
(2528,1280,o),
(2118,1280,cs),
(720,1280,ls),
(590,1280,o),
(477,1251,o),
(384,1157,c),
(364,1157,l),
(364,1280,l),
(160,1280,l),
(160,-512,l)
);
},
{
closed = 1;
nodes = (
(720,200,ls),
(472,200,o),
(364,320,o),
(364,499,cs),
(364,781,ls),
(364,960,o),
(472,1080,o),
(720,1080,cs),
(2118,1080,ls),
(2425,1080,o),
(2584,937,o),
(2584,643,cs),
(2584,346,o),
(2425,200,o),
(2118,200,cs)
);
}
);
width = 2889;
},
{
anchors = (
{
name = bottom;
pos = (887,0);
},
{
name = top;
pos = (887,1280);
}
);
layerId = m003;
shapes = (
{
closed = 1;
nodes = (
(364,-512,l),
(364,175,l),
(464,175,l),
(541,15,o),
(626,0,o),
(720,0,cs),
(992,0,ls),
(1401,0,o),
(1662,212,o),
(1662,640,cs),
(1662,1068,o),
(1401,1280,o),
(992,1280,cs),
(720,1280,ls),
(626,1280,o),
(541,1265,o),
(464,1105,c),
(364,1105,l),
(364,1280,l),
(160,1280,l),
(160,-512,l)
);
},
{
closed = 1;
nodes = (
(720,200,ls),
(472,200,o),
(364,320,o),
(364,499,cs),
(364,781,ls),
(364,960,o),
(472,1080,o),
(720,1080,cs),
(992,1080,ls),
(1299,1080,o),
(1458,937,o),
(1458,643,cs),
(1458,346,o),
(1299,200,o),
(992,200,cs)
);
}
);
width = 1762;
},
{
anchors = (
{
name = bottom;
pos = (1450,0);
},
{
name = top;
pos = (1450,1280);
}
);
layerId = m005;
shapes = (
{
closed = 1;
nodes = (
(364,-512,l),
(364,175,l),
(464,175,l),
(541,15,o),
(626,0,o),
(720,0,cs),
(2118,0,ls),
(2528,0,o),
(2789,212,o),
(2789,640,cs),
(2789,1068,o),
(2528,1280,o),
(2118,1280,cs),
(720,1280,ls),
(626,1280,o),
(541,1265,o),
(464,1105,c),
(364,1105,l),
(364,1280,l),
(160,1280,l),
(160,-512,l)
);
},
{
closed = 1;
nodes = (
(720,200,ls),
(472,200,o),
(364,320,o),
(364,499,cs),
(364,781,ls),
(364,960,o),
(472,1080,o),
(720,1080,cs),
(2118,1080,ls),
(2425,1080,o),
(2584,937,o),
(2584,643,cs),
(2584,346,o),
(2425,200,o),
(2118,200,cs)
);
}
);
width = 2889;
}
);
metricLeft = n;
metricRight = o;
unicode = 112;
},
{
glyphname = thorn;
kernLeft = n;
kernRight = o;
lastChange = "2025-01-25 17:31:50 +0000";
layers = (
{
layerId = m01;
shapes = (
{
closed = 1;
nodes = (
(384,-512,l),
(384,123,l),
(404,123,l),
(497,29,o),
(610,0,o),
(740,0,cs),
(1012,0,ls),
(1421,0,o),
(1682,212,o),
(1682,640,cs),
(1682,1068,o),
(1421,1280,o),
(1012,1280,cs),
(740,1280,ls),
(610,1280,o),
(497,1251,o),
(404,1157,c),
(384,1157,l),
(384,1792,l),
(180,1792,l),
(180,-512,l)
);
},
{
closed = 1;
nodes = (
(740,200,ls),
(492,200,o),
(384,320,o),
(384,499,cs),
(384,781,ls),
(384,960,o),
(492,1080,o),
(740,1080,cs),
(1012,1080,ls),
(1319,1080,o),
(1478,937,o),
(1478,643,cs),
(1478,346,o),
(1319,200,o),
(1012,200,cs)
);
}
);
width = 1782;
},
{
layerId = m004;
shapes = (
{
closed = 1;
nodes = (
(384,-512,l),
(384,123,l),
(404,123,l),
(497,29,o),
(610,0,o),
(740,0,cs),
(2138,0,ls),
(2548,0,o),
(2809,212,o),
(2809,640,cs),
(2809,1068,o),
(2548,1280,o),
(2138,1280,cs),
(740,1280,ls),
(610,1280,o),
(497,1251,o),
(404,1157,c),
(384,1157,l),
(384,1792,l),
(180,1792,l),
(180,-512,l)
);
},
{
closed = 1;
nodes = (
(740,200,ls),
(492,200,o),
(384,320,o),
(384,499,cs),
(384,781,ls),
(384,960,o),
(492,1080,o),
(740,1080,cs),
(2138,1080,ls),
(2445,1080,o),
(2604,937,o),
(2604,643,cs),
(2604,346,o),
(2445,200,o),
(2138,200,cs)
);
}
);
width = 2909;
},
{
layerId = m003;
shapes = (
{
closed = 1;
nodes = (
(384,-512,l),
(384,175,l),
(484,175,l),
(561,15,o),
(646,0,o),
(740,0,cs),
(1012,0,ls),
(1421,0,o),
(1682,212,o),
(1682,640,cs),
(1682,1068,o),
(1421,1280,o),
(1012,1280,cs),
(740,1280,ls),
(646,1280,o),
(561,1265,o),
(484,1105,c),
(384,1105,l),
(384,1792,l),
(180,1792,l),
(180,-512,l)
);
},
{
closed = 1;
nodes = (
(740,200,ls),
(492,200,o),
(384,320,o),
(384,499,cs),
(384,781,ls),
(384,960,o),
(492,1080,o),
(740,1080,cs),
(1012,1080,ls),
(1319,1080,o),
(1478,937,o),
(1478,643,cs),
(1478,346,o),
(1319,200,o),
(1012,200,cs)
);
}
);
width = 1782;
},
{
layerId = m005;
shapes = (
{
closed = 1;
nodes = (
(384,-512,l),
(384,175,l),
(484,175,l),
(561,15,o),
(646,0,o),
(740,0,cs),
(2138,0,ls),
(2548,0,o),
(2809,212,o),
(2809,640,cs),
(2809,1068,o),
(2548,1280,o),
(2138,1280,cs),
(740,1280,ls),
(646,1280,o),
(561,1265,o),
(484,1105,c),
(384,1105,l),
(384,1792,l),
(180,1792,l),
(180,-512,l)
);
},
{
closed = 1;
nodes = (
(740,200,ls),
(492,200,o),
(384,320,o),
(384,499,cs),
(384,781,ls),
(384,960,o),
(492,1080,o),
(740,1080,cs),
(2138,1080,ls),
(2445,1080,o),
(2604,937,o),
(2604,643,cs),
(2604,346,o),
(2445,200,o),
(2138,200,cs)
);
}
);
width = 2909;
}
);
metricLeft = l;
metricRight = o;
unicode = 254;
},
{
glyphname = q;
kernLeft = o;
kernRight = n;
lastChange = "2025-01-25 17:31:50 +0000";
layers = (
{
anchors = (
{
name = bottom;
pos = (879,0);
},
{
name = top;
pos = (879,1280);
}
);
layerId = m01;
shapes = (
{
closed = 1;
nodes = (
(1603,-512,l),
(1603,1280,l),
(1398,1280,l),
(1398,1156,l),
(1378,1156,l),
(1285,1251,o),
(1172,1280,o),
(1042,1280,cs),
(771,1280,ls),
(362,1280,o),
(100,1068,o),
(100,640,cs),
(100,212,o),
(362,0,o),
(771,0,cs),
(1042,0,ls),
(1172,0,o),
(1285,29,o),
(1378,124,c),
(1398,124,l),
(1398,-512,l)
);
},
{
closed = 1;
nodes = (
(771,200,ls),
(464,200,o),
(305,343,o),
(305,640,cs),
(305,934,o),
(464,1080,o),
(771,1080,cs),
(1042,1080,ls),
(1291,1080,o),
(1398,960,o),
(1398,781,cs),
(1398,499,ls),
(1398,320,o),
(1291,200,o),
(1042,200,cs)
);
}
);
width = 1763;
},
{
anchors = (
{
name = bottom;
pos = (1442,0);
},
{
name = top;
pos = (1442,1280);
}
);
layerId = m004;
shapes = (
{
closed = 1;
nodes = (
(2730,-512,l),
(2730,1280,l),
(2525,1280,l),
(2525,1157,l),
(2505,1157,l),
(2412,1251,o),
(2299,1280,o),
(2169,1280,cs),
(771,1280,ls),
(362,1280,o),
(100,1068,o),
(100,640,cs),
(100,212,o),
(362,0,o),
(771,0,cs),
(2169,0,ls),
(2299,0,o),
(2412,29,o),
(2505,123,c),
(2525,123,l),
(2525,-512,l)
);
},
{
closed = 1;
nodes = (
(771,200,ls),
(464,200,o),
(305,343,o),
(305,637,cs),
(305,934,o),
(464,1080,o),
(771,1080,cs),
(2169,1080,ls),
(2417,1080,o),
(2525,960,o),
(2525,781,cs),
(2525,499,ls),
(2525,320,o),
(2417,200,o),
(2169,200,cs)
);
}
);
width = 2890;
},
{
anchors = (
{
name = bottom;
pos = (879,0);
},
{
name = top;
pos = (879,1280);
}
);
layerId = m003;
shapes = (
{
closed = 1;
nodes = (
(1603,-512,l),
(1603,1280,l),
(1398,1280,l),
(1398,1105,l),
(1298,1105,l),
(1221,1265,o),
(1136,1280,o),
(1042,1280,cs),
(771,1280,ls),
(362,1280,o),
(100,1068,o),
(100,640,cs),
(100,212,o),
(362,0,o),
(771,0,cs),
(1042,0,ls),
(1136,0,o),
(1221,15,o),
(1298,175,c),
(1398,175,l),
(1398,-512,l)
);
},
{
closed = 1;
nodes = (
(771,200,ls),
(464,200,o),
(305,343,o),
(305,640,cs),
(305,934,o),
(464,1080,o),
(771,1080,cs),
(1042,1080,ls),
(1291,1080,o),
(1398,960,o),
(1398,781,cs),
(1398,499,ls),
(1398,320,o),
(1291,200,o),
(1042,200,cs)
);
}
);
width = 1763;
},
{
anchors = (
{
name = bottom;
pos = (1442,0);
},
{
name = top;
pos = (1442,1280);
}
);
layerId = m005;
shapes = (
{
closed = 1;
nodes = (
(2730,-512,l),
(2730,1280,l),
(2525,1280,l),
(2525,1105,l),
(2425,1105,l),
(2348,1265,o),
(2263,1280,o),
(2169,1280,cs),
(771,1280,ls),
(362,1280,o),
(100,1068,o),
(100,640,cs),
(100,212,o),
(362,0,o),
(771,0,cs),
(2169,0,ls),
(2263,0,o),
(2348,15,o),
(2425,175,c),
(2525,175,l),
(2525,-512,l)
);
},
{
closed = 1;
nodes = (
(771,200,ls),
(464,200,o),
(305,343,o),
(305,637,cs),
(305,934,o),
(464,1080,o),
(771,1080,cs),
(2169,1080,ls),
(2417,1080,o),
(2525,960,o),
(2525,781,cs),
(2525,499,ls),
(2525,320,o),
(2417,200,o),
(2169,200,cs)
);
}
);
width = 2890;
}
);
metricLeft = o;
metricRight = n;
unicode = 113;
},
{
glyphname = r;
kernLeft = n;
lastChange = "2025-01-25 17:31:50 +0000";
layers = (
{
anchors = (
{
name = bottom;
pos = (684,0);
},
{
name = top;
pos = (684,1280);
}
);
guides = (
{
angle = 270;
pos = (591,281);
},
{
angle = 270;
pos = (18,281);
}
);
layerId = m01;
shapes = (
{
closed = 1;
nodes = (
(364,0,l),
(364,781,ls),
(364,960,o),
(472,1080,o),
(720,1080,cs),
(789,1080,ls),
(1038,1080,o),
(1145,960,o),
(1145,781,c),
(1350,781,l),
(1350,1083,o),
(1130,1280,o),
(789,1280,cs),
(720,1280,ls),
(590,1280,o),
(477,1251,o),
(384,1157,c),
(364,1157,l),
(364,1280,l),
(160,1280,l),
(160,0,l)
);
}
);
width = 1370;
},
{
anchors = (
{
name = bottom;
pos = (1066,0);
},
{
name = top;
pos = (1066,1280);
}
);
guides = (
{
pos = (768,479);
},
{
pos = (763,388);
},
{
angle = 270;
pos = (-10,281);
}
);
layerId = m004;
shapes = (
{
closed = 1;
nodes = (
(364,0,l),
(364,781,ls),
(364,960,o),
(472,1080,o),
(720,1080,cs),
(1550,1080,ls),
(1798,1080,o),
(1906,960,o),
(1906,781,c),
(2110,781,l),
(2110,1083,o),
(1890,1280,o),
(1550,1280,cs),
(720,1280,ls),
(590,1280,o),
(477,1251,o),
(384,1157,c),
(364,1157,l),
(364,1280,l),
(160,1280,l),
(160,0,l)
);
}
);
width = 2130;
},
{
anchors = (
{
name = bottom;
pos = (684,0);
},
{
name = top;
pos = (684,1280);
}
);
guides = (
{
angle = 270;
pos = (591,281);
},
{
angle = 270;
pos = (18,281);
}
);
layerId = m003;
shapes = (
{
closed = 1;
nodes = (
(364,0,l),
(364,781,ls),
(364,960,o),
(472,1080,o),
(720,1080,cs),
(789,1080,ls),
(1038,1080,o),
(1145,960,o),
(1145,781,c),
(1350,781,l),
(1350,1083,o),
(1130,1280,o),
(789,1280,cs),
(720,1280,ls),
(626,1280,o),
(541,1265,o),
(464,1105,c),
(364,1105,l),
(364,1280,l),
(160,1280,l),
(160,0,l)
);
}
);
width = 1370;
},
{
anchors = (
{
name = bottom;
pos = (1066,0);
},
{
name = top;
pos = (1066,1280);
}
);
guides = (
{
pos = (768,479);
},
{
pos = (763,388);
},
{
angle = 270;
pos = (-10,281);
}
);
layerId = m005;
shapes = (
{
closed = 1;
nodes = (
(364,0,l),
(364,781,ls),
(364,960,o),
(472,1080,o),
(720,1080,cs),
(1550,1080,ls),
(1798,1080,o),
(1906,960,o),
(1906,781,c),
(2110,781,l),
(2110,1083,o),
(1890,1280,o),
(1550,1280,cs),
(720,1280,ls),
(626,1280,o),
(541,1265,o),
(464,1105,c),
(364,1105,l),
(364,1280,l),
(160,1280,l),
(160,0,l)
);
}
);
width = 2130;
}
);
metricLeft = n;
metricRight = "=v-40";
unicode = 114;
},
{
glyphname = s;
kernLeft = o;
kernRight = o;
lastChange = "2025-01-25 17:31:50 +0000";
layers = (
{
anchors = (
{
name = bottom;
pos = (876,0);
},
{
name = top;
pos = (876,1280);
}
);
layerId = m01;
shapes = (
{
closed = 1;
nodes = (
(1168,0,ls),
(1434,0,o),
(1652,100,o),
(1652,379,cs),
(1652,658,o),
(1434,763,o),
(1168,763,cs),
(533,763,ls),
(395,763,o),
(305,819,o),
(305,922,cs),
(305,1024,o),
(395,1080,o),
(533,1080,cs),
(1601,1080,l),
(1601,1280,l),
(559,1280,ls),
(298,1280,o),
(100,1190,o),
(100,922,cs),
(100,653,o),
(298,558,o),
(559,558,cs),
(1188,558,ls),
(1339,558,o),
(1447,507,o),
(1447,379,cs),
(1447,251,o),
(1339,200,o),
(1188,200,cs),
(152,200,l),
(152,0,l)
);
}
);
width = 1752;
},
{
anchors = (
{
name = bottom;
pos = (1439,0);
},
{
name = top;
pos = (1439,1280);
}
);
layerId = m004;
shapes = (
{
closed = 1;
nodes = (
(2294,0,ls),
(2561,0,o),
(2778,100,o),
(2778,379,cs),
(2778,658,o),
(2561,763,o),
(2294,763,cs),
(533,763,ls),
(395,763,o),
(305,819,o),
(305,922,cs),
(305,1024,o),
(395,1080,o),
(533,1080,cs),
(2727,1080,l),
(2727,1280,l),
(559,1280,ls),
(298,1280,o),
(100,1190,o),
(100,922,cs),
(100,653,o),
(298,558,o),
(559,558,cs),
(2315,558,ls),
(2466,558,o),
(2573,507,o),
(2573,379,cs),
(2573,251,o),
(2466,200,o),
(2315,200,cs),
(152,200,l),
(152,0,l)
);
}
);
width = 2878;
},
{
anchors = (
{
name = bottom;
pos = (876,0);
},
{
name = top;
pos = (876,1280);
}
);
layerId = m003;
shapes = (
{
closed = 1;
nodes = (
(1168,0,ls),
(1434,0,o),
(1652,100,o),
(1652,379,cs),
(1652,658,o),
(1434,763,o),
(1168,763,cs),
(533,763,ls),
(395,763,o),
(305,819,o),
(305,922,cs),
(305,1024,o),
(395,1080,o),
(533,1080,cs),
(1601,1080,l),
(1601,1280,l),
(559,1280,ls),
(298,1280,o),
(100,1190,o),
(100,922,cs),
(100,653,o),
(298,558,o),
(559,558,cs),
(1188,558,ls),
(1339,558,o),
(1447,507,o),
(1447,379,cs),
(1447,251,o),
(1339,200,o),
(1188,200,cs),
(152,200,l),
(152,0,l)
);
}
);
width = 1752;
},
{
anchors = (
{
name = bottom;
pos = (1439,0);
},
{
name = top;
pos = (1439,1280);
}
);
layerId = m005;
shapes = (
{
closed = 1;
nodes = (
(2294,0,ls),
(2561,0,o),
(2778,100,o),
(2778,379,cs),
(2778,658,o),
(2561,763,o),
(2294,763,cs),
(533,763,ls),
(395,763,o),
(305,819,o),
(305,922,cs),
(305,1024,o),
(395,1080,o),
(533,1080,cs),
(2727,1080,l),
(2727,1280,l),
(559,1280,ls),
(298,1280,o),
(100,1190,o),
(100,922,cs),
(100,653,o),
(298,558,o),
(559,558,cs),
(2315,558,ls),
(2466,558,o),
(2573,507,o),
(2573,379,cs),
(2573,251,o),
(2466,200,o),
(2315,200,cs),
(152,200,l),
(152,0,l)
);
}
);
width = 2878;
}
);
metricLeft = o;
metricRight = o;
unicode = 115;
},
